<svg width="20" height="21" viewBox="0 0 20 21" fill="none" xmlns="http://www.w3.org/2000/svg">
<g clip-path="url(#clip0_557_63)">
<mask id="mask0_557_63" style="mask-type:luminance" maskUnits="userSpaceOnUse" x="1" y="3" width="18" height="8">
<path d="M1.06668 3.04492H18.6667V10.3533H1.06668V3.04492Z" fill="white"/>
</mask>
<g mask="url(#mask0_557_63)">
<path d="M18.4334 3.20742C18.1729 3.09701 17.9 3.04492 17.6167 3.04492H2.12086C1.85211 3.04492 1.59377 3.09701 1.34586 3.19909L9.86877 10.3283L18.4334 3.20742Z" fill="#EEEEEE"/>
</g>
<mask id="mask1_557_63" style="mask-type:luminance" maskUnits="userSpaceOnUse" x="0" y="3" width="20" height="15">
<path d="M0 3.95312H19.7333V17.2552H0V3.95312Z" fill="white"/>
</mask>
<g mask="url(#mask1_557_63)">
<path d="M19.475 4.17174L10.3187 11.7863C10.1875 11.8947 10.0375 11.9488 9.86875 11.9467C9.69792 11.9488 9.54792 11.8947 9.41667 11.7863L0.274998 4.14258C0.099998 4.45924 0.012498 4.79674 0.0083313 5.15716V15.0176C0.0083313 15.1572 0.0208313 15.2947 0.0479147 15.4301C0.074998 15.5676 0.114581 15.6988 0.168748 15.828C0.220831 15.9551 0.285415 16.078 0.362498 16.1926C0.439581 16.3072 0.529165 16.4155 0.627081 16.5134C0.724998 16.6113 0.831248 16.6988 0.945832 16.7759C1.0625 16.853 1.18333 16.9176 1.3125 16.9717C1.43958 17.0238 1.57291 17.0634 1.70833 17.0905C1.84375 17.1176 1.98125 17.1322 2.12083 17.1322H17.6167C17.7542 17.1322 17.8917 17.1176 18.0292 17.0905C18.1646 17.0634 18.2958 17.0238 18.425 16.9717C18.5542 16.9176 18.675 16.853 18.7896 16.7759C18.9062 16.6988 19.0125 16.6113 19.1104 16.5134C19.2083 16.4155 19.2958 16.3072 19.3729 16.1926C19.45 16.078 19.5146 15.9551 19.5687 15.828C19.6208 15.6988 19.6625 15.5676 19.6896 15.4301C19.7167 15.2947 19.7292 15.1572 19.7292 15.0176V5.15716C19.7271 4.80716 19.6417 4.48008 19.475 4.17174Z" fill="#EEEEEE"/>
</g>
</g>
<defs>
<clipPath id="clip0_557_63">
<rect width="20" height="20" fill="white" transform="translate(0 0.219727)"/>
</clipPath>
</defs>
</svg>
