<svg width="21" height="21" viewBox="0 0 21 21" fill="none" xmlns="http://www.w3.org/2000/svg">
<g filter="url(#filter0_i_552_29)">
<path d="M19.3333 9.67688V10.5051C19.3322 12.4466 18.7036 14.3356 17.5412 15.8905C16.3787 17.4455 14.7448 18.583 12.8831 19.1335C11.0213 19.6839 9.03152 19.6178 7.21042 18.945C5.38932 18.2722 3.83449 17.0288 2.77782 15.4001C1.72115 13.7714 1.21926 11.8448 1.347 9.90764C1.47474 7.97043 2.22526 6.12642 3.48664 4.65061C4.74801 3.1748 6.45266 2.14628 8.34634 1.71843C10.24 1.29057 12.2213 1.48632 13.9946 2.27648" stroke="#FFC809" stroke-width="2" stroke-linecap="round" stroke-linejoin="round"/>
<path d="M19.3334 3.30273L10.3304 12.3147L7.62955 9.61379" stroke="#FFC809" stroke-width="2" stroke-linecap="round" stroke-linejoin="round"/>
</g>
<defs>
<filter id="filter0_i_552_29" x="0.327484" y="0.49707" width="20.0059" height="24.0059" filterUnits="userSpaceOnUse" color-interpolation-filters="sRGB">
<feFlood flood-opacity="0" result="BackgroundImageFix"/>
<feBlend mode="normal" in="SourceGraphic" in2="BackgroundImageFix" result="shape"/>
<feColorMatrix in="SourceAlpha" type="matrix" values="0 0 0 0 0 0 0 0 0 0 0 0 0 0 0 0 0 0 127 0" result="hardAlpha"/>
<feOffset dy="4"/>
<feGaussianBlur stdDeviation="2"/>
<feComposite in2="hardAlpha" operator="arithmetic" k2="-1" k3="1"/>
<feColorMatrix type="matrix" values="0 0 0 0 1 0 0 0 0 0.784314 0 0 0 0 0.0352941 0 0 0 1 0"/>
<feBlend mode="normal" in2="shape" result="effect1_innerShadow_552_29"/>
</filter>
</defs>
</svg>
