<svg width="20" height="21" viewBox="0 0 20 21" fill="none" xmlns="http://www.w3.org/2000/svg">
<g clip-path="url(#clip0_557_82)">
<mask id="mask0_557_82" style="mask-type:luminance" maskUnits="userSpaceOnUse" x="0" y="0" width="20" height="20">
<path d="M0.0249939 0.219727H19.7375V19.9531H0.0249939V0.219727Z" fill="white"/>
</mask>
<g mask="url(#mask0_557_82)">
<path d="M9.88542 0.238341C4.40626 0.255007 0.0270902 4.70084 0.0979237 10.1675C0.110423 11.2758 0.30834 12.3508 0.687507 13.3925C1.06876 14.4321 1.61042 15.3821 2.31459 16.2404C2.42917 16.3779 2.49167 16.5342 2.50834 16.7133C2.52292 16.8904 2.48751 17.0571 2.40001 17.2113L1.55417 18.7238C1.32084 19.1446 1.70209 19.6404 2.16876 19.5217L5.03542 18.7925C5.24167 18.7404 5.43959 18.7613 5.63126 18.855C6.91459 19.4758 8.26876 19.8008 9.69376 19.8321C15.2042 19.9571 19.725 15.5654 19.7438 10.0675C19.7604 4.63001 15.3375 0.219591 9.88542 0.238341ZM9.92084 18.6279C9.63751 18.6279 9.35626 18.6133 9.07501 18.5863C8.79584 18.5592 8.51667 18.5175 8.23959 18.4633C7.96251 18.4071 7.68959 18.3383 7.42084 18.2571C7.15001 18.1758 6.88542 18.0821 6.62501 17.9738C6.36251 17.8654 6.10834 17.7467 5.86042 17.6133C5.61042 17.48 5.36876 17.3363 5.13542 17.18C4.90001 17.0238 4.67501 16.855 4.45626 16.6779C4.23751 16.4988 4.02917 16.3092 3.82917 16.1113C3.63126 15.9113 3.44167 15.705 3.26251 15.4863C3.08334 15.2696 2.91459 15.0425 2.75834 14.8092C2.60209 14.5758 2.45626 14.3342 2.32501 14.0863C2.19167 13.8383 2.07084 13.5842 1.96251 13.3238C1.85417 13.0633 1.76042 12.7988 1.67709 12.53C1.59584 12.2613 1.52709 11.9883 1.47292 11.7113C1.41667 11.4363 1.37709 11.1592 1.34792 10.8779C1.32084 10.5988 1.30626 10.3175 1.30626 10.0363C1.30626 5.29042 5.16251 1.44459 9.92084 1.44459C14.6583 1.44459 18.5021 5.26126 18.5333 9.98001C18.5625 14.7154 14.6667 18.6279 9.92084 18.6279Z" fill="#1BA553"/>
</g>
<path d="M8.38126 5.85958L8.38543 5.86791L8.89793 6.88458C9.01251 7.10958 9.04793 7.34708 9.0021 7.59708C8.95835 7.845 8.84168 8.05749 8.65626 8.22833C8.47293 8.40125 8.35626 8.60958 8.31251 8.8575C8.26668 9.10541 8.30001 9.34083 8.41043 9.56583C8.72085 10.1846 9.25418 11.0346 10.0688 11.6492C10.2563 11.7908 10.4667 11.8679 10.7021 11.8804C10.9354 11.8929 11.1542 11.8387 11.3542 11.7158L11.6854 11.5158C12.0021 11.3221 12.3354 11.2929 12.6833 11.4242L13.9979 11.9221C14.1396 11.9762 14.2646 12.0554 14.375 12.1596C14.4854 12.2617 14.5708 12.3825 14.6333 12.52C14.6958 12.6575 14.7292 12.8012 14.7333 12.9533C14.7375 13.1033 14.7125 13.2492 14.6583 13.3908C14.6438 13.4304 14.6271 13.47 14.6063 13.5075L14.2417 14.2117C14.1833 14.3283 14.1063 14.4283 14.0125 14.5179C13.9167 14.6075 13.8125 14.6762 13.6938 14.7304C13.575 14.7825 13.4521 14.8137 13.3229 14.8242C13.1938 14.8346 13.0667 14.8242 12.9417 14.7929C10.875 14.2596 5.95418 12.4075 5.55626 6.80541C5.54168 6.57833 5.5896 6.36374 5.70001 6.16583C5.81251 5.96791 5.97085 5.81583 6.17293 5.71166L6.84376 5.36791C6.97918 5.29916 7.12085 5.25749 7.27293 5.24499C7.42293 5.2325 7.57085 5.25125 7.7146 5.29708C7.85835 5.34291 7.98751 5.41374 8.10418 5.51166C8.21876 5.60958 8.31251 5.72624 8.38126 5.85958Z" fill="#1BA553"/>
</g>
<defs>
<clipPath id="clip0_557_82">
<rect width="20" height="20" fill="white" transform="translate(0 0.219727)"/>
</clipPath>
</defs>
</svg>
