<svg width="1920" height="702" viewBox="0 0 1920 702" fill="none" xmlns="http://www.w3.org/2000/svg">
<g opacity="0.3">
<path d="M719.952 701.183C712.662 701.183 705.567 700.611 698.748 699.469C684.447 697.073 671.234 692.154 659.477 684.848C646.84 676.998 635.757 666.301 626.532 653.056C607.992 626.434 598.717 594.552 589.746 563.718C587.983 557.663 586.161 551.403 584.311 545.329C571.688 503.928 555.687 467.663 535.396 434.461C494.918 368.23 437.993 311.707 370.771 271.002C293.031 223.93 209.447 200.482 135.415 204.977C91.9028 207.621 34.411 232.761 8.71648 275.696C-6.53212 301.177 -7.76171 329.454 5.16309 357.466L4.90644 357.584C-1.8704 342.893 -4.82311 328.165 -3.86707 313.81C-2.99 300.641 1.16128 287.768 8.47395 275.549C20.1043 256.114 39.2842 238.889 63.9409 225.734C86.7249 213.58 112.101 206.108 135.398 204.693C174.141 202.342 215.347 207.559 257.869 220.204C296.415 231.668 334.451 248.676 370.918 270.757C438.179 311.484 495.138 368.039 535.638 434.309C555.94 467.533 571.95 503.818 584.582 545.241C586.435 551.316 588.257 557.579 590.016 563.633C598.979 594.444 608.249 626.304 626.763 652.887C644.668 678.599 668.905 694.175 698.796 699.181C740.19 706.115 790.456 691.613 833.255 660.385C894.932 615.385 937.736 549.884 979.134 486.542C986.39 475.439 993.892 463.959 1001.32 452.873C1020.6 424.086 1046.72 386.783 1077.76 353.551C1109.49 319.583 1141.73 294.626 1176.32 277.251C1197.5 266.617 1219.94 259.451 1243.03 255.956C1264.35 252.726 1286.92 252.526 1310.11 255.356C1349.89 260.212 1392.75 273.931 1441.13 297.292C1536.39 343.296 1631.56 399.135 1723.97 463.26C1811.81 524.208 1897.96 593.176 1980.03 668.241L1979.84 668.449C1809.72 512.843 1628.43 388.054 1441.01 297.546C1335.11 246.412 1251.05 240.042 1176.45 277.502C1100.56 315.611 1047.54 384.384 1001.55 453.028C994.128 464.111 986.627 475.592 979.371 486.694C937.962 550.059 895.144 615.579 833.424 660.61C813.48 675.163 791.043 686.514 768.541 693.434C756.654 697.09 744.838 699.48 733.416 700.54C728.864 700.971 724.372 701.183 719.952 701.183Z" fill="#A1A1A1"/>
<path d="M727.08 685.396C708.489 685.396 691.269 681.859 675.88 674.877C658.719 667.092 643.91 655.028 631.862 639.023C630.796 637.606 629.739 636.14 628.718 634.663C610.376 608.156 600.688 576.688 591.323 546.255C589.428 540.104 587.47 533.742 585.485 527.569C573.66 490.814 559.421 458.419 541.95 428.538C539.798 424.859 537.57 421.172 535.323 417.581C494.25 351.92 436.862 296.113 369.365 256.191C291.063 209.923 207.242 187.444 133.343 192.898C90.1463 196.119 32.9196 221.671 7.1151 264.275C-8.33657 289.787 -10.0851 318.121 2.05292 346.215L1.79345 346.328C-4.56883 331.603 -7.18309 316.847 -5.97324 302.474C-4.8621 289.274 -0.541637 276.373 6.87257 264.129C18.6214 244.728 37.7449 227.483 62.1703 214.261C84.7457 202.039 110.011 194.352 133.317 192.616C172.013 189.761 213.263 194.479 255.921 206.639C294.56 217.654 332.776 234.245 369.506 255.949C437.043 295.893 494.461 351.734 535.56 417.432C537.807 421.026 540.038 424.715 542.19 428.397C559.672 458.297 573.919 490.709 585.75 527.485C587.738 533.658 589.695 540.02 591.591 546.173C600.953 576.587 610.632 608.032 628.949 634.502C629.967 635.974 631.025 637.439 632.088 638.854C656.984 671.937 691.193 685.396 727.167 685.396C727.364 685.396 727.559 685.396 727.756 685.396C727.531 685.394 727.305 685.396 727.08 685.396ZM734.753 685.199C768.197 683.483 802.708 670.638 832.314 651.53C896.176 610.143 942.075 546.221 986.464 484.404C988.291 481.856 990.119 479.314 991.946 476.771C995.959 471.19 1000.72 464.583 1005.57 457.922C1027.36 428.053 1053.72 393.298 1084.09 362.016C1116.4 328.731 1148.67 304.03 1182.76 286.501C1203.71 275.742 1225.84 268.162 1248.55 263.974C1269.59 260.093 1291.83 258.996 1314.64 260.713C1354.04 263.681 1396.4 274.933 1444.15 295.115C1490.71 314.761 1528.98 333.255 1564.59 353.315C1615.04 381.761 1663.09 414.537 1703.44 442.845C1797.26 508.848 1889.31 583.794 1977.04 665.604L1976.84 665.809C1889.13 584.011 1797.09 509.07 1703.28 443.076C1662.93 414.771 1614.89 382.001 1564.45 353.563C1528.85 333.508 1490.59 315.02 1444.05 295.38C1340.02 251.414 1257.04 248.671 1182.89 286.755C1105.93 326.323 1051.13 395.942 1005.8 458.092C1000.94 464.752 996.188 471.356 992.175 476.94C990.347 479.48 988.52 482.025 986.692 484.573C942.289 546.41 896.374 610.354 832.466 651.772C816.62 661.999 799.758 670.122 782.346 675.914C766.139 681.301 750.163 684.416 734.753 685.199Z" fill="#A1A1A1"/>
<path d="M734.938 669.969C732.701 669.969 730.479 669.921 728.274 669.823C709.7 669.002 692.511 664.743 677.187 657.158C660.426 648.863 645.905 636.576 634.03 620.637C632.975 619.216 631.923 617.747 630.908 616.27C612.771 589.893 602.681 558.845 592.926 528.823C590.892 522.566 588.789 516.094 586.657 509.814C574.248 473.182 559.634 441.046 541.974 411.569C539.788 407.924 537.526 404.268 535.245 400.705C493.577 335.616 435.727 280.525 367.953 241.387C289.093 195.922 205.035 174.41 131.266 180.822C89.7302 184.489 32.6699 208.583 5.54 252.814C-10.1345 278.369 -12.416 306.778 -1.05918 334.971L-1.32144 335.075C-7.27198 320.305 -9.54223 305.515 -8.07574 291.117C-6.72771 277.875 -2.22672 264.94 5.30029 252.668C17.1732 233.312 36.2346 216.061 60.4259 202.777C82.7898 190.496 107.94 182.601 131.24 180.543C169.89 177.186 211.186 181.403 253.976 193.078C292.711 203.648 331.105 219.819 368.094 241.145C435.908 280.308 493.789 335.43 535.482 400.556C537.763 404.122 540.028 407.777 542.214 411.428C559.882 440.922 574.504 473.078 586.919 509.73C589.051 516.012 591.155 522.484 593.188 528.742C602.94 558.747 613.022 589.772 631.136 616.118C632.151 617.595 633.198 619.061 634.252 620.476C682.508 685.244 768.027 678.29 831.37 642.67C897.898 604.931 947.338 542.206 995.151 481.548L995.642 480.925C1000.27 475.046 1005.06 468.968 1009.83 462.967C1060.12 399.66 1115.4 334.599 1189.2 295.743C1209.92 284.857 1231.75 276.863 1254.08 271.984C1274.85 267.446 1296.75 265.453 1319.17 266.062C1358.25 267.122 1400.13 275.911 1447.18 292.93C1496.64 310.752 1533.85 327.135 1567.85 346.051C1616.29 373.057 1663.22 407.183 1704.62 437.292C1796.8 504.69 1887.44 580.614 1974.05 662.951L1973.85 663.154C1887.26 580.825 1796.62 504.91 1704.45 437.517C1663.06 407.414 1616.14 373.294 1567.71 346.296C1533.73 327.386 1496.52 311.009 1447.09 293.192C1345.08 256.301 1263.18 257.189 1189.33 295.988C1115.57 334.818 1060.32 399.851 1010.05 463.137C1005.28 469.138 1000.49 475.217 995.862 481.094L995.371 481.717C971.544 511.945 946.907 543.201 920.301 571.121C890.402 602.495 861.357 625.978 831.506 642.91C800.275 660.47 766.256 669.969 734.938 669.969Z" fill="#A1A1A1"/>
<path d="M1970.87 660.496C1885.4 577.638 1796.16 500.747 1705.63 431.959C1701.8 429.067 1697.96 426.161 1694.1 423.247C1654.89 393.588 1614.34 362.921 1570.99 339.03C1528.92 315.917 1486.3 301.784 1450.14 291.008C1350.34 261.079 1269.52 265.597 1195.78 305.222C1120.09 346.02 1061.43 413.756 1014.3 468.185C1011.48 471.452 1008.65 474.725 1005.82 478C1003.74 480.418 1001.65 482.837 999.558 485.252C972.725 516.275 948.316 544.011 921.347 569.32C890.537 598.231 860.84 619.405 830.555 634.054C802.172 647.784 771.853 655.047 743.651 655.05C738.513 655.05 733.451 654.811 728.476 654.323C710.314 652.544 693.5 647.547 678.503 639.469C662.137 630.655 647.904 618.134 636.192 602.253C635.146 600.83 634.102 599.359 633.093 597.879C615.17 571.64 604.688 541.029 594.552 511.427C592.369 505.051 590.11 498.455 587.826 492.054C574.825 455.538 559.833 423.658 541.999 394.592C539.779 390.976 537.481 387.354 535.168 383.822C492.902 319.305 434.593 264.929 366.545 226.573C287.127 181.91 202.835 161.371 129.195 168.733C78.8521 173.866 27.3729 203.704 4.00504 241.292C-11.9148 266.9 -14.7378 295.399 -4.16499 323.71L-4.43006 323.809C-9.96604 308.985 -11.8951 294.151 -10.1635 279.716C-8.57008 266.426 -3.88297 253.449 3.7653 241.142C15.7623 221.843 34.7617 204.592 58.7105 191.26C80.86 178.928 105.881 170.827 129.167 168.454C167.772 164.592 209.11 168.31 252.033 179.5C290.86 189.625 329.437 205.379 366.686 226.324C434.776 264.704 493.117 319.11 535.408 383.667C537.723 387.201 540.022 390.826 542.241 394.442C560.087 423.526 575.085 455.422 588.094 491.955C590.378 498.359 592.637 504.952 594.82 511.331C604.95 540.916 615.427 571.507 633.327 597.715C634.336 599.192 635.377 600.661 636.42 602.081C686.797 670.39 772.42 661.857 830.433 633.797C899.648 600.317 952.614 539.089 999.347 485.066C1001.44 482.648 1003.52 480.229 1005.61 477.814C1008.44 474.538 1011.26 471.266 1014.09 467.999C1040.99 436.931 1067.56 406.74 1096.77 378.92C1130.35 346.925 1162.7 322.738 1195.65 304.974C1216.16 293.956 1237.68 285.548 1259.62 279.987C1280.13 274.786 1301.69 271.9 1323.71 271.404C1362.54 270.53 1403.93 276.855 1450.23 290.737C1486.39 301.519 1529.04 315.657 1571.13 338.785C1614.5 362.684 1655.06 393.36 1694.28 423.024C1698.13 425.939 1701.97 428.845 1705.81 431.737C1796.34 500.53 1885.59 577.429 1971.07 660.296L1970.87 660.496Z" fill="#A1A1A1"/>
<path d="M1967.88 657.841C1881.92 572.869 1794.09 495 1706.81 426.401C1701.59 422.297 1696.24 418.066 1691.08 413.977C1654.07 384.685 1615.81 354.395 1574.26 331.764C1532.76 309.245 1489.77 297.418 1453.19 288.821C1355.82 265.716 1276.07 273.862 1202.23 314.457C1131.79 353.318 1076.61 411.755 1023.24 468.267L1017.38 474.471C1012.76 479.373 1007.97 484.438 1003.25 489.408C949.832 545.595 896.357 598.257 829.601 625.192C813.402 631.729 796.768 636.259 780.157 638.663C762.32 641.242 744.993 641.279 728.656 638.77C710.911 636.044 694.478 630.32 679.813 621.754C663.854 612.432 649.906 599.683 638.36 583.865C637.319 582.433 636.284 580.959 635.283 579.482C617.581 553.398 606.72 523.238 596.218 494.07C593.875 487.561 591.449 480.83 589.001 474.294C575.397 437.89 560.033 406.267 542.029 377.618C539.778 374.039 537.446 370.445 535.097 366.941C492.236 302.996 433.467 249.337 365.14 211.761C285.16 167.908 200.632 148.335 127.118 156.653C77.2354 162.417 25.9903 192.464 2.50399 229.724C-13.6809 255.397 -17.0623 284.007 -7.27631 312.461L-7.54424 312.554C-12.6657 297.666 -14.2477 282.775 -12.2482 268.298C-10.4039 254.952 -5.52218 241.924 2.26146 229.578C14.3881 210.343 33.3199 193.109 57.0149 179.738C78.9444 167.361 103.83 159.065 127.085 156.376C165.645 152.013 207.025 155.229 250.083 165.934C289.007 175.614 327.762 190.948 365.272 211.516C433.639 249.111 492.442 302.805 535.328 366.786C537.677 370.292 540.012 373.889 542.263 377.469C560.278 406.132 575.651 437.772 589.261 474.195C591.709 480.732 594.134 487.466 596.478 493.974C606.974 523.125 617.829 553.271 635.511 579.324C636.51 580.795 637.545 582.267 638.583 583.698C687.746 651.057 769.435 649.165 829.491 624.933C896.193 598.02 949.646 545.378 1003.04 489.216C1007.76 484.247 1012.55 479.181 1017.18 474.28L1023.04 468.076C1049.23 440.337 1076.32 411.651 1105.73 384.967C1139.05 354.745 1170.57 331.6 1202.09 314.209C1222.38 303.053 1243.6 294.23 1265.14 287.99C1285.4 282.121 1306.63 278.338 1328.24 276.746C1366.9 273.896 1407.79 277.758 1453.25 288.545C1489.85 297.147 1532.86 308.977 1574.39 331.516C1615.97 354.155 1654.24 384.454 1691.25 413.754C1696.42 417.844 1701.76 422.072 1706.98 426.179C1794.27 494.783 1882.11 572.658 1968.07 657.638L1967.88 657.841Z" fill="#A1A1A1"/>
<path d="M1964.89 655.185C1879.67 569.269 1793.24 490.424 1707.98 420.845C1701.58 415.616 1695.01 410.179 1688.66 404.922C1653.65 375.946 1617.45 345.983 1577.52 324.502C1536.22 302.37 1493.03 292.941 1456.24 286.638C1361.57 270.174 1282.9 281.951 1208.67 323.696C1143.89 360.28 1090.71 412.126 1039.27 462.265C1033.86 467.542 1028.26 472.996 1022.81 478.281C1016.4 484.488 1011.51 489.204 1006.94 493.567C982.49 516.923 953.375 543.816 922.821 566.185C890.443 589.887 859.638 606.292 828.645 616.338C812.347 621.62 795.784 624.952 779.413 626.237C761.835 627.618 744.815 626.604 728.831 623.218C711.512 619.551 695.463 613.099 681.122 604.043C665.572 594.222 651.914 581.245 640.526 565.477C639.499 564.048 638.47 562.571 637.472 561.089C620.004 535.179 608.779 505.484 597.922 476.768C595.403 470.107 592.8 463.221 590.175 456.532C575.958 420.23 560.219 388.867 542.054 360.643C539.77 357.094 537.404 353.534 535.021 350.059C491.565 286.686 432.333 233.743 363.73 196.948C283.195 153.901 198.429 135.3 125.046 144.568C83.2904 149.957 28.7542 174.784 1.04325 218.096C-15.4321 243.848 -19.386 272.587 -10.3869 301.205L-10.6548 301.29C-15.3616 286.326 -16.5912 271.37 -14.3125 256.836C-12.2087 243.422 -7.12396 230.338 0.806335 217.944C13.0628 198.788 31.924 181.583 55.3567 168.183C77.0663 155.769 101.802 147.285 125.012 144.289C163.527 139.424 204.952 142.138 248.14 152.359C287.157 161.593 326.092 176.509 363.863 196.7C432.505 233.515 491.771 286.489 535.252 349.898C537.635 353.374 540.004 356.939 542.288 360.491C560.462 388.729 576.209 420.109 590.434 456.428C593.063 463.119 595.666 470.006 598.184 476.666C609.033 505.369 620.255 535.047 637.703 560.928C638.701 562.408 639.728 563.882 640.754 565.308C681.655 621.947 751.863 640.923 828.557 616.064C898.012 593.554 954.669 543.103 1006.75 493.358C1011.32 488.995 1016.21 484.279 1022.61 478.073C1028.06 472.788 1033.66 467.333 1039.07 462.057C1064.4 437.374 1090.58 411.85 1118.51 387.951C1150.09 360.922 1179.54 339.821 1208.54 323.445C1228.64 312.142 1249.54 302.905 1270.68 295.994C1290.7 289.446 1311.59 284.77 1332.77 282.089C1371.34 277.213 1411.74 278.608 1456.29 286.354C1493.1 292.662 1536.32 302.093 1577.65 324.245C1617.61 345.741 1653.82 375.712 1688.84 404.696C1695.19 409.953 1701.76 415.391 1708.16 420.619C1793.42 490.207 1879.86 569.057 1965.09 654.979L1964.89 655.185Z" fill="#A1A1A1"/>
<path d="M1961.89 652.531C1877.42 565.664 1792.39 485.842 1709.16 415.287C1702.08 409.286 1694.81 402.986 1687.77 396.895C1654.27 367.879 1619.63 337.877 1580.79 317.236C1539.45 295.369 1496.17 288.392 1459.29 284.452C1368.91 274.538 1289.04 290.396 1215.12 332.93C1156.26 366.952 1105.8 412.465 1057.01 456.482C1047.15 465.372 1036.96 474.567 1027.05 483.33C1020.99 488.694 1015.62 493.404 1010.63 497.728C987.419 517.814 956.541 543.568 923.545 564.616C890.392 585.761 859.034 599.784 827.683 607.482C793.488 615.879 759.361 615.941 728.994 607.665C712.11 603.062 696.441 595.886 682.422 586.334C667.286 576.02 653.918 562.817 642.686 547.097C641.668 545.666 640.647 544.186 639.654 542.703C622.434 516.991 610.86 487.784 599.67 459.54C596.962 452.708 594.165 445.644 591.342 438.781C576.502 402.575 560.388 371.465 542.077 343.678C539.758 340.16 537.358 336.631 534.941 333.187C490.891 270.386 431.199 218.156 362.32 182.147C281.229 139.909 196.226 122.278 122.97 132.496C73.3236 139.571 23.7537 169.28 -0.375633 206.419C-17.1669 232.264 -21.7045 261.152 -13.4978 289.962L-13.7686 290.038C-18.058 274.984 -18.9323 259.949 -16.3688 245.354C-13.9998 231.863 -8.69792 218.711 -0.612516 206.264C11.7736 187.198 30.5615 170.033 53.7207 156.621C75.2018 144.182 99.7823 135.512 122.93 132.214C161.4 126.847 202.87 129.063 246.191 138.796C285.304 147.584 324.419 162.084 362.449 181.894C431.368 217.925 491.094 270.184 535.173 333.023C537.59 336.468 539.99 340 542.311 343.52C560.63 371.324 576.753 402.448 591.601 438.671C594.424 445.534 597.222 452.601 599.929 459.433C611.114 487.662 622.682 516.856 639.885 542.542C640.878 544.025 641.896 545.499 642.914 546.931C683.113 603.203 752.159 625.736 827.615 607.209C896.404 590.316 956.141 544.504 1010.45 497.517C1015.43 493.193 1020.81 488.486 1026.86 483.122C1036.77 474.358 1046.96 465.166 1056.82 456.276C1105.62 412.251 1156.08 366.727 1214.97 332.691C1234.89 321.227 1255.5 311.579 1276.2 304.008C1296.01 296.769 1316.57 291.197 1337.3 287.445C1375.86 280.469 1415.77 279.401 1459.31 284.175C1496.22 288.119 1539.54 295.098 1580.92 316.991C1619.79 337.646 1654.44 367.66 1687.96 396.686C1694.99 402.778 1702.26 409.075 1709.34 415.076C1792.58 485.636 1877.62 565.464 1962.1 652.336L1961.89 652.531Z" fill="#A1A1A1"/>
<path d="M1958.91 649.875C1875.18 562.05 1791.55 481.255 1710.33 409.731C1702.87 403.158 1695.19 396.198 1687.77 389.467C1655.49 360.206 1622.11 329.948 1584.05 309.972C1542.55 288.29 1499.23 283.8 1462.33 282.267C1375.37 278.388 1296.61 297.981 1221.56 342.167C1168.93 373.302 1122.01 412.707 1076.63 450.813C1061.03 463.917 1046.29 476.294 1031.3 488.378C1025.21 493.297 1019.65 497.716 1014.32 501.885C979.932 528.761 951.318 548.193 924.273 563.037C890.344 581.66 858.436 593.301 826.727 598.623C814.425 600.686 802.169 601.715 790.135 601.715C768.803 601.715 748.162 598.49 729.16 592.103C694.771 580.544 666.406 559.215 644.852 528.708C643.836 527.262 642.824 525.782 641.842 524.305C624.885 498.816 612.987 470.127 601.48 442.38C598.564 435.35 595.552 428.083 592.515 421.017C577.041 384.895 560.548 354.045 542.105 326.701C539.753 323.214 537.319 319.716 534.868 316.303C490.222 254.074 430.068 202.56 360.912 167.332C279.266 125.906 194.029 109.241 120.9 120.409C71.0476 128.18 22.9074 157.326 -1.73796 194.662C-18.8704 220.614 -24.0088 249.674 -16.603 278.704L-16.8766 278.774C-20.743 263.616 -21.2563 248.49 -18.3995 233.819C-15.7541 220.239 -10.2295 207.013 -1.97202 194.507C10.5438 175.546 29.25 158.436 52.1271 145.025C73.377 132.566 97.7855 123.727 120.857 120.13C159.282 114.262 200.798 115.975 244.248 125.223C283.456 133.57 322.75 147.652 361.042 167.078C430.237 202.329 490.425 253.871 535.099 316.136C537.55 319.552 539.984 323.05 542.339 326.54C560.794 353.898 577.295 384.766 592.774 420.901C595.812 427.968 598.826 435.237 601.74 442.267C613.24 470 625.133 498.678 642.076 524.144C643.058 525.619 644.068 527.098 645.083 528.542C685.332 585.513 751.521 610.954 826.679 598.341C898.223 586.333 961.592 542.731 1014.15 501.66C1019.48 497.491 1025.03 493.074 1031.13 488.155C1046.11 476.072 1060.85 463.698 1076.45 450.593C1121.83 412.479 1168.76 373.068 1221.42 341.922C1241.19 330.28 1261.48 320.218 1281.74 312.01C1301.35 304.061 1321.57 297.592 1341.83 292.786C1380.47 283.623 1419.89 280.088 1462.34 281.982C1499.27 283.515 1542.63 288.011 1584.18 309.718C1622.27 329.708 1655.66 359.981 1687.96 389.253C1695.38 395.984 1703.06 402.943 1710.52 409.514C1791.74 481.044 1875.38 561.847 1959.11 649.678L1958.91 649.875Z" fill="#A1A1A1"/>
<path d="M1955.92 647.22C1871.78 557.18 1791.83 477.679 1711.51 404.173C1703.85 397.16 1696.3 389.998 1688.31 382.416C1657.08 352.774 1624.79 322.127 1587.32 302.709C1545.29 281.036 1500.08 279.232 1465.38 280.083C1382.38 281.853 1304.73 305.183 1228 351.407C1181.97 379.276 1139.47 412.742 1098.37 445.109C1076.76 462.12 1056.36 478.183 1035.55 493.43C1029.38 497.959 1023.64 502.086 1018.01 506.046C983.153 530.557 953.598 548.163 924.996 561.456C890.279 577.59 857.822 586.85 825.768 589.764C809.299 591.261 792.942 590.979 777.152 588.927C760.434 586.754 744.342 582.585 729.324 576.539C696.038 563.136 668.347 540.86 647.018 510.325C646.011 508.876 645.007 507.394 644.032 505.917C627.359 480.689 615.162 452.547 603.365 425.333C600.218 418.072 596.963 410.563 593.689 403.263C577.566 367.22 560.701 336.626 542.131 309.733C539.742 306.277 537.274 302.81 534.795 299.428C489.554 237.772 428.941 186.973 359.508 152.526C295.423 120.864 229.335 104.343 168.733 104.343C151.601 104.343 134.919 105.662 118.83 108.332C69.579 116.664 21.7406 145.913 -3.04858 182.849C-20.5449 208.922 -26.3065 238.18 -19.7101 267.458L-19.9865 267.52C-23.4299 252.243 -23.5737 237.013 -20.4151 222.258C-17.4878 208.578 -11.7234 195.266 -3.2855 182.692C9.3601 163.849 27.9788 146.81 50.5627 133.412C71.8803 120.765 95.4709 111.996 118.78 108.055C157.159 101.685 198.72 102.9 242.303 111.661C281.604 119.559 321.081 133.221 359.633 152.269C429.104 186.736 489.755 237.563 535.024 299.256C537.506 302.638 539.976 306.108 542.365 309.566C560.944 336.474 577.817 367.082 593.948 403.141C597.223 410.442 600.48 417.951 603.627 425.215C615.418 452.418 627.61 480.548 644.268 505.756C645.244 507.23 646.248 508.713 647.252 510.159C687.138 567.257 752.193 596.165 825.746 589.479C900.173 582.712 967.507 541.209 1017.86 505.809C1023.48 501.849 1029.21 497.723 1035.39 493.196C1056.2 477.955 1076.6 461.889 1098.2 444.881C1139.31 412.511 1181.81 379.036 1227.86 351.159C1267.37 327.361 1306.13 310.018 1346.37 298.134C1385.18 286.673 1424.11 280.675 1465.38 279.795C1488.92 279.218 1508.13 280.221 1525.83 282.95C1548.68 286.473 1568.84 292.852 1587.45 302.452C1624.96 321.887 1657.27 352.552 1688.51 382.207C1696.5 389.789 1704.05 396.949 1711.7 403.962C1792.03 477.47 1871.98 556.977 1956.13 647.023L1955.92 647.22Z" fill="#A1A1A1"/>
<path d="M1952.92 644.564C1869.55 553.538 1790.97 473.089 1712.68 398.614C1704.94 391.246 1697.3 383.655 1689.22 375.619C1658.92 345.51 1627.6 314.372 1590.58 295.441C1548.21 273.87 1503.04 274.732 1468.43 277.892C1390.1 284.795 1313.56 311.863 1234.45 360.638C1195.47 384.785 1158.36 412.42 1122.46 439.147C1094.09 460.273 1067.29 480.229 1039.8 498.469C1033.59 502.595 1027.5 506.542 1021.7 510.195C986.774 532.192 955.377 548.436 925.717 559.857C890.203 573.533 857.196 580.417 824.809 580.896C808.331 581.138 792.039 579.65 776.396 576.468C759.996 573.13 744.215 567.913 729.488 560.956C697.344 545.772 670.324 522.549 649.181 491.929C648.188 490.483 647.19 488.998 646.217 487.512C629.857 462.592 617.395 435.045 605.342 408.406C601.932 400.869 598.404 393.072 594.859 385.493C578.076 349.518 560.837 319.183 542.156 292.749C539.733 289.325 537.232 285.889 534.719 282.537C488.883 221.453 427.807 171.371 358.098 137.704C275.343 97.9044 189.63 83.1796 116.755 96.2414C68.1407 105.106 20.621 134.432 -4.30642 170.948C-22.1975 197.159 -28.5993 226.637 -22.8236 256.199L-23.1 256.253C-26.1119 240.843 -25.8806 225.495 -22.409 210.638C-19.1856 196.846 -13.1758 183.438 -4.54048 170.787C8.2292 152.08 26.7548 135.125 49.0341 121.756C70.1063 109.112 93.5052 100.193 116.704 95.9624C155.041 89.0932 196.644 89.8035 240.357 98.0792C279.754 105.537 319.408 118.782 358.22 137.448C427.971 171.131 489.081 221.245 534.942 282.365C537.458 285.717 539.962 289.155 542.384 292.583C561.076 319.031 578.322 349.38 595.113 385.369C598.661 392.948 602.186 400.745 605.598 408.285C617.646 434.913 630.103 462.449 646.451 487.352C647.424 488.834 648.422 490.32 649.412 491.763C689.718 550.133 752.007 581.691 824.804 580.608C883.872 579.734 946.389 557.281 1021.55 509.949C1027.34 506.296 1033.43 502.353 1039.64 498.226C1067.13 479.989 1093.92 460.039 1122.29 438.913C1158.19 412.183 1195.31 384.543 1234.3 360.389C1274.19 335.796 1312.33 317.182 1350.9 303.474C1389.97 289.59 1428.41 281.125 1468.4 277.602C1503.05 274.436 1548.28 273.577 1590.71 295.182C1627.77 314.135 1659.11 345.287 1689.42 375.41C1697.5 383.446 1705.14 391.034 1712.88 398.4C1791.17 472.878 1869.76 553.332 1953.13 644.364L1952.92 644.564Z" fill="#A1A1A1"/>
<path d="M1949.93 641.909C1867.34 549.893 1790.12 468.492 1713.86 393.058C1706.12 385.4 1698.48 377.442 1690.38 369.017C1660.95 338.37 1630.51 306.679 1593.86 288.177C1551.08 266.685 1505.99 270.222 1471.48 275.705C1397.78 287.191 1324.51 317.114 1240.9 369.874C1209.54 389.752 1178.89 411.557 1149.25 432.644C1113.26 458.254 1079.26 482.447 1044.05 503.517C1037.71 507.316 1031.43 510.964 1025.39 514.352C989.839 534.291 957.472 548.655 926.442 558.261C909.061 563.642 891.904 567.541 875.445 569.849C857.89 572.31 840.531 573.045 823.853 572.036C790.014 569.987 758.321 561.018 729.657 545.38C698.7 528.49 672.354 504.323 651.352 473.543C650.365 472.086 649.375 470.597 648.408 469.12C632.398 444.567 619.713 417.674 607.448 391.668C603.734 383.796 599.896 375.655 596.035 367.735C578.575 331.819 560.961 301.741 542.184 275.778C539.727 272.381 537.189 268.976 534.646 265.659C488.214 205.144 426.679 155.778 356.693 122.898C273.386 83.9123 187.439 70.1571 114.684 84.1632C36.7829 99.3926 -39.1273 165.195 -25.929 244.95L-26.2082 244.995C-29.5106 225.044 -27.576 205.389 -20.4607 186.572C-13.963 169.386 -3.30001 153.213 11.2323 138.505C24.7437 124.828 40.9539 113.021 59.4091 103.409C76.9617 94.2682 96.057 87.5146 114.628 83.8841C152.92 76.5132 194.568 76.7246 238.413 84.5155C277.907 91.5312 317.741 104.359 356.812 122.644C426.836 155.547 488.409 204.941 534.868 265.49C537.415 268.81 539.953 272.215 542.412 275.614C561.197 301.589 578.821 331.684 596.289 367.614C600.149 375.534 603.988 383.674 607.702 391.55C619.964 417.547 632.643 444.429 648.645 468.968C649.609 470.445 650.596 471.933 651.583 473.388C691.948 532.541 753.135 567.473 823.87 571.757C883.753 575.379 949.627 556.525 1025.25 514.109C1031.29 510.721 1037.56 507.077 1043.91 503.277C1079.1 482.213 1113.1 458.023 1149.09 432.415C1178.73 411.326 1209.38 389.518 1240.74 369.637C1324.39 316.855 1397.7 286.92 1471.44 275.425C1494.62 271.741 1513.82 270.563 1531.85 271.722C1554.91 273.202 1575.23 278.501 1593.98 287.924C1630.67 306.445 1661.13 338.155 1690.58 368.82C1698.68 377.242 1706.32 385.199 1714.06 392.855C1790.32 468.294 1867.55 549.698 1950.14 641.72L1949.93 641.909Z" fill="#A1A1A1"/>
<path d="M1946.95 639.254C1865.14 546.234 1789.28 463.886 1715.04 387.5C1707.36 379.596 1699.76 371.317 1691.73 362.548C1663.09 331.315 1633.47 299.015 1597.12 280.911C1553.42 259.238 1506.23 266.31 1474.53 273.514C1388.5 292.828 1311.41 337.73 1247.34 379.111C1224.32 394.045 1201.35 409.863 1179.13 425.16C1134.57 455.847 1092.49 484.832 1048.3 508.565C1041.81 512.058 1035.34 515.403 1029.09 518.512C992.84 536.493 959.503 548.974 927.173 556.663C890.522 565.382 855.442 567.574 822.9 563.177C789.47 558.659 758.155 547.429 729.829 529.798C700.119 511.308 674.447 486.196 653.521 455.159C652.546 453.702 651.561 452.211 650.6 450.728C634.987 426.626 622.144 400.471 609.722 375.176C605.652 366.886 601.442 358.318 597.211 349.977C578.81 313.61 561.333 284.643 542.215 258.807C539.725 255.441 537.156 252.07 534.576 248.78C487.544 188.841 425.545 140.19 355.284 108.088C271.424 69.9204 185.239 57.132 112.609 72.0823C34.4286 88.3884 -39.9306 153.297 -29.0392 233.7L-29.3184 233.737C-32.0201 213.789 -29.6822 194.154 -22.3723 175.379C-15.6716 158.176 -4.94655 141.986 9.5096 127.261C22.99 113.528 39.1156 101.633 57.4411 91.9005C74.8894 82.6327 93.948 75.6846 112.553 71.8032C150.802 63.9306 192.493 63.6431 236.468 70.9464C276.057 77.5196 316.072 89.9303 355.402 107.832C425.706 139.951 487.738 188.63 534.793 248.606C537.373 251.898 539.945 255.272 542.438 258.637C561.567 284.485 579.049 313.469 597.46 349.85C601.69 358.191 605.9 366.762 609.97 375.052C622.39 400.339 635.23 426.485 650.831 450.576C651.793 452.059 652.774 453.547 653.75 455.004C694.428 515.336 754.511 553.653 822.934 562.898C884.301 571.191 951.691 556.587 1028.96 518.259C1035.21 515.152 1041.68 511.809 1048.17 508.317C1092.34 484.589 1134.42 455.61 1178.97 424.926C1201.19 409.629 1224.16 393.808 1247.19 378.872C1290.27 351.048 1326.11 330.491 1359.97 314.18C1399.83 294.979 1437.28 281.587 1474.46 273.238C1497.13 268.086 1516.89 265.752 1534.87 266.107C1558.02 266.564 1578.42 271.322 1597.25 280.657C1633.65 298.784 1663.28 331.103 1691.93 362.357C1699.97 371.123 1707.56 379.401 1715.24 387.299C1789.49 463.689 1865.34 546.043 1947.16 639.065L1946.95 639.254Z" fill="#A1A1A1"/>
<path d="M1943.96 636.596C1862.94 542.57 1788.44 459.272 1716.21 381.938C1708.64 373.829 1701.14 365.263 1693.21 356.192C1665.32 324.33 1636.49 291.382 1600.39 273.644C1556.21 252.022 1509.14 261.963 1477.58 271.324C1399.64 294.243 1330.11 337.882 1253.79 388.345C1240.02 397.48 1226.1 406.909 1212.64 416.03C1160.85 451.106 1107.3 487.374 1052.55 513.611C1045.9 516.801 1039.25 519.848 1032.78 522.667C996.284 538.542 960.998 549.439 927.898 555.057C890.401 561.421 854.754 561.17 821.939 554.315C788.977 547.429 758.042 533.936 729.993 514.211C701.608 494.249 676.604 468.196 655.679 436.776C654.712 435.316 653.736 433.822 652.78 432.339C637.638 408.8 624.714 383.497 612.215 359.028C607.711 350.211 603.055 341.095 598.376 332.225C579.255 295.895 561.415 267.175 542.232 241.841C539.714 238.515 537.108 235.172 534.491 231.908C486.872 172.532 424.417 124.597 353.874 93.2789C269.464 55.9284 183.045 44.1096 110.533 60.0014C34.8347 76.7726 -40.8979 139.404 -32.1526 222.448L-32.4318 222.476C-34.5328 202.529 -31.7916 182.916 -24.2872 164.183C-17.3862 146.961 -6.59633 130.756 7.78085 116.014C34.3073 88.8197 71.7365 68.3024 110.471 59.7223C148.676 51.3508 190.412 50.5616 234.519 57.3772C274.204 63.5106 314.397 75.5014 353.987 93.0195C424.57 124.355 487.061 172.321 534.711 231.725C537.331 234.991 539.937 238.334 542.458 241.663C561.649 267.012 579.498 295.743 598.624 332.087C603.303 340.96 607.962 350.076 612.466 358.893C624.962 383.356 637.884 408.654 653.017 432.181C653.97 433.664 654.946 435.155 655.913 436.615C697.778 499.478 755.208 540.081 821.992 554.036C883.833 566.957 954.709 556.317 1032.66 522.408C1039.13 519.589 1045.78 516.545 1052.42 513.357C1107.15 487.129 1160.69 450.866 1212.47 415.796C1225.94 406.675 1239.86 397.247 1253.63 388.111C1287.04 366.021 1325.91 340.684 1364.5 319.53C1404.85 297.403 1441.82 281.548 1477.49 271.057C1499.95 264.396 1519.71 260.94 1537.88 260.495C1560.8 259.931 1581.87 264.272 1600.51 273.393C1616.68 281.339 1632.96 293.197 1650.27 309.647C1665.56 324.172 1679.72 340.357 1693.41 356.006C1701.35 365.074 1708.84 373.64 1716.41 381.747C1788.65 459.083 1863.14 542.384 1944.17 636.412L1943.96 636.596Z" fill="#A1A1A1"/>
<path d="M1940.96 633.941C1860.74 538.9 1787.61 454.652 1717.39 376.383C1709.95 368.096 1702.59 359.271 1694.79 349.929C1667.63 317.405 1639.55 283.772 1603.66 266.383C1570.11 250.184 1529.87 251.086 1480.63 269.14C1411.78 294.241 1350.24 336.225 1285.08 380.678C1276.97 386.214 1268.58 391.936 1260.23 397.588C1256.97 399.806 1253.69 402.03 1250.43 404.251C1188.34 446.444 1124.15 490.075 1056.8 518.662C1050 521.554 1043.16 524.302 1036.47 526.828C999.175 540.901 962.894 549.859 928.634 553.45C890.272 557.47 854.052 554.781 820.989 545.456C788.54 536.304 757.986 520.548 730.177 498.624C703.222 477.374 678.889 450.382 657.854 418.393C656.895 416.93 655.928 415.433 654.977 413.948C640.411 391.147 627.529 366.864 615.066 343.382C610.021 333.871 604.801 324.037 599.558 314.465C579.699 278.16 561.497 249.688 542.269 224.867C539.714 221.569 537.078 218.26 534.427 215.027C486.205 156.226 423.287 109.005 352.467 78.4697C267.51 41.9395 180.852 31.0875 108.461 47.9207C34.1526 65.343 -41.4728 128.487 -35.26 211.199L-35.542 211.222C-37.0395 191.271 -33.8979 171.681 -26.1988 152.996C-19.0948 135.754 -8.24286 119.53 6.05817 104.777C32.4718 77.5254 69.7713 56.7038 108.396 47.6473C146.559 38.7741 188.336 37.4831 232.573 43.8139C272.355 49.502 312.731 61.0755 352.58 78.2104C423.439 108.765 486.396 156.012 534.638 214.844C537.289 218.077 539.932 221.391 542.487 224.689C561.723 249.525 579.935 278.005 599.801 314.324C605.046 323.896 610.264 333.733 615.312 343.243C627.768 366.72 640.651 390.998 655.211 413.79C656.162 415.275 657.126 416.769 658.085 418.232C700.858 483.276 757.214 527.172 821.062 545.177C884.09 562.952 956.529 556.686 1036.37 526.557C1043.05 524.031 1049.89 521.286 1056.69 518.397C1124.01 489.821 1188.2 446.199 1250.27 404.012C1253.54 401.788 1256.81 399.567 1260.07 397.348C1268.42 391.697 1276.81 385.975 1284.92 380.442C1350.09 335.98 1411.65 293.984 1480.53 268.872C1502.77 260.715 1522.52 256.14 1540.9 254.88C1563.91 253.305 1585.06 257.09 1603.78 266.127C1619.86 273.915 1635.93 285.827 1652.92 302.544C1667.91 317.295 1681.68 333.792 1695 349.746C1702.8 359.085 1710.17 367.907 1717.6 376.191C1787.82 454.463 1860.96 538.714 1941.18 633.758L1940.96 633.941Z" fill="#A1A1A1"/>
<path d="M1937.98 631.285C1864.76 542.722 1790.94 455.089 1718.56 370.824C1711.2 362.295 1703.89 353.131 1696.16 343.432C1671.02 311.879 1642.52 276.119 1606.92 259.119C1572.98 242.948 1532.67 245.511 1483.67 266.95C1425.41 292.357 1373.86 329.716 1319.27 369.268C1302.18 381.653 1284.51 394.464 1266.68 406.821C1235.56 428.438 1201.89 451.312 1166.6 472.145C1128.81 494.457 1094.28 511.322 1061.05 523.707C1054.06 526.309 1047.04 528.758 1040.15 530.982C1002.07 543.28 964.8 550.279 929.382 551.784C890.173 553.447 853.381 548.339 820.025 536.591C758.427 514.628 704.59 468.675 660.012 400.006C659.061 398.54 658.102 397.041 657.158 395.555C643.33 373.761 630.673 350.769 618.434 328.532C612.672 318.066 606.716 307.243 600.723 296.709C580.108 260.413 561.54 232.192 542.29 207.898C539.698 204.628 537.027 201.35 534.345 198.151C485.537 139.917 422.156 93.4139 351.06 63.6598C265.553 27.947 178.661 18.0675 106.389 35.8394C31.629 54.3272 -42.1012 116.634 -38.3702 199.949L-38.6522 199.96C-39.5462 180.004 -35.9984 160.437 -28.1104 141.8C-20.8006 124.535 -9.88656 108.294 4.33268 93.5295C17.7284 79.6193 33.606 67.4566 51.5224 57.377C68.9172 47.5933 87.3526 40.2534 106.318 35.5631C144.438 26.191 186.261 24.3983 230.628 30.2414C270.505 35.4927 311.059 46.6462 351.167 63.3977C422.306 93.1687 485.723 139.7 534.56 197.962C537.241 201.164 539.918 204.445 542.51 207.715C561.768 232.023 580.345 260.255 600.969 296.563C606.961 307.099 612.918 317.923 618.679 328.391C630.919 350.625 643.573 373.614 657.394 395.4C658.336 396.888 659.298 398.385 660.246 399.851C704.79 468.466 758.579 514.383 820.118 536.323C883.506 558.647 959.563 556.708 1040.06 530.711C1046.94 528.487 1053.97 526.041 1060.95 523.442C1135.26 495.754 1203.24 450.534 1266.51 406.587C1284.34 394.23 1302.02 381.422 1319.11 369.037C1373.7 329.477 1425.27 292.109 1483.56 266.69C1532.63 245.217 1573.02 242.655 1607.04 258.863C1622.99 266.476 1638.82 278.41 1655.44 295.342C1670.1 310.273 1683.46 327.041 1696.38 343.254C1704.11 352.953 1711.41 362.114 1718.78 370.638C1791.15 454.905 1864.97 542.539 1938.19 631.105L1937.98 631.285Z" fill="#A1A1A1"/>
<path d="M1934.99 628.63C1862.89 539.576 1790.47 450.968 1719.74 365.265C1712.6 356.643 1705.52 347.319 1698.02 337.448C1673.5 305.16 1645.7 268.562 1610.19 251.85C1575.84 235.707 1535.46 239.929 1486.72 264.754C1435.65 290.725 1388.74 327.396 1343.37 362.864C1320.62 380.647 1297.09 399.036 1273.12 416.052C1235.28 442.937 1203.45 463.446 1172.93 480.598C1135.3 501.746 1100.09 517.497 1065.3 528.749C1058.15 531.061 1050.93 533.209 1043.84 535.134C1006.89 545.16 970.595 550.233 935.879 550.236C933.95 550.236 932.032 550.219 930.115 550.188C889.978 549.534 852.617 541.975 819.068 527.723C802.875 520.806 787.017 512.026 771.938 501.625C757.763 491.85 743.835 480.336 730.538 467.403C706.614 444.138 684.25 416.075 662.174 381.617C661.227 380.134 660.282 378.648 659.343 377.157C646.533 356.826 634.415 335.573 622.697 315.019C615.932 303.155 608.938 290.886 601.893 278.943C580.203 242.148 561.83 214.998 542.312 190.918C539.686 187.679 536.982 184.432 534.266 181.264C484.865 123.608 421.025 77.8208 349.652 48.8475C263.598 13.9549 176.469 5.045 104.315 23.7555C30.9574 42.8324 -42.677 105.613 -41.4784 188.694L-41.7604 188.697C-42.3188 149.999 -26.9743 113.201 2.61195 82.2828C15.9852 68.3077 31.7781 56.0577 49.5564 45.8653C66.8552 35.9491 85.2539 28.4176 104.245 23.4792C142.32 13.6054 184.188 11.3138 228.684 16.6693C268.657 21.4808 309.392 32.2172 349.757 48.5825C421.174 77.5756 485.051 123.391 534.483 181.081C537.199 184.252 539.909 187.502 542.534 190.74C562.061 214.835 580.443 241.993 602.139 278.802C609.183 290.748 616.18 303.017 622.943 314.881C634.661 335.432 646.776 356.682 659.582 377.008C660.521 378.499 661.463 379.985 662.411 381.464C709.322 454.688 760.6 502.445 819.178 527.464C900.311 561.931 986.092 550.513 1043.77 534.863C1050.85 532.938 1058.07 530.793 1065.21 528.482C1145.24 502.6 1218.27 454.68 1272.96 415.824C1296.92 398.813 1320.45 380.424 1343.19 362.644C1388.58 327.171 1435.5 290.488 1486.59 264.506C1508.4 253.397 1528.14 246.576 1546.93 243.656C1570.11 240.053 1591.43 242.726 1610.31 251.599C1626.21 259.082 1641.89 271.113 1658.24 288.374C1672.65 303.584 1685.66 320.713 1698.25 337.281C1705.74 347.15 1712.82 356.471 1719.96 365.088C1790.68 450.79 1863.1 539.398 1935.21 628.452L1934.99 628.63Z" fill="#A1A1A1"/>
<path d="M1932 625.975L1720.92 359.71C1714.02 351.015 1707.18 341.552 1699.93 331.538C1676.01 298.486 1648.9 261.025 1613.46 244.589C1579.18 228.698 1537.57 234.747 1489.77 262.57C1443.82 289.316 1401.91 324.885 1361.37 359.285C1334.96 381.707 1307.64 404.891 1279.57 425.296C1195.2 486.625 1121.47 522.848 1047.54 539.295C1016.86 546.116 986.606 549.549 957.262 549.549C948.368 549.549 939.563 549.234 930.852 548.602C889.767 545.626 851.836 535.619 818.116 518.865C786.863 503.334 758.272 481.41 730.719 451.836C708.716 428.221 687.624 400.068 664.344 363.237C652.056 343.799 640.158 323.603 628.652 304.072C602.61 259.875 575.683 214.173 542.346 173.95C491.211 112.257 424.091 63.8774 348.243 34.0388C261.644 -0.030743 174.279 -7.97381 102.243 11.6753C32.5006 30.6986 -43.1953 90.686 -44.5885 177.445L-44.8705 177.44C-44.2472 138.66 -28.4233 101.868 0.889446 71.0397C27.3933 43.1657 63.3616 21.9861 102.17 11.4019C140.203 1.02909 182.116 -1.76424 226.739 3.10364C266.808 7.47261 307.723 17.7947 348.347 33.7766C385.878 48.5409 421.522 67.9758 454.292 91.5429C487.336 115.307 517.035 142.97 542.561 173.764C575.912 214.001 602.847 259.715 628.894 303.923C640.4 323.451 652.299 343.644 664.583 363.079C698.549 416.82 746.712 483.062 818.242 518.606C900.275 559.367 988.177 552.202 1047.47 539.013C1121.37 522.577 1195.07 486.368 1279.4 425.062C1307.46 404.666 1334.77 381.482 1361.19 359.065C1401.73 324.66 1443.65 289.082 1489.63 262.322C1537.51 234.451 1579.21 228.396 1613.58 244.33C1629.44 251.69 1644.98 263.824 1661.07 281.432C1675.24 296.932 1687.91 314.439 1700.16 331.368C1707.41 341.383 1714.25 350.84 1721.14 359.533L1932.22 625.798L1932 625.975Z" fill="#A1A1A1"/>
<path d="M1930.29 605.506C1876.55 531.369 1830.43 471.21 1785.16 416.186C1763.19 389.456 1740.75 363.147 1718.47 337.987C1711.73 330.377 1705.05 322.281 1697.98 313.71C1680.21 292.166 1661.84 269.89 1640.7 253.359C1629.34 244.466 1618.42 238.098 1607.29 233.893C1573.13 220.856 1533.05 229.476 1488.16 259.515C1464.93 275.037 1443.78 292.702 1426.16 307.934C1407.5 324.06 1389.09 341.843 1371.29 359.04C1345.7 383.76 1319.24 409.32 1290.8 431.272C1273.49 444.669 1255.94 456.64 1238.65 466.855C1204.04 487.29 1166.9 504.129 1128.26 516.903C1104.38 524.708 1080.38 530.608 1056.94 534.436C1036.74 537.722 1016.51 539.619 996.791 540.073C967.284 540.755 938.535 538.154 911.343 532.333C882.431 526.143 855.069 516.264 830.021 502.965C807.685 491.107 786.587 476.176 765.524 457.316C726.273 422.201 694.966 381.598 672.078 350.147C660.834 334.624 649.855 318.795 639.237 303.486C608.663 259.399 579.785 217.759 543.647 180.667C514.174 150.615 480.546 124.68 443.69 103.579C415.367 87.3631 384.562 74.1012 352.133 64.1596C344.409 61.7948 336.538 59.5905 328.746 57.6146C295.197 49.1219 257.429 43.5916 216.495 41.176C175.225 38.6843 139.518 40.8406 107.343 47.7746C89.1533 51.6644 71.5301 57.7669 54.956 65.9101C-3.5567 94.6607 -41.1297 142.925 -45.5517 195.02L-45.9042 194.989C-44.7254 181.102 -41.265 167.422 -35.6219 154.327C-30.2608 141.888 -22.8974 129.892 -13.7375 118.67C3.56985 97.4738 27.2705 79.1184 54.8009 65.5915C71.4003 57.4342 89.0517 51.3233 107.27 47.4279C139.479 40.4883 175.213 38.3292 216.517 40.8237C257.475 43.2393 295.262 48.7752 328.833 57.2736C336.634 59.2523 344.508 61.4565 352.238 63.8242C384.692 73.7714 415.522 87.0446 443.867 103.275C480.749 124.389 514.405 150.347 543.893 180.419C580.053 217.533 608.937 259.185 639.522 303.283C650.137 318.592 661.116 334.419 672.357 349.938C695.234 381.375 726.526 421.959 765.755 457.051C786.796 475.892 807.871 490.808 830.181 502.652C879.204 528.677 935.255 541.15 996.78 539.721C1016.48 539.267 1036.7 537.37 1056.89 534.086C1080.31 530.258 1104.28 524.365 1128.14 516.565C1166.77 503.799 1203.89 486.972 1238.47 466.548C1255.75 456.341 1273.29 444.376 1290.58 430.99C1319.01 409.049 1345.46 383.495 1371.04 358.783C1388.84 341.584 1407.25 323.795 1425.92 307.664C1443.56 292.423 1464.72 274.753 1487.97 259.219C1507.95 245.844 1527.3 236.604 1545.48 231.753C1567.81 225.795 1588.65 226.404 1607.41 233.563C1618.57 237.783 1629.53 244.167 1640.91 253.08C1662.09 269.637 1680.47 291.927 1698.25 313.484C1705.32 322.053 1712 330.148 1718.73 337.753C1741.02 362.916 1763.47 389.228 1785.44 415.963C1830.71 470.993 1876.83 531.158 1930.58 605.3L1930.29 605.506Z" fill="#A1A1A1"/>
<path d="M1928.59 585.031C1878.76 509.64 1831.99 446.552 1785.6 392.165C1762.98 365.599 1739.57 340.061 1716.02 316.263C1709.77 309.949 1703.61 303.387 1697.07 296.442C1677.51 275.643 1657.29 254.136 1634.63 239.257C1623.19 231.711 1612.23 226.457 1601.12 223.193C1558.56 210.689 1515.34 234.377 1486.56 256.451C1466.18 272.044 1447.56 289.674 1428.7 307.875C1412.19 323.806 1396.66 340.944 1380.22 359.085C1355.82 386.015 1330.58 413.86 1302.03 437.241C1285.08 451.191 1267.39 463.252 1249.46 473.09C1216.06 491.417 1179.48 505.648 1137.63 516.602C1114.21 522.73 1090.23 527.096 1066.35 529.573C1046.2 531.639 1026.08 532.378 1006.56 531.761C977.521 530.853 949.133 526.772 922.184 519.632C893.881 512.131 866.875 501.172 841.919 487.059C820.055 474.696 798.943 459.357 777.377 440.167C738.211 405.365 704.659 366.783 679.808 337.057C670.609 326.053 661.556 314.981 652.799 304.27C617.928 261.617 584.991 221.327 544.951 187.384C515.026 162.016 481.429 140.566 445.1 123.631C417.612 110.817 388.477 101.217 356.034 94.28C348.546 92.6818 340.929 91.2414 333.396 89.9984C300.31 84.5667 264.999 82.5119 222.276 80.3866C191.48 78.7772 151.166 77.7173 112.437 83.8677C94.0944 86.7259 76.364 91.6896 59.7335 98.6151C1.18134 123.005 -38.5378 165.613 -46.5188 212.595L-46.9362 212.524C-44.8211 200.065 -40.5345 187.846 -34.2032 176.202C-28.1681 165.108 -20.2378 154.47 -10.6351 144.577C7.61414 125.782 31.8901 109.752 59.57 98.2233C76.2315 91.2837 93.9957 86.3115 112.369 83.4477C151.135 77.2889 191.48 78.3515 222.296 79.961C265.033 82.0863 300.355 84.1411 333.464 89.5756C341.002 90.8214 348.625 92.2618 356.121 93.86C388.595 100.805 417.759 110.414 445.278 123.242C481.644 140.194 515.268 161.661 545.224 187.054C585.293 221.022 618.244 261.324 653.126 303.993C661.88 314.702 670.933 325.773 680.132 336.775C704.978 366.489 738.515 405.058 777.659 439.843C799.199 459.013 820.289 474.335 842.128 486.684C891.199 514.434 946.53 529.455 1006.58 531.332C1026.08 531.947 1046.17 531.211 1066.31 529.145C1090.16 526.67 1114.13 522.31 1137.52 516.185C1179.33 505.242 1215.88 491.022 1249.26 472.712C1267.17 462.886 1284.83 450.842 1301.76 436.906C1330.29 413.545 1355.52 385.71 1379.91 358.794C1396.36 340.645 1411.89 323.504 1428.41 307.565C1447.28 289.353 1465.9 271.717 1486.31 256.107C1504.96 241.796 1523.36 231.502 1540.99 225.504C1562.38 218.232 1582.65 217.316 1601.24 222.779C1612.4 226.057 1623.4 231.328 1634.87 238.896C1657.56 253.804 1677.81 275.33 1697.38 296.146C1703.91 303.089 1710.08 309.648 1716.33 315.959C1739.89 339.765 1763.3 365.311 1785.93 391.886C1832.32 446.287 1879.11 509.386 1928.95 584.794L1928.59 585.031Z" fill="#A1A1A1"/>
<path d="M1926.89 564.556C1880.25 486.887 1834.18 422.64 1786.04 368.146C1762.77 341.744 1738.39 316.982 1713.58 294.542C1708.28 289.745 1702.82 284.654 1697.54 279.733C1675.73 259.398 1653.19 238.374 1628.58 225.157C1617.02 218.911 1606.02 214.767 1594.96 212.493C1552.5 203.757 1511.7 229.909 1484.96 253.383C1466.84 269.23 1450.27 287.191 1434.25 304.562L1431.25 307.815C1416.7 323.574 1403.05 340.859 1388.6 359.16C1365.59 388.303 1341.8 418.435 1313.26 443.211C1296.65 457.733 1278.82 469.884 1260.27 479.327C1227.93 495.791 1191.93 507.539 1147 516.3C1123.76 520.829 1099.79 523.659 1075.74 524.708C1055.65 525.551 1035.66 525.128 1016.33 523.445C957.808 518.374 903.131 500.78 853.812 471.153C832.492 458.345 811.366 442.602 789.231 423.018C751.77 389.946 718.453 355.953 687.541 323.969C683.396 319.682 679.295 315.423 675.226 311.198C633.005 267.37 593.128 225.972 546.262 194.109C515.667 173.307 482.104 156.344 446.511 143.688C420.379 134.398 392.059 128.09 359.937 124.403C352.698 123.577 345.335 122.898 338.05 122.385C319.725 121.116 300.288 120.911 279.709 120.693C263.18 120.519 246.09 120.338 228.055 119.603C193.224 118.061 153.747 116.316 117.525 119.969C98.8356 121.855 80.9981 125.677 64.5058 131.331C5.97619 151.4 -35.8919 188.356 -47.4912 230.188L-47.9678 230.056C-44.9108 219.026 -39.8007 208.267 -32.7813 198.078C-26.0693 188.334 -17.575 179.049 -7.5352 170.483C11.6673 154.101 36.5242 140.402 64.3422 130.863C80.8712 125.195 98.7454 121.364 117.471 119.476C153.73 115.82 193.226 117.568 228.072 119.109C246.096 119.842 263.186 120.025 279.709 120.2C300.297 120.417 319.739 120.623 338.081 121.894C345.371 122.41 352.743 123.089 359.988 123.915C392.149 127.605 420.503 133.922 446.671 143.226C482.307 155.896 515.906 172.879 546.536 193.703C593.444 225.594 633.341 267.012 675.578 310.859C679.648 315.085 683.751 319.341 687.894 323.631C718.8 355.609 752.106 389.594 789.555 422.654C811.668 442.216 832.771 457.944 854.066 470.736C903.32 500.326 957.927 517.895 1016.37 522.96C1035.68 524.64 1055.65 525.063 1075.72 524.22C1099.74 523.172 1123.69 520.345 1146.9 515.821C1191.79 507.069 1227.74 495.334 1260.04 478.893C1278.56 469.47 1296.35 457.341 1312.93 442.845C1341.43 418.099 1365.21 387.984 1388.21 358.859C1402.66 340.549 1416.32 323.256 1430.88 307.485L1433.88 304.233C1449.91 286.853 1466.49 268.881 1484.63 253.017C1511.46 229.467 1552.39 203.239 1595.06 212.013C1606.17 214.299 1617.21 218.457 1628.81 224.729C1653.47 237.974 1676.04 259.021 1697.87 279.377C1703.15 284.299 1708.61 289.389 1713.9 294.184C1738.73 316.635 1763.12 341.411 1786.41 367.828C1834.57 422.344 1880.65 486.613 1927.31 564.308L1926.89 564.556Z" fill="#A1A1A1"/>
<path d="M1925.19 544.078C1882.37 465.237 1835.7 397.963 1786.49 344.132C1762.56 317.895 1737.21 293.905 1711.14 272.827C1707.38 269.783 1703.52 266.623 1699.79 263.568C1675.15 243.383 1649.67 222.508 1622.53 211.064C1610.88 206.1 1599.85 203.07 1588.81 201.796C1546.47 196.914 1508.1 225.487 1483.37 250.317C1468.01 265.656 1454.15 282.715 1440.75 299.213C1438.43 302.068 1436.11 304.918 1433.79 307.756C1421.04 323.349 1409.12 340.769 1396.5 359.209C1375.05 390.558 1352.86 422.973 1324.49 449.187C1307.83 464.58 1290.36 476.48 1271.08 485.574C1230.76 504.591 1190.46 511.629 1156.36 516.01C1133.3 518.969 1109.34 520.266 1085.14 519.854C1065.1 519.474 1045.24 517.887 1026.09 515.142C969.331 507.021 915.371 486.873 865.71 455.256C845.047 442.104 823.91 425.953 801.086 405.881C778.032 385.654 756.548 366.191 735.769 347.367C721.648 334.573 708.309 322.49 695.282 310.896C646.042 267.071 600.94 228.54 547.585 200.843C516.332 184.622 482.803 172.141 447.929 163.749C422.934 157.734 396.216 154.806 363.849 154.527C356.866 154.476 349.754 154.558 342.712 154.772C332.015 155.119 320.948 155.843 309.236 156.613C286.76 158.087 261.279 159.758 233.834 158.822C223.382 158.464 212.719 157.96 202.406 157.469C175.879 156.209 148.45 154.907 122.609 156.071C103.632 156.928 85.685 159.612 69.2717 164.048C10.8408 179.847 -33.1735 211.154 -48.47 247.794L-48.9918 247.577C-44.9871 237.982 -39.0535 228.686 -31.3573 219.946C-23.9656 211.552 -14.9073 203.623 -4.43887 196.381C15.7337 182.429 41.1688 171.061 69.1194 163.504C85.5722 159.056 103.559 156.364 122.578 155.508C148.448 154.341 175.888 155.646 202.428 156.906C212.739 157.396 223.402 157.901 233.851 158.259C261.271 159.194 286.731 157.526 309.197 156.052C320.915 155.282 331.984 154.558 342.692 154.211C349.742 153.997 356.86 153.915 363.852 153.966C396.264 154.242 423.021 157.179 448.059 163.203C482.975 171.605 516.549 184.1 547.842 200.345C571.943 212.854 596.365 228.703 622.505 248.795C645.907 266.781 668.671 286.461 695.655 310.476C708.681 322.073 722.02 334.156 736.144 346.95C756.92 365.771 778.404 385.234 801.453 405.458C824.254 425.51 845.369 441.644 866.006 454.782C915.599 486.357 969.484 506.477 1026.17 514.586C1045.29 517.329 1065.13 518.913 1085.14 519.293C1109.31 519.705 1133.25 518.411 1156.28 515.452C1190.34 511.08 1230.58 504.05 1270.83 485.066C1290.06 475.998 1307.48 464.129 1324.1 448.775C1352.42 422.607 1374.59 390.217 1396.03 358.893C1408.66 340.442 1420.59 323.014 1433.35 307.404C1435.67 304.566 1437.99 301.716 1440.3 298.863C1453.72 282.354 1467.59 265.284 1482.96 249.925C1499.05 233.771 1515.56 221.344 1532.02 212.989C1551.52 203.093 1570.65 199.141 1588.87 201.244C1599.96 202.523 1611.04 205.568 1622.74 210.551C1649.95 222.026 1675.46 242.926 1700.13 263.136C1703.86 266.192 1707.72 269.352 1711.48 272.393C1737.57 293.488 1762.94 317.501 1786.89 343.757C1813.02 372.341 1838.61 404.908 1862.95 440.553C1884.46 472.058 1905.56 506.801 1925.67 543.813L1925.19 544.078Z" fill="#A1A1A1"/>
<path d="M1923.49 523.595C1883.85 442.493 1837.91 374.032 1786.93 320.113C1762.35 294.043 1736.03 270.829 1708.71 251.109C1707.41 250.17 1706.11 249.232 1704.8 248.29C1676.39 227.759 1647.01 206.529 1616.5 196.97C1604.67 193.267 1593.61 191.347 1582.68 191.099C1540.5 190.146 1504.53 221.107 1481.79 247.245C1468.4 262.536 1456.52 279.296 1445.03 295.503C1442.19 299.512 1439.25 303.655 1436.35 307.691C1425.31 323.065 1415.04 340.543 1404.17 359.051C1384.4 392.714 1363.95 427.522 1335.73 455.157C1319.4 471.145 1301.79 483.135 1281.9 491.817C1242.7 508.918 1202.9 513.408 1165.73 515.714C1142.81 517.134 1118.86 516.892 1094.54 514.995C1074.57 513.388 1054.83 510.64 1035.86 506.829C981.03 495.836 927.786 473.135 877.612 439.353C857.518 425.826 836.971 409.742 812.952 388.737C767.302 348.926 733.403 320.886 703.041 297.82C642.653 251.946 596.563 224.957 548.934 207.577C517.046 195.942 483.551 187.945 449.374 183.807C425.662 180.938 400.497 181.194 367.783 184.647C361.08 185.363 354.221 186.206 347.397 187.156C340.95 188.066 334.401 189.109 327.466 190.211C301.862 194.284 272.84 198.901 239.624 198.039C222.117 197.585 204.234 196.342 186.941 195.141C167.287 193.777 146.965 192.365 127.698 192.173C108.379 191.981 90.322 193.526 74.0412 196.767C15.8049 208.355 -30.3612 234.019 -49.4508 265.417L-49.9923 265.087C-45.0345 256.93 -38.2773 249.096 -29.9099 241.805C-21.833 234.763 -12.2162 228.193 -1.32478 222.271C19.8321 210.765 45.8509 201.728 73.9171 196.145C90.243 192.897 108.34 191.347 127.703 191.539C146.987 191.73 167.321 193.143 186.983 194.51C204.271 195.71 222.145 196.953 239.638 197.407C272.795 198.267 301.786 193.656 327.362 189.588C334.3 188.483 340.854 187.443 347.303 186.53C354.137 185.58 361.001 184.737 367.71 184.019C400.475 180.563 425.681 180.303 449.444 183.181C483.67 187.325 517.213 195.333 549.145 206.985C596.84 224.388 642.978 251.405 703.419 297.319C733.792 320.392 767.702 348.441 813.363 388.264C837.366 409.252 857.891 425.318 877.962 438.831C928.068 472.565 981.233 495.236 1035.98 506.212C1054.92 510.017 1074.64 512.76 1094.58 514.366C1118.87 516.26 1142.79 516.503 1165.69 515.085C1202.8 512.782 1242.53 508.303 1281.64 491.242C1301.46 482.594 1319.01 470.643 1335.28 454.712C1363.44 427.136 1383.87 392.365 1403.62 358.738C1414.49 340.219 1424.77 322.726 1435.83 307.331C1438.73 303.297 1441.67 299.154 1444.51 295.145C1456.01 278.924 1467.9 262.153 1481.3 246.836C1496.15 229.777 1511.71 216.284 1527.55 206.729C1546.12 195.536 1564.67 190.07 1582.69 190.473C1593.68 190.721 1604.8 192.652 1616.68 196.373C1647.3 205.965 1676.72 227.223 1705.17 247.786C1706.48 248.727 1707.78 249.669 1709.08 250.604C1736.43 270.347 1762.78 293.59 1787.39 319.688C1838.41 373.654 1884.39 442.168 1924.05 523.327L1923.49 523.595Z" fill="#A1A1A1"/>
<path d="M1179.76 515.42C1178.18 515.42 1176.62 515.417 1175.08 515.409C1152.28 515.313 1128.34 513.537 1103.93 510.126C1084.03 507.294 1064.41 503.384 1045.62 498.511C1018.77 491.56 991.827 481.57 965.529 468.821C940.134 456.509 914.558 441.243 889.509 423.443C864.965 406.004 842.04 386.572 824.809 371.591C784.492 336.633 746.132 307.415 710.796 284.744C653.563 248.028 602.561 225.644 550.284 214.305C518.746 207.464 484.909 203.856 452.331 203.856C451.826 203.856 451.324 203.856 450.819 203.859C422.832 203.955 396.26 209.152 371.719 214.756C365.332 216.224 358.724 217.828 352.08 219.528C348.439 220.469 344.793 221.439 340.935 222.465C313.723 229.712 282.879 237.923 245.407 237.249C222.587 236.837 199.278 234.475 176.736 232.189C162.182 230.712 147.133 229.187 132.779 228.266C113.046 227 94.8869 227.406 78.8007 229.478C20.8746 236.93 -27.4432 256.954 -50.4529 283.044L-50.9831 282.579C-39.1807 269.199 -21.4278 257.614 1.78213 248.143C23.9486 239.101 50.5511 232.404 78.7104 228.782C94.8389 226.707 113.046 226.295 132.824 227.567C147.192 228.488 162.249 230.016 176.81 231.493C199.337 233.779 222.632 236.141 245.421 236.55C282.797 237.224 313.587 229.024 340.754 221.791C344.615 220.762 348.261 219.793 351.905 218.851C358.555 217.152 365.168 215.545 371.561 214.076C396.145 208.464 422.762 203.258 450.816 203.16C483.914 203.044 518.357 206.663 550.433 213.623C577.413 219.477 603.57 228.094 630.393 239.966C656.226 251.402 682.651 265.856 711.174 284.158C746.538 306.845 784.927 336.086 825.269 371.066C842.486 386.039 865.394 405.457 889.913 422.877C940.74 458.995 993.187 484.214 1045.79 497.837C1064.56 502.705 1084.15 506.609 1104.02 509.439C1128.41 512.844 1152.31 514.619 1175.08 514.712C1210.71 514.859 1252.09 513.658 1292.44 497.409C1312.86 489.184 1330.53 477.156 1346.45 460.641C1374.42 431.637 1392.96 394.411 1410.89 358.408C1420.12 339.889 1428.83 322.396 1438.3 307.254C1441.34 302.403 1444.4 297.405 1447.36 292.571C1457.37 276.24 1467.71 259.356 1479.63 243.749C1493.25 225.794 1507.87 211.23 1523.07 200.462C1540.7 187.978 1558.67 180.993 1576.49 179.702C1587.48 178.905 1598.64 179.719 1610.6 182.194C1642.59 188.807 1674.29 208.019 1706.65 228.813C1734.87 246.942 1762.96 270.042 1787.87 295.616C1815.55 323.941 1841.55 357.17 1865.16 394.38C1886.19 427.53 1905.46 464.021 1922.42 502.84L1921.78 503.122C1885.35 419.756 1840.13 350.106 1787.37 296.109C1762.49 270.571 1734.45 247.506 1706.27 229.407C1673.96 208.65 1642.33 189.475 1610.46 182.885C1598.56 180.424 1587.47 179.615 1576.54 180.407C1543.8 182.783 1509.59 205.429 1480.19 244.177C1468.3 259.756 1457.96 276.626 1447.96 292.941C1445 297.777 1441.94 302.778 1438.9 307.629C1429.45 322.743 1420.74 340.221 1411.53 358.723C1402.73 376.388 1393.63 394.656 1383.19 412.216C1371.35 432.125 1359.51 448.124 1346.96 461.132C1330.97 477.72 1313.22 489.801 1292.7 498.065C1274.61 505.354 1255.15 510.172 1233.24 512.799C1214.68 515.011 1196.04 515.42 1179.76 515.42Z" fill="#A1A1A1"/>
<path d="M1224.99 516.833C1210.61 516.833 1196.79 515.976 1184.43 515.108C1161.71 513.512 1137.78 510.2 1113.31 505.262C1093.49 501.206 1074 496.138 1055.37 490.193C1004.36 473.949 953.99 446.909 901.397 407.535C878.461 390.366 856.839 371.893 836.663 354.445C796.831 320.099 757.095 292.251 718.552 271.669C661.867 241.399 608.831 225.307 551.644 221.028C519.059 218.59 484.699 219.585 452.272 223.903C425.131 227.517 399.544 236.238 375.657 244.857C369.681 247.025 363.325 249.392 356.768 251.893C355.129 252.521 353.477 253.161 351.801 253.806C324.291 264.439 293.162 276.469 253.211 276.469C252.537 276.469 251.866 276.466 251.186 276.457C224.158 276.184 196.563 272.328 169.873 268.596C159.292 267.116 148.349 265.589 137.85 264.351C117.342 261.938 99.5803 261.225 83.5477 262.178C25.2352 265.645 -23.985 279.671 -51.4872 300.667L-51.9582 300.05C-38.3622 289.672 -18.7028 280.66 4.8878 273.991C28.0921 267.432 55.2756 263.08 83.4998 261.403C99.5775 260.447 117.384 261.16 137.937 263.579C148.448 264.816 159.393 266.347 169.977 267.824C196.642 271.55 224.212 275.403 251.189 275.677C291.972 276.094 323.608 263.864 351.517 253.076C353.189 252.431 354.844 251.791 356.483 251.16C363.045 248.657 369.405 246.289 375.386 244.121C399.313 235.485 424.948 226.753 452.162 223.128C484.639 218.804 519.057 217.806 551.694 220.247C580.034 222.367 607.054 227.373 634.297 235.547C662.355 243.966 690.032 255.554 718.91 270.978C757.501 291.588 797.288 319.471 837.162 353.85C857.329 371.292 878.937 389.755 901.854 406.907C954.377 446.227 1004.67 473.228 1055.6 489.446C1074.2 495.38 1093.67 500.442 1113.45 504.492C1137.89 509.425 1161.79 512.734 1184.48 514.324C1222.66 517.002 1263.27 518.377 1303.23 503.56C1324.25 495.76 1342.05 483.657 1357.62 466.556C1385.36 436.094 1402.63 394.544 1417.87 357.884C1425.54 339.438 1432.78 322.016 1440.77 307.164C1443.65 301.806 1446.55 296.267 1449.36 290.912C1458.13 274.155 1467.21 256.828 1477.95 240.646C1490.38 221.795 1504.05 206.159 1518.59 194.174C1535.28 180.411 1552.67 171.909 1570.27 168.913C1581.28 167.039 1592.48 166.74 1604.51 167.991C1638.14 171.495 1672.31 188.807 1704.22 206.996C1733.69 223.79 1762.78 246.103 1788.35 271.522C1816.8 299.715 1843.01 333.277 1866.26 371.27C1887.04 405.246 1905.39 442.611 1920.79 482.332L1920.07 482.611C1887.33 398.18 1841.6 325.376 1787.81 272.069C1762.29 246.698 1733.25 224.427 1703.84 207.667C1672.01 189.521 1637.93 172.25 1604.44 168.761C1592.47 167.515 1581.34 167.814 1570.41 169.674C1537.91 175.207 1505.31 200.561 1478.6 241.069C1467.88 257.217 1458.82 274.527 1450.05 291.267C1447.24 296.625 1444.34 302.164 1441.46 307.528C1433.48 322.346 1426.25 339.751 1418.59 358.177C1403.33 394.893 1386.03 436.511 1358.2 467.074C1342.53 484.268 1324.64 496.439 1303.5 504.284C1285.15 511.088 1265.36 515.029 1242.99 516.323C1236.94 516.689 1230.92 516.833 1224.99 516.833Z" fill="#A1A1A1"/>
<path d="M1253.37 519.885C1253.16 519.885 1252.96 519.885 1252.76 519.885C1232.43 519.834 1212.48 517.348 1193.78 514.806C1171.09 511.722 1147.18 506.871 1122.69 500.394C1102.97 495.12 1083.6 488.888 1065.12 481.875C1016.15 463.308 967.905 434.634 913.292 391.629C893.625 376.146 874.27 359.473 855.549 343.353C853.209 341.335 850.865 339.32 848.522 337.304C808.484 302.967 767.369 276.485 726.321 258.598C670.113 234.106 613.425 224.015 553.017 227.75C519.894 229.799 485.564 235.4 453.739 243.946C428.628 250.692 406.253 261.513 379.608 274.958C374.207 277.695 368.44 280.649 361.463 284.257L361.074 284.46C347.613 291.467 332.356 299.407 315.243 305.445C295.59 312.379 276.523 315.716 256.97 315.677C226.482 315.6 195.367 309.929 165.279 304.441C157.907 303.097 150.281 301.707 142.92 300.45C121.811 296.85 103.943 295.032 88.2938 294.894C30.6723 294.387 -20.6602 302.922 -52.5393 318.306L-52.9059 317.545C-37.2907 310.008 -16.2269 303.892 8.00669 299.855C32.2855 295.81 60.0528 293.803 88.3023 294.052C103.997 294.19 121.91 296.011 143.064 299.618C150.43 300.876 158.056 302.265 165.431 303.61C195.482 309.089 226.558 314.755 256.973 314.831C257.109 314.831 257.247 314.831 257.382 314.831C300.889 314.831 334.034 297.581 360.685 283.71L361.077 283.507C368.057 279.896 373.824 276.942 379.227 274.205C405.917 260.737 428.332 249.897 453.522 243.132C485.401 234.569 519.787 228.959 552.966 226.907C582.527 225.081 610.41 226.473 638.214 231.169C668.175 236.229 697.107 244.947 726.66 257.826C767.786 275.747 808.972 302.271 849.074 336.664C851.418 338.68 853.762 340.698 856.102 342.716C874.814 358.831 894.163 375.498 913.814 390.969C968.356 433.921 1016.53 462.556 1065.42 481.091C1083.87 488.096 1103.21 494.317 1122.91 499.585C1147.36 506.054 1171.24 510.896 1193.9 513.974C1234.47 519.493 1274.19 523.321 1314.04 509.746C1335.66 502.378 1353.58 490.199 1368.8 472.509C1396.3 440.553 1411.32 396.274 1424.57 357.204C1430.77 338.914 1436.64 321.635 1443.25 307.116C1445.79 301.53 1448.34 295.751 1450.81 290.162C1458.53 272.686 1466.5 254.618 1476.29 237.582C1487.55 217.826 1500.27 201.116 1514.11 187.919C1529.88 172.879 1546.69 162.867 1564.07 158.165C1574.85 155.251 1585.84 153.83 1597.66 153.83C1597.91 153.83 1598.17 153.83 1598.43 153.833C1635.17 154.025 1672.97 170.706 1701.8 185.216C1732.52 200.677 1762.62 222.2 1788.85 247.461C1818.07 275.524 1844.49 309.416 1867.36 348.199C1887.89 383.001 1905.32 421.242 1919.17 461.865L1918.37 462.139C1897.77 401.695 1858.47 315.493 1788.26 248.073C1762.09 222.868 1732.06 201.395 1701.42 185.972C1672.67 171.5 1634.99 154.867 1598.43 154.679C1586.39 154.608 1575.23 156.023 1564.29 158.983C1532.09 167.695 1501.1 195.758 1477.02 238.002C1467.26 254.999 1459.29 273.047 1451.58 290.503C1449.11 296.095 1446.56 301.876 1444.02 307.466C1437.42 321.948 1431.57 339.204 1425.37 357.475C1412.09 396.615 1397.05 440.979 1369.44 473.058C1354.12 490.867 1336.09 503.128 1314.31 510.544C1295.86 516.827 1275.92 519.885 1253.37 519.885Z" fill="#A1A1A1"/>
<path d="M1275.94 523.854C1271.56 523.854 1267.09 523.713 1262.51 523.432C1242.46 522.2 1222.98 518.504 1203.13 514.502C1180.11 509.862 1156.87 503.656 1132.07 495.527C1112.45 489.038 1093.2 481.647 1074.88 473.555C1028.38 453.057 982.214 422.883 925.188 375.721C911.025 364.009 896.867 351.725 883.176 339.845C875.722 333.378 868.017 326.69 860.383 320.159C819.869 285.59 777.38 260.481 734.096 245.526C676.906 225.764 618.128 222.144 554.398 234.462C520.728 240.971 486.43 251.177 455.213 263.977C430.136 274.259 408.291 288.699 385.163 303.988L383.564 305.045C379.952 307.441 376.3 309.871 372.602 312.329C370.473 313.746 368.33 315.173 366.167 316.61C352.681 325.621 338.115 335.022 321.411 342.257C302.017 350.657 282.834 354.789 262.76 354.891C229.341 355.054 195.254 347.292 162.292 339.777C157.588 338.703 152.72 337.595 147.996 336.544C125.85 331.611 108.39 328.773 93.0426 327.606C36.4082 323.302 -17.0395 326.335 -53.6001 335.929L-53.8342 335.044C-17.1777 325.424 36.38 322.38 93.1131 326.693C108.503 327.862 126.007 330.709 148.197 335.65C152.923 336.705 157.791 337.812 162.498 338.886C195.056 346.308 228.712 353.978 261.688 353.978C262.044 353.978 262.399 353.978 262.757 353.975C305.409 353.76 335.771 335.817 365.662 315.849C367.825 314.412 369.968 312.985 372.098 311.567C375.795 309.107 379.444 306.68 383.06 304.281L384.659 303.224C407.826 287.91 429.708 273.445 454.866 263.128C486.139 250.303 520.497 240.08 554.226 233.56C618.117 221.211 677.053 224.842 734.398 244.657C777.789 259.653 820.376 284.818 860.981 319.463C868.615 325.996 876.323 332.682 883.776 339.151C897.462 351.029 911.617 363.31 925.771 375.013C982.73 422.122 1028.83 452.254 1075.25 472.718C1093.55 480.796 1112.76 488.178 1132.36 494.656C1157.12 502.773 1180.33 508.972 1203.31 513.603C1238.2 520.635 1281.61 529.39 1324.85 515.906C1347.08 508.975 1365.11 496.719 1379.98 478.437C1407.21 444.951 1419.83 397.853 1430.97 356.303C1435.81 338.252 1440.39 321.202 1445.72 307.052C1447.8 301.539 1449.88 295.836 1451.9 290.32C1458.65 271.821 1465.64 252.693 1474.62 234.502C1484.74 213.827 1496.52 196.043 1509.63 181.646C1524.49 165.331 1540.71 153.811 1557.86 147.404C1568.86 143.292 1580.14 140.758 1592.34 139.655C1608.67 138.178 1626.06 139.757 1645.49 144.47C1661.93 148.461 1679.56 154.657 1699.38 163.414C1731.34 177.539 1762.45 198.276 1789.34 223.382C1819.34 251.312 1845.96 285.54 1868.47 325.108C1888.73 360.74 1905.25 399.857 1917.54 441.379L1916.66 441.639C1890.7 353.977 1845.26 276.703 1788.71 224.053C1761.9 199.014 1730.88 178.336 1699.01 164.254C1656.3 145.386 1622.44 137.857 1592.42 140.569C1580.31 141.662 1569.11 144.179 1558.18 148.261C1517.38 163.502 1490.67 203.792 1475.44 234.905C1466.49 253.051 1459.51 272.157 1452.76 290.633C1450.74 296.152 1448.66 301.857 1446.58 307.373C1441.26 321.481 1436.69 338.511 1431.86 356.54C1420.7 398.18 1408.04 445.376 1380.69 479.015C1365.7 497.44 1347.53 509.795 1325.12 516.782C1309.93 521.518 1293.74 523.854 1275.94 523.854Z" fill="#A1A1A1"/>
<path d="M1295.49 528.404C1265.67 528.404 1237 520.745 1212.47 514.195C1189.39 508.033 1166.16 500.332 1141.44 490.656C1121.93 482.961 1102.81 474.409 1084.62 465.234C1030.1 437.763 981.484 398.333 937.078 359.812C928.011 351.948 918.851 343.842 909.996 336.003C897.7 325.117 884.984 313.862 872.242 303.016C831.122 268.106 787.26 244.364 741.878 232.45C683.17 217.04 622.297 219.89 555.781 241.165C521.533 252.119 487.268 266.931 456.689 284.001C433.104 297.164 413.148 313.783 392.023 331.377C390.525 332.623 389.025 333.875 387.516 335.126L386.698 335.808C381.563 340.09 376.252 344.515 370.869 348.958C357.969 359.649 343.764 370.707 327.334 379.154C308.261 388.96 289.033 393.851 268.545 394.104C232.582 394.553 195.928 384.448 160.485 374.675C158 373.99 155.527 373.308 153.065 372.635C129.691 366.225 112.641 362.425 97.784 360.311C42.5709 352.458 -12.9975 349.989 -54.6738 353.538L-54.7584 352.554C-13.0144 348.997 42.6358 351.469 97.9222 359.333C112.821 361.453 129.908 365.261 153.324 371.682C155.786 372.355 158.26 373.038 160.747 373.725C196.123 383.478 232.706 393.558 268.531 393.118C313.024 392.565 344.359 369.641 370.237 348.196C375.621 343.754 380.931 339.329 386.066 335.05L386.884 334.368C388.393 333.114 389.893 331.865 391.391 330.619C412.553 312.994 432.543 296.347 456.207 283.138C486.842 266.037 521.172 251.2 555.479 240.226C587.014 230.141 616.634 224.318 646.029 222.424C678.819 220.312 711.149 223.365 742.126 231.497C787.652 243.448 831.643 267.258 872.88 302.263C885.63 313.115 898.349 324.373 910.647 335.261C919.503 343.1 928.657 351.204 937.721 359.065C982.082 397.543 1030.63 436.932 1085.06 464.352C1103.23 473.513 1122.32 482.053 1141.8 489.737C1166.48 499.4 1189.68 507.089 1212.72 513.242C1248.1 522.69 1292.14 534.45 1335.65 522.076C1358.48 515.582 1376.63 503.25 1391.14 484.376C1418.09 449.314 1428.17 399.319 1437.07 355.207C1440.65 337.483 1444.02 320.742 1448.18 306.996C1449.72 301.911 1451.27 296.657 1452.76 291.575C1458.61 271.697 1464.66 251.14 1472.93 231.429C1481.93 209.818 1492.77 190.956 1505.13 175.371C1519.08 157.785 1534.72 144.757 1551.63 136.648C1562.61 131.383 1573.93 127.733 1586.23 125.486C1602.8 122.462 1621.19 122.563 1640.88 125.788C1658.13 128.612 1676.99 133.936 1696.93 141.617C1730.14 154.406 1762.26 174.354 1789.81 199.305C1820.59 227.105 1847.42 261.663 1869.56 302.021C1889.56 338.48 1905.15 378.478 1915.91 420.899L1914.95 421.141C1892.17 331.253 1847.49 252.73 1789.15 200.038C1761.69 175.168 1729.68 155.285 1696.58 142.539C1653.68 126.019 1617.64 120.756 1586.41 126.458C1574.2 128.688 1562.96 132.313 1552.06 137.539C1511.83 156.833 1487.32 199.451 1473.84 231.81C1465.59 251.47 1459.55 271.999 1453.71 291.851C1452.22 296.933 1450.67 302.19 1449.13 307.28C1444.98 320.982 1441.61 337.7 1438.04 355.401C1433.76 376.623 1428.91 400.675 1421.86 423.224C1413.8 449.061 1404 469.259 1391.92 484.976C1384.94 494.064 1376.91 501.798 1368.06 507.965C1358.55 514.598 1347.73 519.666 1335.92 523.026C1322.4 526.873 1308.83 528.404 1295.49 528.404Z" fill="#A1A1A1"/>
<path d="M1313.12 533.396C1303.26 533.396 1292.93 532.437 1282.02 530.523C1260.53 526.755 1239.96 519.917 1221.81 513.887C1198.93 506.285 1175.05 496.829 1150.82 485.782C1131.43 476.892 1112.43 467.179 1094.37 456.908C1042.51 427.461 997.841 388.306 948.967 343.901C944.624 339.954 940.213 335.929 935.949 332.034C919.155 316.703 901.792 300.851 884.101 285.872C842.297 250.554 797.065 228.182 749.658 219.376C689.859 208.268 625.092 217.852 557.162 247.865C522.305 263.266 488.071 282.681 458.163 304.016C435.644 320.08 417.108 339.019 397.482 359.071C395.488 361.109 393.486 363.152 391.472 365.204C386.461 370.317 381.063 375.805 375.572 381.299C364.057 392.858 350.024 406.03 333.259 416.045C314.49 427.258 295.215 432.909 274.334 433.318C236.11 434.071 197.2 421.42 159.57 409.187L158.138 408.722C139.714 402.735 120.224 396.686 102.53 393.013C48.5972 381.82 -7.61145 374.049 -55.7375 371.132L-55.6726 370.078C-7.49583 372.998 48.7636 380.775 102.744 391.979C120.489 395.663 140.013 401.72 158.465 407.716L159.898 408.181C197.445 420.386 236.276 433.005 274.314 432.258C318.244 431.396 348.583 406.896 374.825 380.546C380.316 375.056 385.708 369.568 390.719 364.457C392.733 362.408 394.735 360.362 396.729 358.327C416.388 338.241 434.959 319.268 457.551 303.151C487.516 281.774 521.814 262.322 556.737 246.893C588.607 232.813 619.97 223.111 649.948 218.06C684.202 212.29 717.816 212.38 749.855 218.331C797.443 227.17 842.842 249.621 884.786 285.06C902.491 300.053 919.863 315.911 936.666 331.25C940.93 335.143 945.341 339.168 949.684 343.114C998.509 387.478 1043.14 426.59 1094.9 455.986C1112.94 466.24 1131.9 475.939 1151.26 484.818C1175.46 495.848 1199.3 505.29 1222.15 512.881C1257.96 524.782 1302.52 539.588 1346.46 528.243C1369.9 522.191 1388.17 509.786 1402.32 490.315C1428.97 453.629 1436.68 398.335 1442.88 353.904C1445.3 336.597 1447.57 320.252 1450.67 306.948C1451.64 302.753 1452.62 298.432 1453.57 294.252C1458.51 272.537 1463.62 250.08 1471.27 228.365C1483.1 194.572 1505.56 149.366 1545.42 125.906C1556.43 119.428 1567.79 114.659 1580.14 111.328C1612.46 102.485 1650.94 105.346 1694.51 119.826C1728.96 131.278 1762.09 150.437 1790.3 175.233C1821.86 202.901 1848.9 237.791 1870.67 278.941C1880.66 297.815 1889.48 317.974 1896.9 338.858C1903.99 358.806 1909.84 379.52 1914.29 400.427L1913.25 400.646C1893.66 308.526 1849.75 228.754 1789.6 176.025C1761.49 151.322 1728.5 132.237 1694.17 120.827C1650.81 106.412 1612.53 103.559 1580.42 112.345C1568.15 115.651 1556.88 120.384 1545.96 126.813C1506.37 150.11 1484.04 195.085 1472.27 228.712C1464.63 250.371 1459.53 272.796 1454.6 294.483C1453.65 298.663 1452.67 302.987 1451.69 307.184C1448.62 320.443 1446.34 336.766 1443.93 354.048C1440.81 376.406 1437.28 401.746 1431.23 425.662C1424.29 453.145 1415.11 474.496 1403.17 490.935C1396.36 500.313 1388.39 508.222 1379.49 514.44C1369.9 521.14 1358.87 526.129 1346.73 529.263C1336.06 532.02 1324.93 533.396 1313.12 533.396Z" fill="#A1A1A1"/>
<path d="M1329.36 538.667C1317.55 538.667 1305.08 537.136 1291.77 534.067C1270.2 529.098 1249.45 520.85 1231.15 513.572C1208.1 504.411 1184.22 493.421 1160.19 480.904C1140.93 470.827 1122.06 459.952 1104.11 448.579C1054.73 417.305 1012.37 376.998 967.523 334.329C965.303 332.218 963.084 330.104 960.859 327.989C940.004 308.168 918.441 287.671 895.961 268.729C853.43 232.963 806.827 211.958 757.446 206.298C695.42 199.187 628.5 215.425 558.543 254.557C523.55 274.13 488.425 298.802 459.637 324.026C437.899 343.072 420.465 364.503 402.007 387.193C399.822 389.88 397.63 392.574 395.422 395.275C391.011 400.678 385.763 407.085 380.269 413.638C370.094 425.807 356.23 441.27 339.18 452.903C320.71 465.505 301.392 471.929 280.12 472.535C262.635 472.972 243.339 470.274 221.128 464.285C202.058 459.143 183.611 452.423 163.199 444.813C144.566 437.78 124.901 430.517 107.258 425.719C54.9978 411.507 -0.204044 399.063 -56.8103 388.724L-56.6073 387.616C0.0328407 397.958 55.2657 410.414 107.554 424.631C125.245 429.443 144.938 436.718 163.594 443.756C197.808 456.516 240.389 472.402 280.089 471.407C325.477 470.111 354.645 442.527 379.404 412.911C384.895 406.363 390.14 399.959 394.548 394.559C396.756 391.858 398.947 389.164 401.13 386.48C419.619 363.753 437.084 342.286 458.893 323.178C487.74 297.903 522.933 273.183 557.993 253.573C628.162 214.323 695.312 198.042 757.576 205.179C781.449 207.916 804.898 214.272 827.268 224.07C851.27 234.581 874.627 249.32 896.689 267.87C919.194 286.831 940.771 307.34 961.637 327.175C963.862 329.292 966.084 331.403 968.304 333.514C1013.11 376.147 1055.43 416.415 1104.72 447.629C1122.64 458.985 1141.48 469.846 1160.71 479.906C1184.71 492.404 1208.55 503.38 1231.57 512.526C1267.74 526.902 1312.76 544.792 1357.27 534.416C1381.38 528.796 1399.77 516.315 1413.48 496.263C1439.9 457.962 1444.6 399.455 1448.39 352.444C1449.74 335.631 1451.02 319.75 1453.13 306.909C1453.57 304.259 1454.01 301.595 1454.45 298.918C1458.4 274.73 1462.49 249.717 1469.6 225.307C1479.75 190.198 1500.06 142.59 1539.2 115.17C1550.12 107.52 1561.51 101.634 1574.03 97.1753C1591.44 90.9206 1610.83 87.9807 1631.68 88.4317C1650.71 88.8433 1671.03 92.0763 1692.07 98.0378C1727.76 108.148 1761.9 126.518 1790.78 151.159C1823.12 178.692 1850.37 213.92 1871.76 255.859C1881.58 275.102 1890.09 295.676 1897.04 317.008C1903.69 337.438 1908.95 358.617 1912.65 379.958L1911.54 380.149C1895.4 287.158 1851.11 204.007 1790.05 152.016C1761.29 127.482 1727.3 109.189 1691.76 99.1174C1647.93 86.6982 1607.35 86.3938 1574.41 98.2323C1561.98 102.658 1550.68 108.498 1539.84 116.089C1500.97 143.32 1480.78 190.683 1470.68 225.617C1463.59 249.962 1459.51 274.939 1455.56 299.095C1455.12 301.773 1454.68 304.439 1454.25 307.089C1452.13 319.883 1450.86 335.744 1449.51 352.532C1445.71 399.677 1441 458.354 1414.41 496.9C1407.8 506.565 1399.9 514.655 1390.92 520.937C1381.26 527.697 1370.02 532.601 1357.53 535.516C1348.5 537.613 1339.16 538.667 1329.36 538.667Z" fill="#A1A1A1"/>
<path d="M1344.63 544.155C1331.16 544.155 1316.9 541.979 1301.53 537.61C1279.78 531.428 1258.9 521.774 1240.48 513.259C1217.2 502.497 1193.34 489.968 1169.56 476.027C1150.43 464.78 1131.69 452.742 1113.85 440.252C1069.92 409.506 1032.38 371.84 992.629 331.961C986.131 325.441 979.41 318.702 972.744 312.075C949.308 288.792 929.296 269.594 907.815 251.586C864.526 215.346 816.555 195.708 765.231 193.216C700.739 190.085 631.659 212.972 559.914 261.243C524.273 285.224 489.179 314.623 461.099 344.027C439.945 366.18 423.407 390.293 405.9 415.822C403.731 418.985 401.554 422.159 399.363 425.335C395.46 431.004 390.293 438.473 384.96 445.963C362.517 477.555 333.196 510.079 285.899 511.742C284.424 511.79 282.944 511.813 281.466 511.813C244.533 511.813 206.828 497.204 168.253 480.892L165.845 479.866C146.738 471.714 128.689 464.016 111.983 458.413C49.0227 437.295 -11.8674 419.47 -57.8812 406.301L-57.5512 405.148C-11.5262 418.323 49.3808 436.151 112.363 457.277C129.115 462.895 147.184 470.604 166.316 478.764L168.722 479.79C208.709 496.699 247.759 511.782 285.857 510.547C332.629 508.901 361.705 476.627 383.982 445.272C389.312 437.788 394.473 430.325 398.376 424.659C400.567 421.479 402.741 418.308 404.91 415.146C422.446 389.578 439.009 365.424 460.23 343.202C488.367 313.735 523.532 284.277 559.243 260.248C592.389 237.946 625.545 220.822 657.791 209.348C694.789 196.181 730.957 190.352 765.287 192.018C816.876 194.521 865.09 214.255 908.582 250.664C930.094 268.701 950.126 287.919 973.584 311.221C980.254 317.847 986.974 324.59 993.475 331.109C1033.19 370.949 1070.69 408.578 1114.54 439.263C1132.35 451.738 1151.07 463.757 1170.16 474.987C1193.91 488.911 1217.73 501.42 1240.98 512.165C1277.46 529.035 1322.88 550.029 1368.07 540.578C1392.78 535.411 1411.28 522.857 1424.64 502.198C1450.73 462.153 1452.29 400.353 1453.56 350.697C1453.97 334.495 1454.36 319.189 1455.6 306.857L1455.63 306.576C1458.42 278.961 1461.3 250.407 1467.92 222.235C1473.64 197.661 1481.62 175.568 1491.62 156.565C1502.91 135.14 1516.81 117.596 1532.97 104.419C1543.78 95.6021 1555.21 88.5976 1567.92 83.0082C1602.26 67.8182 1644.34 65.4731 1689.62 76.232C1707.84 80.5615 1725.81 87.1206 1743.04 95.7233C1760.37 104.377 1776.59 114.927 1791.26 127.076C1824.38 154.476 1851.84 190.037 1872.86 232.771C1891.76 271.181 1904.96 314.998 1911.02 359.48L1909.84 359.64C1896.86 264.436 1853.36 180.005 1790.49 127.997C1761.09 103.638 1726.11 86.1397 1689.34 77.4046C1644.33 66.7077 1602.51 69.0275 1568.41 84.1131C1555.79 89.6603 1544.46 96.6084 1533.73 105.355C1503.57 129.959 1481.22 170.472 1469.09 222.514C1462.49 250.613 1459.61 279.127 1456.82 306.702L1456.8 306.984C1455.55 319.271 1455.17 334.554 1454.75 350.733C1453.49 400.542 1451.91 462.528 1425.65 502.855C1419.21 512.816 1411.36 521.081 1402.33 527.417C1392.59 534.25 1381.15 539.073 1368.32 541.759C1360.67 543.354 1352.8 544.155 1344.63 544.155Z" fill="#A1A1A1"/>
<path d="M286.777 551.058C270.262 551.058 252.278 547.842 231.981 541.274C211.814 534.749 191.87 525.741 173.319 516.98C169.96 515.385 166.627 513.792 163.316 512.211C146.835 504.338 131.268 496.903 116.718 491.11C58.7048 468.022 3.40717 447.271 -50.0715 427.208L-58.9325 423.882L-58.4869 422.695L-49.626 426.021C3.85556 446.09 59.1617 466.841 117.187 489.935C131.775 495.741 147.362 503.185 163.863 511.069C167.171 512.651 170.504 514.243 173.86 515.836C211.941 533.819 252.399 551.247 291.639 549.694C339.875 547.687 368.781 510.131 388.573 477.64C393.644 469.33 398.529 461.049 402.217 454.763C404.253 451.299 406.276 447.838 408.292 444.385C425.015 415.761 440.811 388.724 461.584 363.232C489.005 329.588 524.136 295.386 560.51 266.931C594.256 240.531 628.31 219.673 661.729 204.937C700.06 188.033 737.501 179.261 773.009 178.864C826.44 178.069 876.066 196.441 920.489 233.465C945.115 254.013 967.194 276.241 985.548 295.276C995.534 305.635 1005.52 316.253 1015.18 326.521C1049.37 362.874 1084.72 400.461 1124.37 430.906C1142.08 444.509 1160.67 457.689 1179.62 470.077C1203.07 485.374 1226.88 499.417 1250.4 511.813C1287.17 531.189 1332.92 555.303 1378.88 546.745C1404.18 542.035 1422.81 529.408 1435.81 508.141C1461.55 466.28 1459.81 401.095 1458.42 348.718C1458 333.23 1457.61 318.598 1458.08 306.818C1459.14 280.264 1460.73 249.402 1466.25 219.174C1470.9 193.561 1477.93 170.388 1487.12 150.302C1497.53 127.581 1510.86 108.532 1526.75 93.683C1537.28 83.843 1549.08 75.4912 1561.82 68.856C1580 59.357 1600.4 53.3842 1622.45 51.1067C1643.11 48.9729 1664.89 50.0948 1687.18 54.4384C1705.98 58.1027 1724.51 64.1291 1742.26 72.354C1760.12 80.6297 1776.77 90.9404 1791.74 102.999C1809.01 116.884 1824.88 133.28 1838.92 151.734C1852.23 169.218 1864.02 188.718 1873.97 209.689C1892.59 248.922 1904.84 293.644 1909.4 339.011L1908.13 339.138C1898.35 241.715 1855.63 156.007 1790.95 103.988C1761.32 80.1364 1724.38 62.9818 1686.94 55.6842C1640.63 46.6616 1597.57 51.6056 1562.41 69.9807C1549.77 76.5623 1538.07 84.8492 1527.62 94.6104C1497.68 122.589 1477.45 164.573 1467.5 219.402C1461.99 249.548 1460.4 280.357 1459.35 306.869C1458.88 318.606 1459.27 333.215 1459.68 348.684C1460.37 374.523 1461.15 403.812 1458.54 432.126C1455.5 464.981 1448.42 490.062 1436.9 508.803C1430.63 519.057 1422.84 527.499 1413.75 533.892C1403.94 540.798 1392.28 545.542 1379.12 547.991C1372.48 549.229 1365.84 549.79 1359.24 549.79C1319.74 549.79 1281.46 529.613 1249.81 512.932C1226.26 500.516 1202.41 486.454 1178.93 471.134C1159.95 458.729 1141.34 445.529 1123.6 431.906C1083.87 401.4 1048.48 363.773 1014.26 327.386C1004.6 317.121 994.617 306.506 984.637 296.152C966.309 277.14 944.261 254.943 919.68 234.434C875.497 197.608 826.161 179.343 773.029 180.127C689.589 181.062 611.831 228.385 561.294 267.923C524.993 296.322 489.933 330.45 462.572 364.027C441.86 389.443 426.087 416.437 409.389 445.016C407.373 448.469 405.348 451.93 403.312 455.397C399.62 461.686 394.733 469.973 389.659 478.291C381.351 491.93 368.308 511.785 351.031 526.668C342.641 533.895 333.713 539.575 324.494 543.552C314.214 547.986 303.176 550.477 291.692 550.954C290.065 551.024 288.427 551.058 286.777 551.058Z" fill="#A1A1A1"/>
<path d="M292.079 590.299C275.544 590.299 257.596 586.834 237.407 579.765C216.504 572.448 195.838 562.159 178.381 553.058C173.017 550.256 167.664 547.415 162.486 544.667C148.013 536.986 134.341 529.728 121.45 523.803C75.1574 502.522 29.1662 481.745 -15.3133 461.651C-30.0261 455.004 -45.2381 448.132 -59.9819 441.458L-59.4291 440.237C-44.6853 446.912 -29.4734 453.784 -14.7606 460.43C29.719 480.525 75.7158 501.304 122.012 522.588C134.936 528.53 148.625 535.793 163.115 543.486C168.29 546.234 173.643 549.072 179.001 551.874C215.207 570.742 257.202 590.716 297.414 588.836C346.787 586.474 374.517 545.464 393.164 510.002C397.945 500.918 402.567 491.797 406.058 484.865C407.852 481.308 409.634 477.754 411.414 474.208C427.41 442.314 442.517 412.191 462.941 383.263C489.504 345.639 524.606 306.699 561.776 273.616C613.54 227.742 693.545 171.785 780.728 165.716C836.172 161.753 887.203 178.761 932.396 216.272C952.701 233.134 972.781 252.583 997.508 279.34C1010 292.862 1022.4 306.876 1034.4 320.426C1065.6 355.679 1097.85 392.133 1134.2 422.561C1151.81 437.306 1170.27 451.644 1189.08 465.18C1211.85 481.553 1235.65 497.129 1259.83 511.477C1296.96 533.381 1343.17 560.646 1389.69 552.928C1415.2 548.785 1434.47 535.72 1446.98 514.101C1472.36 470.346 1466.92 398.763 1462.94 346.496C1461.82 331.827 1460.77 317.973 1460.56 306.797C1460.1 281.959 1460.14 249.209 1464.59 216.131C1472.26 158.813 1491.09 114.007 1520.54 82.965C1530.86 72.0285 1542.7 62.5267 1555.72 54.7218C1574.24 43.6048 1595.14 36.1269 1617.84 32.4992C1639.23 29.083 1661.73 29.1365 1684.74 32.6599C1704.15 35.6984 1723.23 41.2061 1741.47 49.0252C1759.88 56.9232 1776.96 66.9859 1792.23 78.9343C1809.88 92.7403 1826 109.193 1840.15 127.839C1853.56 145.509 1865.31 165.285 1875.08 186.622C1893.41 226.682 1904.71 272.305 1907.77 318.56L1906.44 318.647C1899.85 219.001 1857.92 132.013 1791.4 79.9913C1761.24 56.3904 1723.29 40.0505 1684.54 33.9847C1636.76 26.6702 1592.45 34.2383 1556.41 55.8718C1543.5 63.6119 1531.76 73.0376 1521.52 83.8868C1492.26 114.723 1473.55 159.275 1465.92 216.312C1461.48 249.299 1461.44 281.984 1461.9 306.775C1462.11 317.911 1463.16 331.748 1464.28 346.397C1466.33 373.414 1468.66 404.039 1467.33 433.937C1465.78 468.751 1459.5 495.193 1448.14 514.775C1442.03 525.336 1434.31 533.961 1425.17 540.411C1415.27 547.404 1403.41 552.06 1389.92 554.253C1368.99 557.723 1346.47 554.605 1321.06 544.72C1298.98 536.126 1277.82 523.645 1259.15 512.635C1234.94 498.268 1211.1 482.67 1188.3 466.273C1169.47 452.718 1150.98 438.36 1133.34 423.595C1096.92 393.106 1064.62 356.612 1033.39 321.322C1021.41 307.775 1009.01 293.769 996.526 280.259C971.842 253.549 951.799 234.137 931.541 217.315C886.616 180.018 835.91 163.112 780.818 167.049C694.011 173.096 614.271 228.88 562.662 274.616C525.565 307.632 490.536 346.49 464.029 384.035C443.662 412.882 428.577 442.963 412.607 474.808C410.827 478.357 409.045 481.911 407.251 485.469C403.757 492.405 399.132 501.535 394.346 510.628C375.536 546.406 347.526 587.781 297.473 590.174C295.694 590.256 293.892 590.299 292.079 590.299Z" fill="#A1A1A1"/>
<path d="M297.487 629.544C252.308 629.544 204.904 601.811 162.881 577.224C149.967 569.67 137.77 562.533 126.179 556.498L-61.0312 459.036L-60.3798 457.787L126.831 555.249C138.453 561.298 150.664 568.443 163.595 576.009C207.242 601.546 256.716 630.491 303.19 627.983C353.651 625.263 380.234 580.801 397.755 542.373C403.486 529.805 409.019 517.016 414.372 504.648C429.011 470.824 444.147 435.847 464.291 403.293C480.287 377.446 500.158 350.339 521.755 324.906C545.447 297.003 570.814 271.404 597.146 248.821C626.18 223.923 655.701 203.327 684.887 187.607C717.169 170.222 748.972 158.871 779.419 153.868C840.41 143.847 895.883 159.054 944.291 199.071C984.521 232.323 1018.71 273.442 1051.78 313.208C1080.56 347.822 1110.32 383.611 1144.02 414.205C1182.95 449.54 1225.08 482.149 1269.25 511.122C1306.46 535.535 1352.77 565.921 1400.5 559.091C1440.81 553.324 1464.12 526.366 1471.75 476.672C1478.25 434.403 1472.07 384.262 1467.11 343.974C1465.42 330.244 1463.82 317.275 1463.04 306.759C1458.71 248.784 1461.47 200.926 1471.47 160.452C1477.7 135.199 1486.91 112.689 1498.82 93.5475C1512.13 72.1649 1529.22 54.3395 1549.61 40.5674C1567.25 28.6528 1587.13 19.9994 1608.7 14.8468C1629.23 9.94233 1650.85 8.29903 1672.96 9.96206C1716.43 13.2317 1758.96 29.1743 1792.7 54.8497C1810.73 68.5739 1827.11 85.0858 1841.37 103.923C1854.88 121.777 1866.59 141.832 1876.17 163.536C1894.21 204.421 1904.57 250.949 1906.13 298.086L1904.72 298.134C1901.4 197.755 1859.2 107.227 1791.84 55.9744C1720.31 1.54544 1618.77 -4.44427 1550.39 41.7372C1482.67 87.4845 1454.55 174.14 1464.44 306.655C1465.22 317.137 1466.82 330.089 1468.51 343.802C1473.48 384.177 1479.67 434.426 1473.14 476.887C1469.59 500.014 1462.45 518.6 1451.92 532.133C1446 539.741 1438.86 545.959 1430.7 550.61C1422.02 555.559 1411.93 558.882 1400.7 560.489C1396.11 561.146 1391.44 561.476 1386.7 561.476C1369.4 561.476 1350.98 557.104 1330.79 548.248C1308.05 538.269 1286.1 523.871 1268.47 512.304C1224.24 483.288 1182.05 450.636 1143.07 415.25C1109.29 384.591 1079.5 348.76 1050.69 314.11C1017.66 274.395 983.514 233.326 943.386 200.159C895.302 160.415 840.21 145.307 779.639 155.26C657.114 175.391 530.901 298.331 465.481 404.038C445.391 436.5 430.274 471.43 415.655 505.209C410.299 517.583 404.763 530.38 399.027 542.96C387.394 568.472 375.905 586.74 362.87 600.444C354.734 608.996 345.907 615.738 336.634 620.482C326.323 625.756 315.094 628.755 303.254 629.395C301.342 629.493 299.416 629.544 297.487 629.544Z" fill="#A1A1A1"/>
</g>
</svg>
