<svg width="201" height="175" viewBox="0 0 201 175" fill="none" xmlns="http://www.w3.org/2000/svg">
<g clip-path="url(#clip0_545_293)">
<mask id="mask0_545_293" style="mask-type:luminance" maskUnits="userSpaceOnUse" x="61" y="86" width="139" height="88">
<path d="M61.3451 86.9773H199.863V173.955H61.3451V86.9773Z" fill="white"/>
</mask>
<g mask="url(#mask0_545_293)">
<path d="M61.9466 87.3138H199.719V173.478H61.9466V87.3138Z" fill="#63A335"/>
</g>
<path d="M191.234 110.051V150.73C184.64 150.73 179.291 156.683 179.291 164.02H82.3779C82.3779 156.683 77.0258 150.73 70.4354 150.73V110.051C77.0258 110.051 82.3779 104.096 82.3779 96.7583H179.279C179.279 104.106 184.631 110.051 191.234 110.051Z" fill="#8DD361"/>
<path d="M149.681 130.401C149.681 131.087 149.649 131.773 149.59 132.455C149.529 133.142 149.438 133.818 149.317 134.494C149.197 135.167 149.048 135.833 148.869 136.49C148.69 137.147 148.481 137.794 148.246 138.427C148.009 139.061 147.745 139.682 147.454 140.289C147.164 140.894 146.847 141.482 146.504 142.054C146.16 142.625 145.793 143.174 145.403 143.707C145.01 144.239 144.596 144.745 144.159 145.232C143.725 145.716 143.267 146.18 142.789 146.614C142.313 147.049 141.817 147.457 141.304 147.839C140.79 148.221 140.262 148.574 139.719 148.898C139.174 149.221 138.616 149.515 138.047 149.776C137.475 150.041 136.897 150.273 136.304 150.472C135.714 150.672 135.116 150.838 134.511 150.972C133.907 151.106 133.296 151.207 132.68 151.273C132.067 151.341 131.451 151.374 130.835 151.374C130.215 151.374 129.602 151.341 128.986 151.273C128.373 151.207 127.762 151.106 127.158 150.972C126.55 150.838 125.955 150.672 125.362 150.472C124.772 150.273 124.191 150.041 123.622 149.776C123.053 149.515 122.495 149.221 121.95 148.898C121.407 148.574 120.876 148.221 120.362 147.839C119.852 147.457 119.356 147.049 118.877 146.614C118.402 146.18 117.944 145.716 117.507 145.232C117.07 144.745 116.656 144.239 116.266 143.707C115.873 143.174 115.506 142.625 115.163 142.054C114.822 141.482 114.505 140.894 114.212 140.289C113.921 139.682 113.657 139.061 113.423 138.427C113.185 137.794 112.979 137.147 112.8 136.49C112.619 135.833 112.469 135.167 112.349 134.494C112.228 133.818 112.14 133.142 112.079 132.455C112.017 131.773 111.988 131.087 111.988 130.401C111.988 129.715 112.017 129.029 112.079 128.346C112.14 127.663 112.228 126.983 112.349 126.31C112.469 125.634 112.619 124.971 112.8 124.314C112.979 123.655 113.185 123.011 113.423 122.374C113.657 121.74 113.921 121.119 114.212 120.515C114.505 119.907 114.822 119.319 115.163 118.748C115.506 118.179 115.873 117.627 116.266 117.095C116.656 116.565 117.07 116.056 117.507 115.572C117.944 115.086 118.402 114.625 118.877 114.187C119.356 113.753 119.852 113.344 120.362 112.962C120.876 112.58 121.407 112.227 121.95 111.904C122.495 111.58 123.053 111.286 123.622 111.025C124.191 110.76 124.772 110.531 125.362 110.332C125.955 110.133 126.55 109.966 127.158 109.832C127.762 109.695 128.373 109.597 128.986 109.529C129.602 109.46 130.215 109.427 130.835 109.427C131.451 109.427 132.067 109.46 132.68 109.529C133.296 109.597 133.907 109.695 134.511 109.832C135.116 109.966 135.714 110.133 136.304 110.332C136.897 110.531 137.475 110.76 138.047 111.025C138.616 111.286 139.174 111.58 139.719 111.904C140.262 112.227 140.79 112.58 141.304 112.962C141.817 113.344 142.313 113.753 142.789 114.187C143.267 114.625 143.725 115.086 144.159 115.572C144.596 116.056 145.01 116.565 145.403 117.095C145.793 117.627 146.16 118.179 146.504 118.748C146.847 119.319 147.164 119.907 147.454 120.515C147.745 121.119 148.009 121.74 148.246 122.374C148.481 123.011 148.69 123.655 148.869 124.314C149.048 124.971 149.197 125.634 149.317 126.31C149.438 126.983 149.529 127.663 149.59 128.346C149.649 129.029 149.681 129.715 149.681 130.401Z" fill="#63A335"/>
<path d="M124.232 140.041C125.65 141.008 127.718 141.815 129.893 141.815C133.12 141.815 135.004 139.914 135.004 137.173C135.004 134.628 133.701 133.177 130.4 131.76C126.404 130.182 123.942 127.879 123.942 124.043C123.942 119.806 127.099 116.65 131.847 116.65C134.353 116.65 136.163 117.294 137.252 117.986L136.38 120.855C135.585 120.368 133.948 119.564 131.735 119.564C128.39 119.564 127.129 121.786 127.129 123.641C127.129 126.186 128.619 127.441 131.994 128.891C136.134 130.665 138.235 132.89 138.235 136.885C138.235 141.09 135.438 144.716 129.675 144.716C127.316 144.716 124.737 143.945 123.434 142.978L124.232 140.041Z" fill="#1E1E1E"/>
<path d="M129.623 114.726H132.043V146.065H129.623V114.726Z" fill="#1E1E1E"/>
<path d="M29.8515 95.0759L154.852 30.6074L187.407 108.784L62.4073 173.252L29.8515 95.0759Z" fill="#63A335"/>
<path d="M155.746 55.2135L171.113 92.1292C165.133 95.2164 162.525 103.116 165.298 109.783L77.3779 155.141C74.605 148.483 67.507 145.582 61.5123 148.669L46.1455 111.753C52.1256 108.666 54.7341 100.767 51.9613 94.0991L139.881 48.7418C142.654 55.3997 149.764 58.3007 155.746 55.2135Z" fill="#8DD361"/>
<path d="M127.481 101.93C127.481 102.616 127.451 103.302 127.39 103.985C127.328 104.671 127.24 105.347 127.12 106.023C126.999 106.696 126.85 107.359 126.668 108.019C126.489 108.676 126.283 109.323 126.046 109.957C125.811 110.59 125.547 111.211 125.256 111.815C124.963 112.423 124.646 113.011 124.306 113.583C123.962 114.154 123.596 114.703 123.202 115.236C122.812 115.765 122.398 116.275 121.961 116.761C121.524 117.245 121.066 117.706 120.591 118.143C120.113 118.578 119.617 118.986 119.106 119.368C118.593 119.751 118.062 120.103 117.519 120.427C116.973 120.75 116.415 121.044 115.846 121.306C115.277 121.57 114.696 121.802 114.106 122.001C113.513 122.201 112.918 122.367 112.31 122.501C111.706 122.635 111.096 122.737 110.482 122.802C109.866 122.87 109.253 122.903 108.634 122.903C108.018 122.903 107.401 122.87 106.788 122.802C106.172 122.737 105.562 122.635 104.957 122.501C104.353 122.367 103.754 122.201 103.164 122.001C102.572 121.802 101.994 121.57 101.421 121.306C100.852 121.044 100.295 120.75 99.7518 120.427C99.206 120.103 98.6778 119.751 98.1643 119.368C97.6508 118.986 97.1549 118.578 96.6796 118.143C96.2013 117.706 95.7435 117.245 95.3093 116.761C94.8721 116.275 94.4583 115.765 94.0651 115.236C93.6749 114.703 93.3081 114.154 92.9648 113.583C92.6215 113.011 92.3046 112.423 92.0141 111.815C91.7236 111.211 91.4595 110.59 91.2218 109.957C90.9871 109.323 90.7788 108.676 90.5998 108.019C90.4208 107.359 90.2711 106.696 90.1508 106.023C90.0305 105.347 89.9396 104.671 89.8779 103.985C89.8192 103.302 89.787 102.616 89.787 101.93C89.787 101.244 89.8192 100.558 89.8779 99.8749C89.9396 99.1922 90.0305 98.5126 90.1508 97.8397C90.2711 97.1634 90.4208 96.5002 90.5998 95.8403C90.7788 95.1837 90.9871 94.5369 91.2218 93.9031C91.4595 93.2693 91.7236 92.6486 92.0141 92.0442C92.3046 91.4366 92.6215 90.8486 92.9648 90.2768C93.3081 89.7051 93.6749 89.1563 94.0651 88.6238C94.4583 88.0946 94.8721 87.5849 95.3093 87.0982C95.7435 86.6147 96.2013 86.1541 96.6796 85.7163C97.1549 85.2818 97.6508 84.8734 98.1643 84.4912C98.6778 84.109 99.206 83.7562 99.7518 83.4327C100.295 83.1093 100.852 82.8153 101.421 82.554C101.994 82.2893 102.572 82.0607 103.164 81.8581C103.754 81.6588 104.353 81.4922 104.957 81.3583C105.562 81.2243 106.172 81.1263 106.788 81.0577C107.401 80.9891 108.018 80.9565 108.634 80.9565C109.253 80.9565 109.866 80.9891 110.482 81.0577C111.096 81.1263 111.706 81.2243 112.31 81.3583C112.918 81.4922 113.513 81.6588 114.106 81.8581C114.696 82.0607 115.277 82.2893 115.846 82.554C116.415 82.8153 116.973 83.1093 117.519 83.4327C118.062 83.7562 118.593 84.109 119.106 84.4912C119.617 84.8734 120.113 85.2818 120.591 85.7163C121.066 86.1541 121.524 86.6147 121.961 87.0982C122.398 87.5849 122.812 88.0946 123.202 88.6238C123.596 89.1563 123.962 89.7051 124.306 90.2768C124.646 90.8486 124.963 91.4366 125.256 92.0442C125.547 92.6486 125.811 93.2693 126.046 93.9031C126.283 94.5369 126.489 95.1837 126.668 95.8403C126.85 96.5002 126.999 97.1634 127.12 97.8397C127.24 98.5126 127.328 99.1922 127.39 99.8749C127.451 100.558 127.481 101.244 127.481 101.93Z" fill="#63A335"/>
<path d="M106.286 113.769C107.93 113.988 110.116 113.746 112.09 112.733C115.019 111.224 116.014 108.62 114.978 106.121C114.015 103.818 112.287 103.106 108.748 103.37C104.535 103.808 101.421 102.874 99.9718 99.3947C98.3668 95.5496 100.045 91.2177 104.362 88.9832C106.636 87.8103 108.519 87.5457 109.772 87.6601L110.063 90.6656C109.153 90.597 107.372 90.6297 105.365 91.6685C102.331 93.2334 102.02 95.8371 102.724 97.5293C103.687 99.8324 105.509 100.283 109.121 100.019C113.552 99.6952 116.292 100.721 117.803 104.347C119.388 108.16 118.229 112.769 112.991 115.464C110.849 116.569 108.22 117.075 106.668 116.81L106.286 113.769Z" fill="#1E1E1E"/>
<path d="M101.615 88.2906L103.813 87.157L115.653 115.592L113.458 116.725L101.615 88.2906Z" fill="#1E1E1E"/>
<mask id="mask1_545_293" style="mask-type:luminance" maskUnits="userSpaceOnUse" x="0" y="0" width="146" height="175">
<path d="M0.6203 0H145.477V174.376H0.6203V0Z" fill="white"/>
</mask>
<g mask="url(#mask1_545_293)">
<path d="M0.781685 122.786L83.226 -0.055542L145.256 51.5023L62.8151 174.343L0.781685 122.786Z" fill="#63A335"/>
</g>
<path d="M94.517 21.1236L123.807 45.4717C119.863 51.3553 120.94 59.6826 126.228 64.0732L68.2406 150.476C62.953 146.088 55.4707 147.287 51.527 153.171L22.2371 128.823C26.1808 122.939 25.1039 114.612 19.8163 110.221L77.8034 23.8188C83.0822 28.2193 90.5734 27.0073 94.517 21.1236Z" fill="#8DD361"/>
<path d="M91.8674 87.1537C91.8674 87.8397 91.838 88.5258 91.7764 89.2086C91.7177 89.8913 91.6268 90.5709 91.5065 91.2438C91.3861 91.9168 91.2365 92.5832 91.0575 93.2399C90.8785 93.8998 90.6702 94.5434 90.4325 95.1804C90.1978 95.8142 89.9337 96.4349 89.6432 97.0393C89.3527 97.6469 89.0358 98.2349 88.6925 98.8066C88.3492 99.3751 87.9824 99.9272 87.5892 100.46C87.1989 100.989 86.7852 101.499 86.348 101.982C85.9108 102.469 85.456 102.929 84.9777 103.364C84.4994 103.802 84.0065 104.21 83.493 104.592C82.9795 104.975 82.4513 105.327 81.9055 105.651C81.3627 105.974 80.8052 106.268 80.233 106.53C79.6637 106.794 79.0827 107.023 78.493 107.222C77.9032 107.421 77.3046 107.588 76.7001 107.722C76.0927 107.856 75.4824 107.957 74.8691 108.026C74.2559 108.091 73.6397 108.127 73.0205 108.127C72.4043 108.127 71.7881 108.091 71.1749 108.026C70.5616 107.957 69.9513 107.856 69.3439 107.722C68.7394 107.588 68.1408 107.421 67.5511 107.222C66.9613 107.023 66.3803 106.794 65.811 106.53C65.2388 106.268 64.6813 105.974 64.1385 105.651C63.5927 105.327 63.0645 104.975 62.5511 104.592C62.0376 104.21 61.5417 103.802 61.0663 103.364C60.588 102.929 60.1332 102.469 59.696 101.982C59.2588 101.499 58.8451 100.989 58.4548 100.46C58.0616 99.9272 57.6948 99.3751 57.3515 98.8066C57.0082 98.2349 56.6913 97.6469 56.4008 97.0393C56.1103 96.4349 55.8462 95.8142 55.6115 95.1804C55.3738 94.5434 55.1655 93.8998 54.9865 93.2399C54.8075 92.5832 54.6579 91.9168 54.5376 91.2438C54.4172 90.5709 54.3263 89.8913 54.2676 89.2086C54.206 88.5258 54.1766 87.8397 54.1766 87.1537C54.1766 86.4677 54.206 85.7816 54.2676 85.0956C54.3263 84.4128 54.4172 83.7365 54.5376 83.0603C54.6579 82.3873 54.8075 81.7209 54.9865 81.0642C55.1655 80.4076 55.3738 79.7608 55.6115 79.127C55.8462 78.4932 56.1103 77.8725 56.4008 77.2649C56.6913 76.6605 57.0082 76.0725 57.3515 75.5008C57.6948 74.9291 58.0616 74.377 58.4548 73.8477C58.8451 73.3152 59.2588 72.8089 59.696 72.3221C60.1332 71.8353 60.588 71.3747 61.0663 70.9402C61.5417 70.5057 62.0376 70.0973 62.5511 69.7151C63.0645 69.3329 63.5927 68.9801 64.1385 68.6567C64.6813 68.3332 65.2388 68.0392 65.811 67.7746C66.3803 67.5132 66.9613 67.2813 67.5511 67.082C68.1408 66.8827 68.7394 66.7161 69.3439 66.5822C69.9513 66.4482 70.5616 66.347 71.1749 66.2816C71.7881 66.213 72.4043 66.1804 73.0205 66.1804C73.6397 66.1804 74.2559 66.213 74.8691 66.2816C75.4824 66.347 76.0927 66.4482 76.7001 66.5822C77.3046 66.7161 77.9032 66.8827 78.493 67.082C79.0827 67.2813 79.6637 67.5132 80.233 67.7746C80.8052 68.0392 81.3627 68.3332 81.9055 68.6567C82.4513 68.9801 82.9795 69.3329 83.493 69.7151C84.0065 70.0973 84.4994 70.5057 84.9777 70.9402C85.456 71.3747 85.9108 71.8353 86.348 72.3221C86.7852 72.8089 87.1989 73.3152 87.5892 73.8477C87.9824 74.377 88.3492 74.9291 88.6925 75.5008C89.0358 76.0725 89.3527 76.6605 89.6432 77.2649C89.9337 77.8725 90.1978 78.4932 90.4325 79.127C90.6702 79.7608 90.8785 80.4076 91.0575 81.0642C91.2365 81.7209 91.3861 82.3873 91.5065 83.0603C91.6268 83.7365 91.7177 84.4128 91.7764 85.0956C91.838 85.7816 91.8674 86.4677 91.8674 87.1537Z" fill="#63A335"/>
<path d="M76.0135 98.8099C77.554 98.1304 79.3762 96.7714 80.6819 94.8243C82.6156 91.943 82.3779 89.1236 80.4002 87.4869C78.5692 85.9678 76.7383 86.2553 73.7453 88.3625C70.2271 90.976 67.0904 91.8057 64.3292 89.5026C61.2746 86.9675 60.8932 82.2697 63.7394 78.0326C65.2388 75.7981 66.7911 74.5632 67.9296 74.0111L69.473 76.5004C68.6455 76.9251 67.0904 77.8921 65.767 79.8621C63.7688 82.8349 64.608 85.2981 65.9431 86.4154C67.7741 87.9378 69.564 87.3595 72.6273 85.2165C76.3862 82.5932 79.2412 82.0509 82.1197 84.4357C85.142 86.9446 86.0839 91.6097 82.6362 96.7583C81.2277 98.8655 79.1268 100.698 77.6479 101.286L76.0135 98.8099Z" fill="#1E1E1E"/>
<path d="M61.0135 78.8461L62.463 76.6866L85.0247 95.4385L83.5751 97.5979L61.0135 78.8461Z" fill="#1E1E1E"/>
</g>
<defs>
<clipPath id="clip0_545_293">
<rect width="200" height="175" fill="white" transform="translate(0.5)"/>
</clipPath>
</defs>
</svg>
