<svg width="200" height="175" viewBox="0 0 200 175" fill="none" xmlns="http://www.w3.org/2000/svg">
<g filter="url(#filter0_d_545_466)">
<mask id="mask0_545_466" style="mask-type:luminance" maskUnits="userSpaceOnUse" x="2" y="0" width="198" height="175">
<path d="M2.2695 0.0588074H199.153V174.317H2.2695V0.0588074Z" fill="white"/>
</mask>
<g mask="url(#mask0_545_466)">
<path d="M197.491 121.508L185.146 98.1696C186.37 97.2124 187.354 96.1115 188.081 94.8897C189.743 92.0932 189.827 88.9832 188.32 86.1377L181.99 74.1712C179.809 70.0418 174.579 67.216 168.617 66.922L161.964 54.3478L174.158 19.1406C174.774 17.3569 174.415 15.4981 173.138 13.9104C171.862 12.3194 169.827 11.1956 167.411 10.7382L112.261 0.329963C111.498 0.18622 110.718 0.114349 109.938 0.114349C105.665 0.114349 101.937 2.25089 100.878 5.31195L98.688 11.6268L87.0479 9.43148C86.2899 9.28774 85.5053 9.21587 84.7252 9.21587C80.4477 9.21587 76.7199 11.3524 75.6605 14.4102L73.4752 20.7283L61.8307 18.5297C61.0727 18.386 60.2926 18.3141 59.5124 18.3141C55.2349 18.3141 51.5071 20.4507 50.4477 23.5117L34.672 69.0716L13.3599 75.2166C4.4415 77.7876 0.01774 85.2361 3.50178 91.8188L42.7793 166.068L43.0098 166.526C43.0231 166.552 43.0408 166.575 43.0585 166.594L43.1073 166.65C45.8821 171.276 52.1055 174.262 58.9761 174.262C61.1392 174.262 63.2624 173.964 65.2881 173.38L187.633 138.11C191.955 136.866 195.359 134.455 197.221 131.319C199.082 128.182 199.18 124.697 197.491 121.508ZM58.9761 173.569C52.4646 173.566 46.5692 170.73 43.9495 166.343C43.9406 166.323 43.9273 166.307 43.914 166.291L4.37944 91.5673C1.08157 85.3406 5.26597 78.294 13.7013 75.8634L35.2349 69.6563C35.3768 69.6139 35.4832 69.5257 35.5231 69.4178L51.3608 23.6849C52.3138 20.9309 55.6649 19.01 59.5124 19.01C60.2128 19.01 60.9176 19.0753 61.6002 19.2027L73.6968 21.4862C73.8165 21.5091 73.945 21.496 74.0559 21.447C74.1622 21.4013 74.2376 21.3262 74.2686 21.2347L76.5736 14.5833C77.5266 11.8294 80.8777 9.90844 84.7252 9.90844C85.43 9.90844 86.1303 9.97378 86.813 10.1012L98.914 12.3847C99.0337 12.4076 99.1622 12.3945 99.2686 12.3488C99.375 12.2998 99.4548 12.2247 99.4858 12.1365L101.786 5.48183C102.739 2.73112 106.095 0.806927 109.942 0.806927C110.643 0.806927 111.343 0.872265 112.026 0.999672L167.176 11.4112C169.353 11.8196 171.184 12.8323 172.332 14.2632C173.475 15.6908 173.803 17.3635 173.249 18.9675L161.015 54.2824C160.993 54.3543 160.997 54.4262 161.033 54.4948L167.85 67.3793C167.917 67.5067 168.081 67.5949 168.267 67.6015C174.074 67.804 178.998 70.4175 181.117 74.426L187.447 86.3893C188.861 89.0616 188.781 91.9822 187.221 94.612C186.498 95.824 185.505 96.9119 184.264 97.8429C184.136 97.9409 184.096 98.0847 184.162 98.2121L196.618 121.76C198.214 124.778 198.121 128.075 196.361 131.041C194.601 134.004 191.379 136.288 187.292 137.464L64.9468 172.736C63.0319 173.288 61.0195 173.569 58.9761 173.569ZM131.512 29.5718C132.145 29.6894 132.784 29.7482 133.422 29.7482C134.783 29.7482 136.121 29.4803 137.323 28.9543C139.082 28.1833 140.332 26.955 140.842 25.4882C141.888 22.463 139.406 19.3726 135.31 18.6016C133.324 18.2259 131.263 18.4448 129.499 19.2158C127.739 19.9868 126.489 21.2184 125.98 22.6852C124.934 25.7071 127.411 28.7975 131.512 29.5718ZM127.801 23.0282C128.183 21.9207 129.127 20.993 130.457 20.4082C131.365 20.0129 132.376 19.8103 133.4 19.8103C133.883 19.8103 134.366 19.8561 134.845 19.9443C137.934 20.5291 139.809 22.8616 139.02 25.1452C138.635 26.2494 137.691 27.1804 136.361 27.7619C135.031 28.3434 133.475 28.51 131.977 28.2258C128.883 27.641 127.012 25.3085 127.801 23.0282ZM191.946 129.61C193.191 127.516 193.254 125.187 192.128 123.053L183.152 106.089L178.205 96.7355C182.677 95.1053 184.805 91.1785 182.957 87.683L176.627 75.7197C175.683 73.9327 173.848 72.5247 171.467 71.7537C169.348 71.0676 167.017 70.9631 164.823 71.44L160.59 63.4395V63.4362L155.926 54.6189L168.577 18.0887C169.069 16.6709 167.903 15.2204 165.984 14.8578L110.833 4.44949C108.91 4.08687 106.95 4.94606 106.458 6.36388L102.846 16.8015L85.6206 13.551C84.6897 13.3746 83.719 13.4759 82.8945 13.8385C82.07 14.2011 81.4805 14.7794 81.2456 15.4654L77.6286 25.9031L60.4034 22.6525C58.4841 22.2899 56.5204 23.1458 56.0284 24.5669L39.5169 72.2404L15.4566 79.176C12.5665 80.0091 10.2926 81.6229 9.047 83.7202C7.80586 85.8143 7.73937 88.1436 8.86969 90.2736L9.44593 91.368L10.9043 94.1252L11.4805 95.2131L11.7199 95.6607C11.7199 95.6607 11.7199 95.6607 11.7199 95.6639C11.7199 95.6672 11.7199 95.6672 11.7243 95.6737L12.6108 97.3529L16.352 104.422L20.3014 111.891L22.0479 115.184L45.3147 159.169L48.1605 164.553C48.1649 164.556 48.1649 164.556 48.1649 164.556C48.1871 164.602 48.2137 164.647 48.2447 164.69C50.0754 167.989 54.406 170.008 58.9849 170.008C60.3901 170.008 61.813 169.819 63.1959 169.42L185.541 134.151C188.426 133.318 190.7 131.707 191.946 129.61ZM51.4539 165.987C51.8085 166.016 52.1986 166.036 52.6286 166.036H52.695C53.2137 166.032 53.6303 165.722 53.6303 165.337C53.6259 164.954 53.2048 164.647 52.6862 164.647H52.6818C50.8865 164.647 50.0709 164.334 49.9158 164.056V164.053L18.9982 105.605C19.6011 105.749 20.2527 105.857 20.953 105.922C20.9929 105.925 21.0328 105.925 21.0727 105.925C21.5381 105.925 21.9415 105.67 22.0036 105.321C22.0656 104.939 21.7021 104.592 21.188 104.543C19.9025 104.422 18.8387 104.145 18.0053 103.73L15.7713 99.5058C18.8564 101.136 22.961 101.616 26.7509 100.525L149.096 65.2559C154.091 63.8152 159.738 65.6446 161.689 69.3329L163.4 72.5639L164.486 74.6122L169.388 83.8836L132.704 94.4585C132.394 94.5467 132.088 94.6479 131.795 94.759C128.289 96.0854 126.268 98.8393 126.534 101.659C126.6 102.361 126.813 103.073 127.181 103.763C128.125 105.553 129.956 106.961 132.34 107.735C132.651 107.836 132.97 107.925 133.289 108C134.251 108.228 135.248 108.343 136.241 108.343C137.438 108.343 138.639 108.176 139.787 107.846L176.352 97.3039L178.981 102.011L190.377 123.56C191.321 125.347 191.268 127.297 190.226 129.055C189.18 130.809 187.274 132.161 184.858 132.857L62.5089 168.126C58.4929 169.286 54.0514 168.326 51.4539 165.987ZM59.5124 23.956C59.6543 23.956 59.7961 23.9691 59.938 23.9952L77.1631 27.2458L76.547 29.0262L69.8981 27.7685C69.5922 27.7129 69.2686 27.7717 69.0381 27.9253C68.8032 28.0788 68.688 28.3108 68.7323 28.5394C68.8431 29.1242 68.7988 29.709 68.6037 30.2839C67.766 32.6949 64.4326 34.1519 61.1702 33.5378C60.3901 33.3907 59.672 33.1359 59.0293 32.7831C58.781 32.6459 58.453 32.61 58.156 32.6851C57.8591 32.7635 57.6374 32.9432 57.5576 33.1686L38.0231 89.5745L35.1729 90.3977L57.8502 24.9067C58.0497 24.3382 58.75 23.956 59.5124 23.956ZM83.852 15.0309C84.1224 14.9133 84.4193 14.8545 84.7252 14.8545C84.867 14.8545 85.0133 14.8676 85.1552 14.8937L102.376 18.1442L101.76 19.9247L95.1108 18.6702C94.805 18.6114 94.4858 18.6702 94.2509 18.8237C94.016 18.9773 93.9052 19.2092 93.945 19.4379C94.0603 20.0227 94.016 20.6107 93.8165 21.1857C93.4131 22.352 92.4158 23.332 91.0107 23.9462C89.6099 24.5604 87.9654 24.7335 86.383 24.4362C85.6029 24.2892 84.8848 24.0377 84.2465 23.6849C83.9938 23.5444 83.6658 23.5084 83.3688 23.5869C83.0718 23.662 82.8502 23.8449 82.7704 24.0671L62.531 82.5082L59.6809 83.3315L83.063 15.8084C83.1782 15.4817 83.4575 15.204 83.852 15.0309ZM109.942 5.75298C110.084 5.75298 110.226 5.76604 110.368 5.79218L165.519 16.2004C166.436 16.3736 166.99 17.0662 166.755 17.7457L152.722 58.268C151.906 58.1079 151.082 58.0197 150.248 57.9936L161.64 25.0929C161.72 24.8707 161.64 24.6322 161.432 24.4591C161.223 24.286 160.909 24.2043 160.598 24.237C159.809 24.3186 159.012 24.286 158.236 24.139C156.653 23.8417 155.324 23.1034 154.49 22.0678C153.661 21.0322 153.422 19.8201 153.83 18.6506C154.025 18.0756 154.371 17.5464 154.849 17.0727C155.035 16.8865 155.084 16.6447 154.982 16.4259C154.876 16.2102 154.632 16.0436 154.326 15.9848L120.324 9.56869C120.018 9.50988 119.699 9.56869 119.464 9.7255C119.229 9.87904 119.118 10.1077 119.162 10.3364C119.273 10.9212 119.229 11.5092 119.029 12.0842C118.196 14.4951 114.858 15.9522 111.596 15.338C110.82 15.191 110.098 14.9362 109.459 14.5833C109.207 14.4461 108.879 14.4069 108.582 14.4853C108.289 14.5637 108.063 14.7434 107.988 14.9688L87.0434 75.4452L84.1888 76.2685L108.28 6.7069C108.475 6.1352 109.176 5.75298 109.942 5.75298ZM174.876 76.2227L181.206 88.1893C182.779 91.1687 180.78 94.5369 176.746 95.6999L139.1 106.552C137.145 107.118 135.013 107.085 133.094 106.464C131.653 105.994 130.461 105.239 129.632 104.279C129.357 103.962 129.118 103.619 128.927 103.259C128.537 102.515 128.364 101.744 128.395 100.992C128.48 98.7348 130.363 96.6211 133.387 95.7489L170.638 85.0106C170.785 84.9682 170.931 84.9159 171.086 84.8473C172.225 84.3311 172.699 83.289 172.212 82.3677L169.809 77.8333C169.428 77.1081 168.533 76.6213 167.522 76.5429L165.51 72.737C167.234 72.3874 169.056 72.4854 170.714 73.0245C172.633 73.6452 174.113 74.7821 174.876 76.2227ZM26.0638 99.2314C21.0727 100.675 15.4211 98.8459 13.4708 95.1576L12.9211 94.1187C16.0062 95.7456 20.1108 96.2291 23.9007 95.138L146.246 59.8688C148.661 59.1697 151.303 59.2089 153.684 59.9798C156.064 60.7508 157.895 62.1589 158.839 63.9426L159.393 64.9847C156.303 63.3578 152.199 62.871 148.409 63.9622L26.0638 99.2314ZM23.2137 93.8443C21.3786 94.3735 19.4592 94.4585 17.664 94.1742L33.5018 89.6071L33.0142 91.0184L23.2137 93.8443ZM15.0133 93.449C13.7899 92.9557 12.7128 92.2664 11.8617 91.417L35.2083 84.6872L34.078 87.9541L15.0133 93.449ZM70.4211 30.6302C70.5674 30.2055 70.6516 29.7776 70.6693 29.3464L76.0816 30.3689L68.1161 53.371C60.6915 56.628 53.9539 63.8707 50.7979 72.9885C49.2066 77.5785 48.6702 82.1717 49.1933 86.3533L40.1773 88.9538L59.0603 34.4263C59.5833 34.6224 60.1286 34.7726 60.7048 34.8804C64.969 35.6874 69.3307 33.7795 70.4211 30.6302ZM61.4583 71.293C60.727 72.0183 60.1552 72.8089 59.7474 73.6615L57.0656 73.1584C56.7864 73.1029 56.5337 73.1192 56.3076 73.2042C56.086 73.2891 55.9397 73.4263 55.8732 73.619C55.8023 73.8249 55.8378 74.0045 55.9796 74.1581C56.1215 74.3116 56.3298 74.4162 56.6091 74.4684L59.2908 74.9748C59.0293 75.9908 59.0514 76.948 59.3484 77.8431C59.3927 77.9738 59.4504 78.0979 59.508 78.2253L57.5222 83.9522L51.0195 85.8274C50.5984 81.9104 51.1303 77.6275 52.6197 73.3348C55.43 65.2134 61.1126 58.6404 67.4513 55.2919L62.1011 70.7311C61.8794 70.9075 61.6667 71.0938 61.4583 71.293ZM84.2775 25.3281C84.7961 25.5208 85.3458 25.6744 85.9176 25.7822C87.9832 26.1709 90.133 25.9455 91.9681 25.1419C93.8076 24.3382 95.1064 23.0543 95.6383 21.5287C95.7846 21.104 95.8644 20.6761 95.8821 20.2481L101.294 21.2674L93.3289 44.2727C85.9043 47.5298 79.1711 54.7724 76.0107 63.8903C74.1534 69.2512 73.8121 74.4782 74.7296 78.9931L64.6897 81.8875L84.2775 25.3281ZM87.3183 61.6296C87.0966 61.806 86.8794 61.9922 86.6755 62.1948C85.9442 62.92 85.3724 63.7074 84.9601 64.5633L82.2784 64.0569C81.9991 64.0046 81.7465 64.021 81.5248 64.1026C81.2988 64.1876 81.1525 64.3281 81.086 64.5175C81.0151 64.7234 81.0505 64.903 81.1924 65.0566C81.3342 65.2101 81.547 65.3147 81.8263 65.3669L84.5036 65.8733C84.2465 66.8926 84.2642 67.8465 84.5612 68.7416C84.6055 68.8755 84.6676 68.9997 84.7208 69.1238L82.0346 76.8892L76.4805 78.4867C75.7004 74.2332 76.0771 69.3002 77.8325 64.2333C80.6472 56.1119 86.3298 49.5389 92.664 46.1904L87.3183 61.6296ZM109.49 16.2266C110.009 16.4193 110.559 16.5729 111.13 16.6807C115.399 17.4876 119.761 15.5797 120.851 12.4272C120.997 12.0058 121.082 11.5778 121.099 11.1466L152.624 17.0956C152.358 17.4811 152.154 17.8862 152.008 18.3076C151.481 19.8332 151.786 21.4209 152.877 22.7767C153.963 24.1324 155.7 25.0929 157.77 25.4816C158.342 25.5894 158.923 25.6515 159.504 25.6646L148.285 58.0557C147.363 58.1471 146.449 58.317 145.559 58.5751L142.562 59.4375C143.949 53.8381 143.763 48.3694 141.977 43.7794C139.827 38.2453 135.612 34.6289 130.115 33.59C124.623 32.5544 118.573 34.2369 113.09 38.327C107.731 42.3224 103.52 48.1701 101.228 54.7888C99.1844 60.6855 98.883 66.5789 100.324 71.6165L89.1977 74.8213L109.49 16.2266ZM132.943 61.1559L135.155 61.5741L132.292 62.4006C132.544 61.9922 132.766 61.5806 132.943 61.1559ZM136.715 60.6365C136.574 60.4829 136.365 60.3784 136.086 60.3261L133.373 59.8132C133.688 58.3007 133.44 56.9874 132.62 55.8766C131.8 54.7659 130.55 54.0505 128.87 53.7336C127.58 53.4886 126.467 53.5376 125.536 53.8773C124.601 54.2203 123.825 54.7071 123.205 55.3442C122.584 55.9812 121.875 56.8404 121.086 57.9282C120.39 58.8822 119.787 59.6336 119.273 60.1889C118.759 60.7443 118.129 61.1723 117.38 61.4728C116.636 61.7701 115.78 61.8289 114.809 61.646C113.391 61.3781 112.398 60.7835 111.831 59.8655C111.268 58.9442 111.21 57.8335 111.662 56.53C111.981 55.6088 112.451 54.841 113.076 54.2334C113.701 53.6225 114.574 53.0247 115.692 52.4399C115.971 52.306 116.139 52.1426 116.206 51.9531C116.25 51.8257 116.206 51.695 116.068 51.5578C115.931 51.4239 115.745 51.3324 115.505 51.2867C115.164 51.2214 114.814 51.2671 114.464 51.4206C113.48 51.8094 112.62 52.368 111.888 53.0933C111.157 53.8185 110.585 54.6091 110.173 55.4618L107.491 54.9554C107.212 54.9031 106.959 54.9195 106.738 55.0044C106.512 55.0893 106.365 55.2265 106.299 55.416C106.228 55.6218 106.263 55.8048 106.405 55.9583C106.547 56.1119 106.76 56.2131 107.039 56.2687L109.721 56.7718C109.459 57.791 109.477 58.745 109.774 59.6401C110.075 60.5352 110.616 61.2866 111.405 61.891C112.194 62.4986 113.169 62.9102 114.331 63.1291C115.731 63.3937 116.933 63.3447 117.943 62.9854C118.949 62.626 119.783 62.1131 120.434 61.4499C121.09 60.7868 121.831 59.8884 122.66 58.758C123.342 57.8368 123.927 57.1181 124.406 56.5986C124.88 56.0792 125.452 55.6774 126.113 55.3964C126.769 55.1155 127.518 55.0534 128.36 55.2102C129.783 55.4781 130.754 56.0661 131.277 56.9678C131.804 57.8727 131.835 58.99 131.37 60.3261C131.011 61.3683 130.346 62.3385 129.379 63.2402L102.097 71.1036C100.785 66.3241 101.108 60.7378 103.045 55.1318C105.257 48.7483 109.3 43.126 114.424 39.3038C118.488 36.2721 122.819 34.6812 126.893 34.6812C127.828 34.6812 128.75 34.7628 129.654 34.9327C134.477 35.8442 138.209 39.1208 140.173 44.1616C141.968 48.7777 142.066 54.3478 140.492 60.0354L136.844 61.0873C136.875 60.9174 136.84 60.7672 136.715 60.6365ZM154.499 58.7319L155.129 56.9253L156.538 59.5911C155.904 59.2611 155.226 58.9704 154.499 58.7319ZM35.7802 83.0309L10.8865 90.2082C10.7934 90.0645 10.7004 89.9208 10.6206 89.7672C9.672 87.9835 9.72519 86.0332 10.7713 84.2756C11.813 82.518 13.719 81.1688 16.1392 80.4697L38.945 73.8967L35.7802 83.0309ZM115.08 148.319C115.266 148.676 115.027 149.081 114.543 149.218L106.897 151.423C106.782 151.456 106.667 151.472 106.556 151.472C106.179 151.472 105.824 151.302 105.678 151.031C105.492 150.672 105.727 150.27 106.215 150.129L113.861 147.927C114.344 147.787 114.889 147.963 115.08 148.319ZM99.7828 152.73C99.969 153.086 99.7296 153.488 99.2465 153.628L91.6002 155.833C91.4894 155.866 91.3741 155.882 91.2589 155.882C90.8821 155.882 90.5275 155.712 90.3812 155.438C90.195 155.082 90.4344 154.68 90.9176 154.54L98.5638 152.334C99.047 152.197 99.5922 152.37 99.7828 152.73ZM84.4858 157.14C84.6764 157.496 84.4371 157.898 83.9539 158.038L76.3032 160.24C76.1924 160.273 76.0771 160.289 75.9619 160.289C75.5851 160.289 75.2305 160.123 75.0887 159.848C74.8981 159.492 75.1374 159.087 75.6206 158.95L83.2669 156.745C83.75 156.604 84.2952 156.781 84.4858 157.14ZM160.966 135.092C161.152 135.448 160.918 135.85 160.43 135.99L152.784 138.195C152.673 138.228 152.558 138.241 152.442 138.241C152.066 138.241 151.711 138.075 151.565 137.8C151.379 137.444 151.618 137.042 152.101 136.902L159.747 134.697C160.231 134.559 160.776 134.736 160.966 135.092ZM176.263 130.682C176.449 131.038 176.21 131.439 175.727 131.58L168.081 133.785C167.965 133.818 167.85 133.834 167.739 133.834C167.363 133.834 167.008 133.664 166.862 133.39C166.676 133.034 166.91 132.632 167.394 132.491L175.044 130.286C175.527 130.149 176.073 130.325 176.263 130.682ZM68.6569 162.445L61.0062 164.651C60.8954 164.683 60.7802 164.7 60.6649 164.7C60.2881 164.7 59.9335 164.533 59.7917 164.259C59.6011 163.899 59.8404 163.497 60.3236 163.36L67.9743 161.155C68.4575 161.015 69.0027 161.191 69.1888 161.547C69.3794 161.906 69.1401 162.308 68.6569 162.445ZM130.372 143.909C130.563 144.269 130.324 144.67 129.84 144.808L122.19 147.013C122.079 147.045 121.964 147.062 121.848 147.062C121.476 147.062 121.121 146.895 120.975 146.621C120.785 146.261 121.024 145.859 121.507 145.719L129.158 143.517C129.641 143.377 130.186 143.553 130.372 143.909ZM145.669 139.502C145.86 139.858 145.621 140.26 145.137 140.401L137.487 142.606C137.376 142.635 137.261 142.651 137.145 142.651C136.769 142.651 136.414 142.485 136.272 142.21C136.082 141.854 136.321 141.452 136.804 141.312L144.45 139.107C144.934 138.966 145.479 139.143 145.669 139.502ZM174.162 106.735L171.175 101.087C170.984 100.731 171.223 100.329 171.707 100.189C172.19 100.051 172.735 100.224 172.926 100.584L175.913 106.229C176.099 106.585 175.86 106.987 175.377 107.127C175.266 107.16 175.151 107.176 175.035 107.176C174.659 107.176 174.304 107.01 174.162 106.735ZM177.145 112.381C176.959 112.024 177.199 111.619 177.682 111.482C178.165 111.342 178.71 111.518 178.896 111.874L181.884 117.519C182.074 117.879 181.835 118.281 181.352 118.421C181.237 118.45 181.121 118.467 181.011 118.467C180.634 118.467 180.279 118.3 180.133 118.026L177.145 112.381ZM160.98 77.9999L163.967 83.6451C164.153 84.0044 163.914 84.4063 163.431 84.5468C163.32 84.5761 163.205 84.5925 163.09 84.5925C162.713 84.5925 162.358 84.4259 162.216 84.1515L159.229 78.5063C159.038 78.1469 159.277 77.7451 159.761 77.6079C160.244 77.4674 160.789 77.6438 160.98 77.9999ZM28.8076 103.844L36.4539 101.639C36.9371 101.499 37.4823 101.675 37.6729 102.031C37.8591 102.39 37.6241 102.792 37.141 102.929L29.4903 105.135C29.3794 105.167 29.2642 105.184 29.1489 105.184C28.7722 105.184 28.4176 105.017 28.2713 104.743C28.0851 104.383 28.3245 103.981 28.8076 103.844ZM43.5683 100.332C43.3821 99.9762 43.6215 99.5744 44.1046 99.4339L51.7509 97.2288C52.2341 97.0883 52.7793 97.2647 52.9699 97.6241C53.156 97.9801 52.9167 98.382 52.4335 98.5224L44.7872 100.728C44.6764 100.757 44.5612 100.773 44.4459 100.773C44.0692 100.773 43.7146 100.607 43.5683 100.332ZM74.1622 91.5117C73.9716 91.1556 74.211 90.7538 74.6942 90.6133L82.3449 88.4082C82.828 88.271 83.3732 88.4474 83.5594 88.8035C83.75 89.1596 83.5107 89.5614 83.0275 89.7019L75.3768 91.907C75.266 91.9397 75.1507 91.956 75.0355 91.956C74.6631 91.956 74.3085 91.7861 74.1622 91.5117ZM59.3972 95.0236L67.0479 92.8185C67.531 92.6813 68.0763 92.8544 68.2624 93.2138C68.453 93.5699 68.2137 93.9717 67.7305 94.1122L60.0842 96.3173C59.969 96.35 59.8537 96.363 59.7429 96.363C59.3661 96.363 59.0115 96.1964 58.8653 95.922C58.6747 95.5659 58.914 95.1641 59.3972 95.0236ZM151.25 68.5587C151.698 68.4574 152.159 68.4084 152.624 68.4084C154.588 68.4084 156.383 69.31 157.097 70.656L157.992 72.3548C158.183 72.7109 157.943 73.1127 157.46 73.2532C157.345 73.2858 157.23 73.3022 157.119 73.3022C156.742 73.3022 156.387 73.1323 156.241 72.8579L155.346 71.1624C154.911 70.3424 153.821 69.7935 152.629 69.7935C152.345 69.7935 152.066 69.8262 151.791 69.885C151.294 69.9961 150.771 69.7903 150.621 69.4211C150.47 69.0552 150.754 68.6697 151.25 68.5587ZM89.9911 86.2063L97.6374 84.0012C98.1206 83.8607 98.6658 84.0371 98.8564 84.3932C99.047 84.7526 98.8076 85.1544 98.3245 85.2916L90.6738 87.4967C90.563 87.5294 90.4477 87.5457 90.3325 87.5457C89.9557 87.5457 89.6011 87.3791 89.4592 87.1047C89.2686 86.7454 89.508 86.3435 89.9911 86.2063ZM120.581 77.3858L128.231 75.1806C128.715 75.0434 129.26 75.2198 129.45 75.5759C129.637 75.932 129.397 76.3338 128.914 76.4743L121.268 78.6794C121.152 78.7121 121.037 78.7252 120.926 78.7252C120.55 78.7252 120.195 78.5586 120.049 78.2841C119.863 77.9281 120.098 77.5262 120.581 77.3858ZM135.878 72.9755L143.528 70.7703C144.012 70.6331 144.557 70.8095 144.743 71.1656C144.934 71.5217 144.694 71.9235 144.211 72.064L136.56 74.2692C136.449 74.3018 136.334 74.3182 136.219 74.3182C135.847 74.3182 135.488 74.1483 135.346 73.8739C135.155 73.5178 135.395 73.116 135.878 72.9755ZM112.934 79.5909C113.418 79.4504 113.963 79.6268 114.153 79.9862C114.34 80.3423 114.1 80.7441 113.617 80.8846L105.971 83.0897C105.86 83.1191 105.74 83.1355 105.629 83.1355C105.253 83.1355 104.898 82.9688 104.752 82.6944C104.566 82.3383 104.805 81.9365 105.288 81.796L112.934 79.5909ZM186.108 126.167C186.108 127.503 185.062 128.751 183.444 129.342C183.311 129.391 183.169 129.414 183.027 129.414C182.682 129.414 182.349 129.27 182.185 129.029C181.955 128.686 182.145 128.267 182.611 128.097C183.595 127.738 184.229 126.98 184.229 126.167C184.229 125.902 184.162 125.641 184.029 125.389L183.121 123.671C182.93 123.315 183.169 122.913 183.652 122.772C184.136 122.632 184.681 122.808 184.871 123.168L185.78 124.886C185.997 125.298 186.108 125.729 186.108 126.167ZM135.293 96.693C132.199 97.5816 130.665 100.166 131.875 102.449C132.801 104.2 135.08 105.275 137.487 105.275C138.214 105.275 138.954 105.177 139.672 104.971C142.762 104.079 144.295 101.499 143.09 99.215C141.879 96.9315 138.382 95.8011 135.293 96.693ZM133.626 101.943C132.797 100.375 133.848 98.5976 135.975 97.9834C136.467 97.8429 136.977 97.7743 137.478 97.7743C139.131 97.7743 140.7 98.5126 141.339 99.7181C142.168 101.289 141.113 103.067 138.985 103.678C136.862 104.292 134.455 103.514 133.626 101.943Z" fill="black"/>
</g>
</g>
<defs>
<filter id="filter0_d_545_466" x="-1.68884" y="0.114349" width="204.38" height="182.147" filterUnits="userSpaceOnUse" color-interpolation-filters="sRGB">
<feFlood flood-opacity="0" result="BackgroundImageFix"/>
<feColorMatrix in="SourceAlpha" type="matrix" values="0 0 0 0 0 0 0 0 0 0 0 0 0 0 0 0 0 0 127 0" result="hardAlpha"/>
<feOffset dy="4"/>
<feGaussianBlur stdDeviation="2"/>
<feComposite in2="hardAlpha" operator="out"/>
<feColorMatrix type="matrix" values="0 0 0 0 0 0 0 0 0 0 0 0 0 0 0 0 0 0 0.25 0"/>
<feBlend mode="normal" in2="BackgroundImageFix" result="effect1_dropShadow_545_466"/>
<feBlend mode="normal" in="SourceGraphic" in2="effect1_dropShadow_545_466" result="shape"/>
</filter>
</defs>
</svg>
