<svg width="770" height="471" viewBox="0 0 770 471" fill="none" xmlns="http://www.w3.org/2000/svg">
<g clip-path="url(#clip0_526_283)">
<mask id="mask0_526_283" style="mask-type:luminance" maskUnits="userSpaceOnUse" x="213" y="0" width="344" height="411">
<path d="M213.278 0.839844H556.437V410.58H213.278V0.839844Z" fill="white"/>
</mask>
<g mask="url(#mask0_526_283)">
<path d="M384.904 0.839844C290.16 0.839844 213.362 73.3792 213.362 162.867C213.362 247.779 297.116 344.565 347.583 395.167C367.809 415.444 402.005 415.444 422.231 395.167C472.689 344.565 556.443 247.779 556.443 162.867C556.443 73.3792 479.645 0.839844 384.904 0.839844ZM384.904 219.577C351.744 219.577 324.865 194.188 324.865 162.867C324.865 131.548 351.744 106.157 384.904 106.157C418.061 106.157 444.943 131.548 444.943 162.867C444.943 194.188 418.061 219.577 384.904 219.577Z" fill="#EEEEEE"/>
<path d="M384.904 0.839844C290.16 0.839844 213.362 73.3792 213.362 162.867C213.362 247.779 297.116 344.565 347.583 395.167C367.809 415.444 402.005 415.444 422.231 395.167C472.689 344.565 556.443 247.779 556.443 162.867C556.443 73.3792 479.645 0.839844 384.904 0.839844Z" fill="#EEEEEE"/>
</g>
<mask id="mask1_526_283" style="mask-type:luminance" maskUnits="userSpaceOnUse" x="221" y="421" width="328" height="50">
<path d="M221.152 421.459H548.272V470.72H221.152V421.459Z" fill="white"/>
</mask>
<g mask="url(#mask1_526_283)">
<mask id="mask2_526_283" style="mask-type:luminance" maskUnits="userSpaceOnUse" x="-77" y="-47" width="924" height="565">
<path d="M847 -46.2197H-77V517.78H847V-46.2197Z" fill="black" fill-opacity="0.3"/>
</mask>
<g mask="url(#mask2_526_283)">
<mask id="mask3_526_283" style="mask-type:luminance" maskUnits="userSpaceOnUse" x="221" y="421" width="328" height="50">
<path d="M548.272 421.459H221.152V470.78H548.272V421.459Z" fill="white"/>
</mask>
<g mask="url(#mask3_526_283)">
<mask id="mask4_526_283" style="mask-type:luminance" maskUnits="userSpaceOnUse" x="221" y="421" width="327" height="50">
<path d="M221.92 421.991H547.951V470.72H221.92V421.991Z" fill="white"/>
</mask>
<g mask="url(#mask4_526_283)">
<path d="M547.867 446.417C547.867 446.813 547.801 447.213 547.669 447.61C547.54 448.006 547.342 448.403 547.081 448.8C546.82 449.196 546.494 449.59 546.104 449.984C545.711 450.378 545.255 450.769 544.736 451.16C544.214 451.548 543.632 451.936 542.984 452.321C542.333 452.709 541.622 453.092 540.848 453.472C540.074 453.854 539.238 454.231 538.341 454.605C537.441 454.979 536.481 455.35 535.461 455.718C534.441 456.084 533.361 456.449 532.222 456.809C531.079 457.169 529.882 457.523 528.625 457.874C527.365 458.226 526.051 458.571 524.681 458.911C523.31 459.254 521.885 459.589 520.403 459.92C518.922 460.251 517.386 460.574 515.796 460.895C514.206 461.215 512.568 461.529 510.877 461.835C509.185 462.144 507.442 462.444 505.651 462.739C503.861 463.034 502.022 463.323 500.135 463.603C498.249 463.884 496.32 464.159 494.343 464.425C492.366 464.691 490.348 464.952 488.287 465.204C486.223 465.456 484.124 465.703 481.979 465.938C479.837 466.176 477.66 466.405 475.44 466.626C473.223 466.847 470.97 467.06 468.682 467.264C466.396 467.468 464.074 467.663 461.723 467.85C459.371 468.04 456.99 468.219 454.578 468.389C452.169 468.559 449.731 468.72 447.265 468.87C444.802 469.023 442.316 469.168 439.805 469.301C437.291 469.434 434.76 469.559 432.21 469.675C429.657 469.791 427.087 469.896 424.501 469.992C421.913 470.088 419.312 470.176 416.696 470.253C414.081 470.332 411.453 470.4 408.814 470.457C406.177 470.516 403.531 470.564 400.877 470.604C398.222 470.644 395.564 470.672 392.898 470.692C390.234 470.712 387.571 470.72 384.904 470.72C382.237 470.72 379.571 470.712 376.907 470.692C374.244 470.672 371.583 470.644 368.928 470.604C366.277 470.564 363.628 470.516 360.991 470.457C358.352 470.4 355.727 470.332 353.112 470.253C350.496 470.176 347.892 470.088 345.307 469.992C342.718 469.896 340.15 469.791 337.598 469.675C335.045 469.559 332.514 469.434 330.003 469.301C327.492 469.168 325.003 469.023 322.54 468.87C320.074 468.72 317.639 468.559 315.227 468.389C312.815 468.219 310.434 468.04 308.082 467.85C305.73 467.663 303.412 467.468 301.123 467.264C298.835 467.06 296.582 466.847 294.365 466.626C292.148 466.405 289.968 466.176 287.826 465.938C285.684 465.703 283.582 465.456 281.521 465.204C279.457 464.952 277.439 464.691 275.462 464.425C273.488 464.159 271.556 463.884 269.67 463.603C267.783 463.323 265.947 463.034 264.154 462.739C262.363 462.444 260.623 462.144 258.931 461.835C257.24 461.529 255.599 461.215 254.009 460.895C252.419 460.574 250.886 460.251 249.405 459.92C247.923 459.589 246.495 459.254 245.124 458.911C243.754 458.571 242.44 458.226 241.183 457.874C239.926 457.523 238.726 457.169 237.586 456.809C236.447 456.449 235.364 456.084 234.344 455.718C233.324 455.35 232.364 454.979 231.464 454.605C230.567 454.231 229.731 453.854 228.957 453.472C228.183 453.092 227.472 452.709 226.824 452.321C226.176 451.936 225.591 451.548 225.069 451.16C224.55 450.769 224.094 450.378 223.704 449.984C223.311 449.59 222.985 449.196 222.724 448.8C222.463 448.403 222.268 448.006 222.136 447.61C222.004 447.213 221.941 446.813 221.941 446.417C221.941 446.02 222.004 445.621 222.136 445.224C222.268 444.827 222.463 444.431 222.724 444.034C222.985 443.64 223.311 443.244 223.704 442.85C224.094 442.456 224.55 442.065 225.069 441.677C225.591 441.286 226.176 440.898 226.824 440.512C227.472 440.124 228.183 439.742 228.957 439.362C229.731 438.982 230.567 438.603 231.464 438.229C232.364 437.855 233.324 437.484 234.344 437.115C235.364 436.75 236.447 436.384 237.586 436.024C238.726 435.665 239.926 435.31 241.183 434.959C242.44 434.608 243.754 434.262 245.124 433.922C246.495 433.579 247.923 433.245 249.405 432.914C250.886 432.582 252.419 432.259 254.009 431.939C255.599 431.619 257.24 431.307 258.931 430.998C260.623 430.692 262.363 430.389 264.154 430.095C265.947 429.8 267.783 429.514 269.67 429.23C271.556 428.95 273.488 428.675 275.462 428.409C277.439 428.142 279.457 427.882 281.521 427.63C283.582 427.377 285.684 427.134 287.826 426.896C289.968 426.658 292.148 426.428 294.365 426.207C296.582 425.986 298.835 425.774 301.123 425.57C303.412 425.366 305.73 425.17 308.082 424.983C310.434 424.794 312.815 424.615 315.227 424.445C317.639 424.275 320.074 424.114 322.54 423.963C325.003 423.81 327.492 423.669 330.003 423.533C332.514 423.4 335.045 423.275 337.598 423.159C340.15 423.043 342.718 422.938 345.307 422.841C347.892 422.745 350.496 422.657 353.112 422.581C355.727 422.501 358.352 422.433 360.991 422.377C363.628 422.317 366.277 422.269 368.928 422.229C371.583 422.19 374.244 422.161 376.907 422.142C379.571 422.122 382.237 422.113 384.904 422.113C387.571 422.113 390.234 422.122 392.898 422.142C395.564 422.161 398.222 422.19 400.877 422.229C403.531 422.269 406.177 422.317 408.814 422.377C411.453 422.433 414.081 422.501 416.696 422.581C419.312 422.657 421.913 422.745 424.501 422.841C427.087 422.938 429.657 423.043 432.21 423.159C434.76 423.275 437.291 423.4 439.805 423.533C442.316 423.669 444.802 423.81 447.265 423.963C449.731 424.114 452.169 424.275 454.578 424.445C456.99 424.615 459.371 424.794 461.723 424.983C464.074 425.17 466.396 425.366 468.682 425.57C470.97 425.774 473.223 425.986 475.44 426.207C477.66 426.428 479.837 426.658 481.979 426.896C484.124 427.134 486.223 427.377 488.287 427.63C490.348 427.882 492.366 428.142 494.343 428.409C496.32 428.675 498.249 428.95 500.135 429.23C502.022 429.514 503.861 429.8 505.651 430.095C507.442 430.389 509.185 430.692 510.877 430.998C512.568 431.307 514.206 431.619 515.796 431.939C517.386 432.259 518.922 432.582 520.403 432.914C521.885 433.245 523.31 433.579 524.681 433.922C526.051 434.262 527.365 434.608 528.625 434.959C529.882 435.31 531.079 435.665 532.222 436.024C533.361 436.384 534.441 436.75 535.461 437.115C536.481 437.484 537.441 437.855 538.341 438.229C539.238 438.603 540.074 438.982 540.848 439.362C541.622 439.742 542.333 440.124 542.984 440.512C543.632 440.898 544.214 441.286 544.736 441.677C545.255 442.065 545.711 442.456 546.104 442.85C546.494 443.244 546.82 443.64 547.081 444.034C547.342 444.431 547.54 444.827 547.669 445.224C547.801 445.621 547.867 446.02 547.867 446.417Z" fill="black"/>
</g>
</g>
</g>
</g>
<mask id="mask5_526_283" style="mask-type:luminance" maskUnits="userSpaceOnUse" x="375" y="121" width="182" height="294">
<path d="M375.497 121.907H556.437V414.207H375.497V121.907Z" fill="white"/>
</mask>
<g mask="url(#mask5_526_283)">
<mask id="mask6_526_283" style="mask-type:luminance" maskUnits="userSpaceOnUse" x="-77" y="-47" width="924" height="565">
<path d="M847 -46.2197H-77V517.78H847V-46.2197Z" fill="black" fill-opacity="0.15"/>
</mask>
<g mask="url(#mask6_526_283)">
<mask id="mask7_526_283" style="mask-type:luminance" maskUnits="userSpaceOnUse" x="375" y="121" width="182" height="294">
<path d="M556.719 121.907H375.497V414.207H556.719V121.907Z" fill="white"/>
</mask>
<g mask="url(#mask7_526_283)">
<mask id="mask8_526_283" style="mask-type:luminance" maskUnits="userSpaceOnUse" x="379" y="122" width="178" height="289">
<path d="M379.337 122.633H556.437V410.58H379.337V122.633Z" fill="white"/>
</mask>
<g mask="url(#mask8_526_283)">
<path d="M556.443 162.867C556.443 149.038 554.409 135.696 550.963 122.879C529.897 125.446 513.558 142.275 513.558 162.867C513.558 214.741 468.889 289.283 391.011 367.396C379.175 379.264 376.505 396.077 382.543 410.268C396.929 410.892 411.525 405.894 422.222 395.167C472.689 344.566 556.443 247.779 556.443 162.867Z" fill="black"/>
</g>
</g>
</g>
</g>
<mask id="mask9_526_283" style="mask-type:luminance" maskUnits="userSpaceOnUse" x="213" y="0" width="216" height="204">
<path d="M213.278 0.839844H428.482V203.867H213.278V0.839844Z" fill="white"/>
</mask>
<g mask="url(#mask9_526_283)">
<mask id="mask10_526_283" style="mask-type:luminance" maskUnits="userSpaceOnUse" x="-77" y="-47" width="924" height="565">
<path d="M847 -46.2197H-77V517.78H847V-46.2197Z" fill="black" fill-opacity="0.3"/>
</mask>
<g mask="url(#mask10_526_283)">
<mask id="mask11_526_283" style="mask-type:luminance" maskUnits="userSpaceOnUse" x="212" y="0" width="217" height="204">
<path d="M428.482 0.780273H212.705V203.867H428.482V0.780273Z" fill="white"/>
</mask>
<g mask="url(#mask11_526_283)">
<mask id="mask12_526_283" style="mask-type:luminance" maskUnits="userSpaceOnUse" x="213" y="0" width="215" height="204">
<path d="M213.359 0.839844H427.714V203.141H213.359V0.839844Z" fill="white"/>
</mask>
<g mask="url(#mask12_526_283)">
<path d="M256.246 162.867C256.246 95.8609 313.961 41.3466 384.904 41.3466C406.714 41.3466 424.519 25.914 427.24 6.01617C413.67 2.75794 399.545 0.839844 384.904 0.839844C290.16 0.839844 213.362 73.3792 213.362 162.867C213.362 175.985 215.368 189.375 218.938 202.847C239.959 200.24 256.246 183.436 256.246 162.867Z" fill="white"/>
</g>
</g>
</g>
</g>
<path d="M258.46 124.612C256.787 124.612 255.08 124.304 253.442 123.649C246.897 121.031 243.847 113.903 246.615 107.721C254.189 90.8375 265.02 75.6797 278.806 62.6609C292.598 49.6337 308.643 39.4029 326.512 32.2575C333.054 29.6396 340.603 32.5153 343.372 38.7059C346.144 44.8852 343.09 52.0165 336.545 54.6315C321.751 60.553 308.448 69.0357 297.005 79.8445C285.573 90.642 276.593 103.207 270.324 117.192C268.23 121.842 263.47 124.612 258.46 124.612Z" fill="white"/>
<path d="M487.828 162.867C487.828 164.46 487.786 166.049 487.702 167.638C487.621 169.228 487.498 170.814 487.333 172.395C487.165 173.979 486.961 175.557 486.712 177.133C486.466 178.705 486.178 180.275 485.848 181.833C485.521 183.394 485.152 184.947 484.742 186.491C484.334 188.032 483.884 189.565 483.395 191.089C482.906 192.611 482.378 194.121 481.811 195.619C481.244 197.118 480.638 198.6 479.993 200.07C479.348 201.541 478.664 202.994 477.944 204.434C477.225 205.873 476.469 207.292 475.674 208.695C474.879 210.1 474.051 211.483 473.184 212.848C472.317 214.211 471.417 215.557 470.482 216.88C469.546 218.2 468.577 219.501 467.572 220.779C466.57 222.059 465.532 223.312 464.464 224.541C463.397 225.771 462.296 226.975 461.165 228.154C460.034 229.335 458.873 230.485 457.682 231.61C456.492 232.735 455.271 233.831 454.023 234.899C452.775 235.97 451.5 237.007 450.199 238.019C448.897 239.027 447.568 240.005 446.215 240.954C444.862 241.9 443.486 242.816 442.085 243.699C440.684 244.583 439.262 245.436 437.816 246.252C436.371 247.071 434.907 247.856 433.422 248.607C431.934 249.355 430.431 250.071 428.908 250.751C427.387 251.431 425.845 252.075 424.291 252.684C422.735 253.293 421.163 253.865 419.576 254.401C417.992 254.939 416.393 255.438 414.78 255.899C413.169 256.361 411.546 256.783 409.911 257.172C408.277 257.557 406.636 257.905 404.983 258.217C403.33 258.526 401.672 258.798 400.004 259.033C398.339 259.265 396.668 259.461 394.992 259.617C393.315 259.772 391.635 259.889 389.952 259.968C388.27 260.044 386.587 260.084 384.904 260.084C383.218 260.084 381.536 260.044 379.853 259.968C378.17 259.889 376.49 259.772 374.813 259.617C373.14 259.461 371.466 259.265 369.801 259.033C368.133 258.798 366.475 258.526 364.822 258.217C363.172 257.905 361.528 257.557 359.894 257.172C358.259 256.783 356.636 256.361 355.025 255.899C353.415 255.438 351.816 254.939 350.229 254.401C348.642 253.865 347.071 253.293 345.517 252.684C343.96 252.075 342.421 251.431 340.897 250.751C339.374 250.071 337.871 249.355 336.386 248.607C334.898 247.856 333.435 247.071 331.989 246.252C330.546 245.436 329.121 244.583 327.72 243.699C326.32 242.816 324.943 241.9 323.59 240.954C322.237 240.005 320.911 239.027 319.61 238.019C318.308 237.007 317.03 235.97 315.782 234.899C314.534 233.831 313.316 232.735 312.126 231.61C310.935 230.485 309.771 229.335 308.64 228.154C307.509 226.975 306.411 225.771 305.341 224.541C304.273 223.312 303.238 222.059 302.233 220.779C301.231 219.501 300.259 218.2 299.323 216.88C298.388 215.557 297.488 214.211 296.621 212.848C295.757 211.483 294.926 210.097 294.131 208.695C293.336 207.292 292.58 205.873 291.861 204.434C291.141 202.994 290.457 201.541 289.812 200.07C289.17 198.6 288.564 197.118 287.994 195.619C287.427 194.121 286.899 192.611 286.41 191.089C285.921 189.565 285.471 188.032 285.064 186.491C284.653 184.947 284.284 183.394 283.957 181.833C283.627 180.275 283.339 178.705 283.093 177.133C282.847 175.557 282.64 173.979 282.475 172.395C282.31 170.814 282.184 169.228 282.103 167.638C282.019 166.049 281.98 164.46 281.98 162.867C281.98 161.278 282.019 159.686 282.103 158.099C282.184 156.509 282.31 154.923 282.475 153.339C282.64 151.755 282.847 150.177 283.093 148.602C283.339 147.029 283.627 145.463 283.957 143.902C284.284 142.34 284.653 140.788 285.064 139.247C285.471 137.702 285.921 136.17 286.41 134.648C286.899 133.124 287.427 131.614 287.994 130.115C288.564 128.619 289.17 127.134 289.812 125.664C290.457 124.194 291.141 122.74 291.861 121.301C292.58 119.864 293.336 118.442 294.131 117.04C294.926 115.637 295.757 114.252 296.621 112.889C297.488 111.523 298.388 110.18 299.323 108.857C300.259 107.534 301.231 106.234 302.233 104.956C303.238 103.678 304.273 102.423 305.341 101.193C306.411 99.9637 307.509 98.7596 308.64 97.581C309.771 96.4023 310.935 95.2492 312.126 94.1244C313.316 92.9996 314.534 91.9032 315.782 90.835C317.03 89.7669 318.308 88.7271 319.61 87.7185C320.911 86.7098 322.237 85.7295 323.59 84.7832C324.943 83.8341 326.32 82.919 327.72 82.035C329.121 81.151 330.546 80.3011 331.989 79.4823C333.435 78.6634 334.898 77.8786 336.386 77.1307C337.871 76.3799 339.374 75.6659 340.897 74.9831C342.421 74.3031 343.96 73.66 345.517 73.0508C347.071 72.4417 348.642 71.8693 350.229 71.3339C351.816 70.7984 353.415 70.2997 355.025 69.8379C356.636 69.3761 358.259 68.9511 359.894 68.563C361.528 68.1776 363.172 67.8291 364.822 67.5175C366.475 67.2087 368.133 66.9367 369.801 66.7015C371.466 66.4692 373.14 66.2737 374.813 66.1179C376.49 65.962 378.17 65.8459 379.853 65.7666C381.536 65.6901 383.218 65.6504 384.904 65.6504C386.587 65.6504 388.27 65.6901 389.952 65.7666C391.635 65.8459 393.315 65.962 394.992 66.1179C396.668 66.2737 398.339 66.4692 400.004 66.7015C401.672 66.9367 403.33 67.2087 404.983 67.5175C406.636 67.8291 408.277 68.1776 409.911 68.563C411.546 68.9511 413.169 69.3761 414.78 69.8379C416.393 70.2997 417.992 70.7984 419.576 71.3339C421.163 71.8693 422.735 72.4417 424.291 73.0508C425.845 73.66 427.387 74.3031 428.908 74.9859C430.431 75.6659 431.934 76.3799 433.422 77.1307C434.907 77.8786 436.371 78.6634 437.816 79.4823C439.262 80.3011 440.684 81.151 442.085 82.035C443.486 82.919 444.862 83.8341 446.215 84.7832C447.568 85.7295 448.897 86.7098 450.199 87.7185C451.5 88.7271 452.775 89.7669 454.023 90.835C455.271 91.9032 456.492 92.9996 457.682 94.1244C458.873 95.2492 460.034 96.4023 461.165 97.581C462.296 98.7596 463.397 99.9637 464.464 101.193C465.532 102.423 466.57 103.678 467.572 104.956C468.577 106.234 469.546 107.534 470.482 108.857C471.417 110.18 472.317 111.523 473.184 112.889C474.051 114.252 474.879 115.637 475.674 117.04C476.469 118.442 477.225 119.864 477.944 121.301C478.664 122.74 479.348 124.194 479.993 125.664C480.638 127.134 481.244 128.619 481.811 130.115C482.378 131.614 482.906 133.124 483.395 134.648C483.884 136.17 484.334 137.702 484.742 139.247C485.152 140.788 485.521 142.34 485.848 143.902C486.178 145.463 486.466 147.029 486.712 148.602C486.961 150.177 487.165 151.755 487.333 153.339C487.498 154.923 487.621 156.509 487.702 158.099C487.786 159.686 487.828 161.278 487.828 162.867Z" fill="#F6C90E"/>
<path d="M444.943 162.867C444.943 163.797 444.919 164.723 444.868 165.65C444.82 166.576 444.748 167.502 444.652 168.426C444.556 169.35 444.436 170.271 444.292 171.189C444.148 172.106 443.98 173.022 443.788 173.931C443.596 174.841 443.381 175.747 443.144 176.648C442.904 177.546 442.643 178.442 442.358 179.331C442.073 180.218 441.764 181.099 441.434 181.972C441.101 182.847 440.747 183.711 440.372 184.57C439.997 185.428 439.598 186.275 439.178 187.114C438.758 187.953 438.317 188.783 437.852 189.602C437.39 190.421 436.904 191.225 436.401 192.021C435.897 192.817 435.369 193.602 434.823 194.373C434.277 195.146 433.713 195.906 433.128 196.651C432.54 197.396 431.937 198.127 431.313 198.844C430.689 199.561 430.047 200.263 429.388 200.952C428.731 201.64 428.053 202.312 427.357 202.969C426.661 203.623 425.95 204.264 425.224 204.887C424.495 205.51 423.751 206.117 422.992 206.706C422.231 207.295 421.457 207.865 420.668 208.417C419.879 208.97 419.075 209.505 418.259 210.021C417.443 210.536 416.612 211.032 415.77 211.508C414.927 211.987 414.072 212.443 413.205 212.882C412.338 213.319 411.462 213.735 410.574 214.132C409.683 214.529 408.787 214.905 407.878 215.262C406.972 215.616 406.054 215.951 405.13 216.262C404.203 216.574 403.27 216.866 402.331 217.135C401.39 217.404 400.445 217.654 399.491 217.877C398.537 218.104 397.58 218.308 396.617 218.489C395.651 218.668 394.686 218.827 393.714 218.963C392.742 219.101 391.767 219.215 390.789 219.305C389.811 219.396 388.83 219.464 387.85 219.509C386.869 219.555 385.885 219.577 384.904 219.577C383.92 219.577 382.939 219.555 381.958 219.509C380.975 219.464 379.997 219.396 379.019 219.305C378.041 219.215 377.066 219.101 376.094 218.963C375.122 218.827 374.154 218.668 373.191 218.489C372.225 218.308 371.268 218.104 370.314 217.877C369.36 217.654 368.415 217.404 367.474 217.135C366.535 216.866 365.602 216.574 364.675 216.262C363.751 215.951 362.833 215.616 361.927 215.262C361.018 214.905 360.122 214.529 359.234 214.132C358.346 213.735 357.467 213.319 356.6 212.882C355.733 212.443 354.878 211.987 354.036 211.508C353.193 211.032 352.365 210.536 351.546 210.021C350.73 209.505 349.926 208.97 349.137 208.417C348.348 207.865 347.574 207.295 346.816 206.706C346.054 206.117 345.31 205.51 344.584 204.887C343.855 204.264 343.144 203.623 342.448 202.969C341.755 202.312 341.077 201.64 340.417 200.952C339.758 200.263 339.116 199.561 338.492 198.844C337.868 198.127 337.265 197.396 336.68 196.651C336.095 195.906 335.528 195.146 334.982 194.373C334.436 193.602 333.911 192.817 333.405 192.021C332.901 191.225 332.418 190.421 331.953 189.602C331.491 188.783 331.047 187.953 330.627 187.114C330.207 186.275 329.811 185.428 329.433 184.57C329.058 183.711 328.704 182.847 328.374 181.972C328.041 181.099 327.735 180.218 327.45 179.331C327.162 178.442 326.901 177.546 326.664 176.648C326.425 175.747 326.209 174.841 326.017 173.931C325.825 173.022 325.657 172.106 325.513 171.189C325.369 170.271 325.249 169.35 325.153 168.426C325.057 167.502 324.985 166.576 324.937 165.65C324.889 164.723 324.865 163.797 324.865 162.867C324.865 161.941 324.889 161.012 324.937 160.085C324.985 159.159 325.057 158.232 325.153 157.308C325.249 156.385 325.369 155.464 325.513 154.546C325.657 153.628 325.825 152.716 326.017 151.804C326.209 150.894 326.425 149.987 326.664 149.089C326.901 148.188 327.162 147.293 327.45 146.406C327.735 145.517 328.041 144.635 328.374 143.763C328.704 142.89 329.058 142.023 329.433 141.165C329.811 140.309 330.207 139.459 330.627 138.62C331.047 137.782 331.491 136.955 331.953 136.136C332.418 135.317 332.901 134.509 333.405 133.713C333.911 132.917 334.436 132.132 334.982 131.362C335.528 130.591 336.095 129.832 336.68 129.087C337.265 128.341 337.868 127.608 338.492 126.891C339.116 126.174 339.758 125.471 340.417 124.783C341.077 124.097 341.755 123.423 342.448 122.768C343.144 122.111 343.855 121.471 344.584 120.848C345.31 120.224 346.054 119.618 346.816 119.031C347.574 118.442 348.348 117.87 349.137 117.317C349.926 116.765 350.73 116.229 351.546 115.714C352.365 115.198 353.193 114.702 354.036 114.226C354.878 113.747 355.733 113.291 356.6 112.855C357.467 112.416 358.346 111.999 359.234 111.603C360.122 111.206 361.018 110.829 361.927 110.475C362.833 110.118 363.751 109.787 364.675 109.472C365.602 109.16 366.535 108.869 367.474 108.599C368.415 108.33 369.36 108.084 370.314 107.857C371.268 107.631 372.225 107.429 373.191 107.248C374.154 107.067 375.122 106.908 376.094 106.772C377.066 106.636 378.041 106.523 379.019 106.432C379.997 106.339 380.975 106.271 381.958 106.225C382.939 106.18 383.92 106.157 384.904 106.157C385.885 106.157 386.869 106.18 387.85 106.225C388.83 106.271 389.811 106.339 390.789 106.432C391.767 106.523 392.742 106.636 393.714 106.772C394.686 106.908 395.651 107.067 396.617 107.248C397.58 107.429 398.537 107.631 399.491 107.857C400.445 108.084 401.39 108.33 402.331 108.599C403.27 108.869 404.203 109.16 405.13 109.472C406.054 109.787 406.972 110.118 407.878 110.475C408.787 110.829 409.683 111.206 410.574 111.603C411.462 111.999 412.338 112.416 413.205 112.855C414.072 113.291 414.927 113.747 415.77 114.226C416.612 114.702 417.443 115.198 418.259 115.714C419.075 116.229 419.879 116.765 420.668 117.317C421.457 117.87 422.231 118.442 422.992 119.031C423.751 119.618 424.495 120.224 425.224 120.848C425.95 121.471 426.661 122.111 427.357 122.768C428.053 123.423 428.731 124.097 429.388 124.783C430.047 125.471 430.689 126.174 431.313 126.891C431.937 127.608 432.54 128.341 433.128 129.087C433.713 129.832 434.277 130.591 434.823 131.362C435.369 132.132 435.897 132.917 436.401 133.713C436.904 134.509 437.39 135.317 437.852 136.136C438.317 136.955 438.758 137.782 439.178 138.62C439.598 139.459 439.997 140.309 440.372 141.165C440.747 142.023 441.101 142.89 441.434 143.763C441.764 144.635 442.073 145.517 442.358 146.406C442.643 147.293 442.904 148.188 443.144 149.089C443.381 149.987 443.596 150.894 443.788 151.804C443.98 152.716 444.148 153.628 444.292 154.546C444.436 155.464 444.556 156.385 444.652 157.308C444.748 158.232 444.82 159.159 444.868 160.085C444.919 161.012 444.943 161.941 444.943 162.867Z" fill="black"/>
<path d="M376.325 130.461C376.325 131.257 376.283 132.053 376.202 132.843C376.118 133.637 375.995 134.422 375.83 135.204C375.668 135.986 375.461 136.756 375.218 137.518C374.972 138.278 374.691 139.028 374.367 139.762C374.046 140.499 373.686 141.216 373.287 141.918C372.891 142.621 372.459 143.304 371.991 143.964C371.52 144.627 371.019 145.264 370.485 145.879C369.951 146.497 369.384 147.086 368.79 147.647C368.193 148.211 367.57 148.744 366.919 149.251C366.268 149.755 365.59 150.228 364.891 150.67C364.189 151.112 363.466 151.52 362.725 151.897C361.981 152.271 361.219 152.611 360.443 152.917C359.663 153.22 358.871 153.489 358.064 153.719C357.257 153.951 356.441 154.144 355.613 154.3C354.788 154.455 353.955 154.572 353.118 154.648C352.278 154.727 351.438 154.767 350.595 154.767C349.752 154.767 348.912 154.727 348.072 154.648C347.235 154.572 346.402 154.455 345.574 154.3C344.749 154.144 343.933 153.951 343.126 153.719C342.319 153.489 341.527 153.22 340.747 152.917C339.971 152.611 339.209 152.271 338.465 151.897C337.721 151.52 337.001 151.112 336.299 150.67C335.6 150.228 334.922 149.755 334.271 149.251C333.62 148.744 332.997 148.211 332.4 147.647C331.806 147.086 331.239 146.497 330.705 145.879C330.171 145.264 329.667 144.627 329.199 143.964C328.731 143.304 328.299 142.621 327.903 141.918C327.504 141.216 327.144 140.499 326.823 139.762C326.5 139.028 326.218 138.278 325.972 137.518C325.726 136.756 325.522 135.986 325.357 135.204C325.195 134.422 325.072 133.637 324.988 132.843C324.904 132.053 324.865 131.257 324.865 130.461C324.865 129.667 324.904 128.871 324.988 128.081C325.072 127.288 325.195 126.5 325.357 125.721C325.522 124.939 325.726 124.168 325.972 123.406C326.218 122.644 326.5 121.896 326.823 121.162C327.144 120.425 327.504 119.706 327.903 119.006C328.299 118.303 328.731 117.621 329.199 116.96C329.667 116.297 330.171 115.66 330.705 115.042C331.239 114.427 331.806 113.838 332.4 113.277C332.997 112.713 333.62 112.181 334.271 111.674C334.922 111.169 335.597 110.696 336.299 110.254C337.001 109.812 337.721 109.404 338.465 109.027C339.209 108.653 339.971 108.313 340.747 108.007C341.527 107.704 342.319 107.435 343.126 107.206C343.933 106.973 344.749 106.781 345.574 106.625C346.402 106.469 347.235 106.353 348.072 106.276C348.912 106.197 349.752 106.157 350.595 106.157C351.438 106.157 352.278 106.197 353.118 106.276C353.955 106.353 354.788 106.469 355.613 106.625C356.441 106.781 357.257 106.973 358.064 107.206C358.871 107.435 359.663 107.704 360.443 108.007C361.219 108.313 361.981 108.653 362.725 109.027C363.466 109.404 364.189 109.812 364.891 110.254C365.59 110.696 366.268 111.169 366.919 111.674C367.57 112.181 368.193 112.713 368.79 113.277C369.384 113.838 369.951 114.427 370.485 115.042C371.019 115.66 371.52 116.297 371.991 116.96C372.459 117.621 372.891 118.303 373.287 119.006C373.686 119.706 374.046 120.425 374.367 121.162C374.691 121.896 374.972 122.644 375.218 123.406C375.461 124.168 375.668 124.939 375.83 125.721C375.995 126.5 376.118 127.288 376.202 128.081C376.283 128.871 376.325 129.667 376.325 130.461Z" fill="white"/>
</g>
<defs>
<clipPath id="clip0_526_283">
<rect width="770" height="470" fill="white" transform="translate(0 0.780273)"/>
</clipPath>
</defs>
</svg>
