<svg width="200" height="79" viewBox="0 0 200 79" fill="none" xmlns="http://www.w3.org/2000/svg">
<path d="M66.6198 2.95294C66.4635 2.94253 66.3125 2.94774 66.1562 2.95815C66.0052 2.97378 65.8541 2.99461 65.7031 3.02586C65.5521 3.05711 65.4062 3.09878 65.2604 3.15086C65.1146 3.19774 64.9687 3.25503 64.8333 3.31753C64.6927 3.38003 64.5625 3.44774 64.4323 3.52586L51.2552 11.229C50.9948 11.38 50.75 11.5467 50.5156 11.7238C50.2864 11.9061 50.0677 12.0988 49.8646 12.3019C49.6614 12.5102 49.4687 12.729 49.2969 12.9582C49.1198 13.1873 48.9635 13.4269 48.8229 13.6717C48.6771 13.9217 48.5521 14.1821 48.4427 14.4477C48.3333 14.7134 48.2396 14.9842 48.1666 15.2654C48.0885 15.5467 48.0312 15.8279 47.9948 16.1196C47.9583 16.4113 47.9375 16.7082 47.9375 17.005V34.2082L45.5521 35.5936L41.5104 33.2342L18.2291 19.6248C18.0937 19.5467 17.9427 19.4842 17.7916 19.4425C17.6354 19.4009 17.4791 19.38 17.3177 19.38C17.1562 19.38 16.9948 19.4009 16.8437 19.4373C16.6875 19.479 16.5416 19.5415 16.401 19.6196L15.8802 19.9217L4.99477 26.2029C4.85415 26.2863 4.72915 26.3852 4.61456 26.4946C4.50519 26.6092 4.40623 26.7342 4.3281 26.8748C4.24477 27.0102 4.18227 27.1613 4.14581 27.3123C4.10415 27.4686 4.08331 27.6248 4.08331 27.7863C4.08331 27.9425 4.10415 28.104 4.14581 28.255C4.18227 28.4113 4.24477 28.5571 4.3281 28.6977C4.40623 28.8332 4.50519 28.9634 4.61456 29.0727C4.72915 29.1873 4.85415 29.2863 4.99477 29.3644L15.3489 35.3436V54.0623C15.3489 54.2238 15.3698 54.38 15.4114 54.5363C15.4531 54.6873 15.5156 54.8384 15.5937 54.9738C15.6719 55.1144 15.7708 55.2394 15.8802 55.354C15.9948 55.4634 16.1198 55.5623 16.2604 55.6404L26.4896 61.5467L25.0989 64.6977L35.4687 63.5727L29.3594 55.0415L27.9687 58.1925L18.9948 53.0102V37.4477L21.4844 38.8852L18.9948 33.2342L15.3489 31.13L9.55206 27.7863L15.3489 24.4373L17.3073 23.3071L18.9948 24.2967L41.9219 37.6977L34.3177 42.0832L30.8281 40.0727L32.8177 37.2967L22.4479 36.1717L26.7083 45.8227L28.6979 43.0467L33.4062 45.7654C33.5469 45.8488 33.6927 45.9113 33.8489 45.9477C34 45.9894 34.1562 46.0102 34.3177 46.0102C34.4791 46.0102 34.6354 45.9894 34.7916 45.9477C34.9427 45.9113 35.0885 45.8488 35.2291 45.7654L43.7239 40.8644V67.2915L39.6354 64.9269L33.4948 65.5936L44.6354 72.0259C44.6406 72.0311 44.651 72.0311 44.6562 72.0311C44.7864 72.104 44.9219 72.1665 45.0677 72.2029C45.0677 72.2029 45.0729 72.2082 45.0781 72.2082C45.0833 72.2134 45.0885 72.2082 45.0989 72.2134C45.2396 72.2498 45.3854 72.2707 45.5312 72.2707C45.5364 72.2707 45.5416 72.2707 45.5469 72.2707C45.5573 72.2707 45.5677 72.2707 45.5781 72.2654C45.7187 72.2654 45.8646 72.2498 46.0052 72.2134C46.0104 72.2082 46.0156 72.2134 46.0208 72.2082C46.0312 72.2082 46.0364 72.2029 46.0469 72.1977C46.1875 72.1561 46.3229 72.104 46.4531 72.0311L46.4687 72.0207L74.776 55.8748C74.9166 55.7967 75.0416 55.6977 75.1562 55.5884C75.2708 55.4738 75.3646 55.3488 75.4479 55.2082C75.526 55.0675 75.5885 54.9217 75.6302 54.7654C75.6719 54.6144 75.6927 54.4529 75.6927 54.2915V48.4165L78.2864 46.9217C78.4166 46.8436 78.5469 46.7654 78.6666 46.6873C78.7916 46.604 78.9114 46.5154 79.026 46.4269C79.1458 46.3384 79.2604 46.2446 79.3698 46.1457C79.4791 46.0519 79.5833 45.9529 79.6875 45.8488C79.7864 45.7498 79.8854 45.6404 79.9844 45.5311C80.0781 45.4269 80.1666 45.3123 80.2552 45.1977C80.3437 45.0832 80.4271 44.9686 80.5052 44.8488C80.5885 44.729 80.6614 44.6092 80.7344 44.4842C80.8073 44.3592 80.875 44.2342 80.9375 44.104C81 43.9738 81.0625 43.8436 81.1146 43.7134C81.1719 43.5779 81.2187 43.4425 81.2656 43.3071C81.3125 43.1717 81.3541 43.0311 81.3958 42.8957C81.4323 42.755 81.4635 42.6092 81.4948 42.4686C81.5208 42.3279 81.5469 42.1821 81.5625 42.0363C81.5833 41.8904 81.5989 41.7446 81.6094 41.5936C81.6198 41.4477 81.625 41.2967 81.625 41.1509V26.9738C81.625 26.8227 81.6146 26.6717 81.5989 26.5207C81.5833 26.3696 81.5625 26.2186 81.526 26.0675C81.4948 25.9165 81.4583 25.7654 81.4062 25.6196C81.3594 25.479 81.3021 25.3332 81.2396 25.1925C81.1719 25.0571 81.0989 24.9217 81.0104 24.7915C80.9271 24.6613 80.8333 24.5415 80.7344 24.4269C80.6302 24.3071 80.5208 24.1977 80.3958 24.0988C80.276 23.9998 80.1406 23.9061 80 23.8279C79.8594 23.7446 79.7135 23.6769 79.5677 23.6196C79.4166 23.5675 79.2656 23.5259 79.1146 23.4946C78.9635 23.4634 78.8073 23.4425 78.6562 23.4373C78.5781 23.4321 78.5 23.4321 78.4271 23.4321C78.3489 23.4373 78.2708 23.4373 78.1979 23.4477C78.0416 23.4582 77.8906 23.4842 77.7396 23.5154C77.5885 23.5467 77.4427 23.5832 77.2969 23.6352C77.151 23.6821 77.0104 23.7394 76.8698 23.8019C76.7291 23.8644 76.5989 23.9321 76.4687 24.005L75.6927 24.4582V21.2238C75.6927 21.0623 75.6719 20.9061 75.6302 20.7498C75.5885 20.5988 75.5312 20.4477 75.4479 20.3123C75.3698 20.1717 75.2708 20.0467 75.1562 19.9321C75.0469 19.8227 74.9166 19.7238 74.7812 19.6457C74.6406 19.5623 74.4948 19.505 74.3385 19.4634C74.1875 19.4217 74.026 19.4009 73.8646 19.4009C73.7083 19.4009 73.5469 19.4217 73.3958 19.4634C73.2396 19.505 73.0937 19.5675 72.9531 19.6457L69.5885 21.6092V6.48419C69.5885 6.33315 69.5781 6.18211 69.5625 6.03107C69.5469 5.88003 69.526 5.72899 69.4948 5.57794C69.4583 5.4269 69.4219 5.28107 69.3698 5.13523C69.3229 4.9894 69.2656 4.84357 69.2031 4.70815C69.1354 4.56753 69.0625 4.43211 68.9739 4.30711C68.8906 4.1769 68.7969 4.0519 68.6979 3.93732C68.5937 3.82274 68.4791 3.71336 68.3594 3.6144C68.2396 3.51023 68.1041 3.42169 67.9635 3.33836C67.8229 3.25503 67.6771 3.18732 67.526 3.13523C67.3802 3.07794 67.2291 3.03628 67.0781 3.00503C66.9271 2.97899 66.7708 2.95815 66.6198 2.95294ZM65.9427 6.8644V23.729L51.5833 32.0832V17.0102C51.5833 16.9217 51.5989 16.8227 51.625 16.7082C51.651 16.5988 51.6875 16.479 51.7344 16.354C51.8281 16.0988 51.9635 15.8279 52.1146 15.5623C52.2656 15.2967 52.4323 15.0467 52.6041 14.8384C52.6875 14.7342 52.776 14.6404 52.8541 14.5623C52.9375 14.4842 53.0156 14.4165 53.0937 14.3748L65.9427 6.8644ZM60.7291 13.9165L58.7812 15.3071L58.4739 16.5363C58.1875 16.7811 57.9219 17.0259 57.6719 17.2654C57.4271 17.4946 57.2656 17.6717 57.1823 17.7863C57.0104 18.0311 56.8437 18.3904 56.6771 18.8592C56.5156 19.3175 56.4323 19.729 56.4323 20.0884C56.4323 20.5988 56.5469 20.9269 56.7656 21.0832C56.9844 21.2342 57.2448 21.2811 57.5364 21.2134C57.8333 21.1509 58.2083 21.0311 58.6562 20.8488C59.0312 20.7029 59.2969 20.6196 59.4531 20.5988C59.6094 20.5675 59.6875 20.6352 59.6875 20.8019C59.6875 20.8592 59.6719 20.9373 59.6406 21.0415C59.6146 21.1352 59.5781 21.2134 59.526 21.2811C59.4948 21.3279 59.3906 21.4165 59.2187 21.5363C58.9271 21.7498 58.4896 22.0311 57.9062 22.3904C57.3333 22.7394 56.9062 22.9998 56.6198 23.1613C56.5677 23.3592 56.5156 23.6509 56.4583 24.0259C56.4114 24.3904 56.375 24.6613 56.3594 24.8436C56.7344 24.6717 57.2031 24.4165 57.7604 24.0779L57.4062 25.4998L59.3541 24.104L59.7135 22.6977C61.1094 21.4998 61.8125 20.2602 61.8125 18.9738C61.8125 18.4998 61.7031 18.1977 61.4791 18.0571C61.2656 17.9165 61.0156 17.88 60.7187 17.9529C60.4323 18.0154 60.0625 18.1352 59.6146 18.3123C59.2396 18.4634 58.9583 18.5571 58.7812 18.5884C58.6094 18.6092 58.5208 18.5363 58.5208 18.3644C58.5208 18.2915 58.5312 18.2186 58.5573 18.1457C58.5833 18.0675 58.6094 18.0102 58.6458 17.9738C58.6614 17.9529 58.7291 17.8957 58.8541 17.8123C59.1458 17.5988 59.8281 17.1509 60.8906 16.4686L61.1719 16.2759C61.2239 16.005 61.2656 15.7082 61.3073 15.3957C61.3594 15.0727 61.3854 14.8279 61.3958 14.6561C61.1458 14.7498 60.8229 14.9217 60.4114 15.1613L60.7291 13.9165ZM72.0521 24.3904V26.5779L69.5885 28.0102L67.7656 29.0675L65.9427 30.13L58.3437 34.5467C58.2135 34.6248 58.0885 34.7029 57.9635 34.7863C57.8437 34.8696 57.7239 34.9529 57.6094 35.0467C57.4896 35.1352 57.3802 35.229 57.2708 35.3227C57.1614 35.4217 57.0521 35.5207 56.9531 35.6196C56.8489 35.7238 56.75 35.8279 56.6562 35.9373C56.5625 36.0467 56.4687 36.1613 56.3802 36.2759C56.2969 36.3904 56.2135 36.505 56.1354 36.6248C56.0521 36.7446 55.9791 36.8644 55.9062 36.9894C55.8333 37.1144 55.7656 37.2394 55.7031 37.3696C55.6406 37.4998 55.5833 37.63 55.526 37.7602C55.4739 37.8957 55.4219 38.0311 55.375 38.1665C55.3281 38.3019 55.2864 38.4425 55.25 38.5832C55.2135 38.7238 55.1771 38.8644 55.151 39.005C55.1198 39.1509 55.0989 39.2915 55.0781 39.4373C55.0625 39.5832 55.0469 39.729 55.0364 39.88C55.026 40.0259 55.0208 40.1769 55.0208 40.3227V54.4009C55.0208 54.5519 55.0312 54.7029 55.0469 54.854C55.0625 55.005 55.0833 55.1561 55.1146 55.3071C55.1458 55.4582 55.1875 55.604 55.2344 55.7498C55.2812 55.8957 55.3385 56.0415 55.4062 56.1821C55.4739 56.3175 55.5469 56.4529 55.6302 56.5832C55.7135 56.7082 55.8073 56.8332 55.9114 56.9477C56.0156 57.0623 56.125 57.1717 56.2448 57.2759C56.3698 57.3748 56.5 57.4686 56.6406 57.5467C56.7812 57.63 56.9271 57.6977 57.0781 57.755C57.2239 57.8071 57.375 57.8488 57.526 57.88C57.6771 57.9113 57.8333 57.9321 57.9844 57.9425C58.1354 57.9477 58.2916 57.9477 58.4427 57.9321C58.5989 57.9217 58.75 57.9009 58.901 57.8696C59.0521 57.8384 59.1979 57.7967 59.3437 57.7498C59.4896 57.7029 59.6354 57.6457 59.7708 57.5832C59.9114 57.5207 60.0469 57.4529 60.1771 57.38L72.0521 50.5259V53.2342L47.3698 67.3123V38.755L47.9375 38.4269L51.5833 36.3019L65.9427 27.9477L67.7656 26.8852L69.5885 25.8279L72.0521 24.3904ZM77.9791 27.3436V41.1509C77.9791 41.2342 77.9635 41.3332 77.9375 41.4477C77.9114 41.5571 77.875 41.6769 77.8281 41.8019C77.776 41.9269 77.7239 42.0571 77.6562 42.1873C77.5937 42.3227 77.5208 42.4529 77.4479 42.5884C77.3698 42.7186 77.2916 42.8436 77.2083 42.9686C77.125 43.0884 77.0416 43.2029 76.9531 43.3071C76.8698 43.4113 76.7864 43.505 76.7031 43.5832C76.6198 43.6561 76.5416 43.7186 76.4687 43.7654L75.6927 44.2082L72.0521 46.3123L58.6666 54.0415V40.3227C58.6666 40.2394 58.6823 40.1352 58.7083 40.0259C58.7344 39.9165 58.7708 39.7967 58.8177 39.6717C58.8646 39.5467 58.9219 39.4165 58.9844 39.2811C59.0521 39.1509 59.1198 39.0154 59.1979 38.8852C59.2708 38.7498 59.3541 38.6248 59.4375 38.4998C59.5208 38.38 59.6041 38.2654 59.6875 38.1613C59.7708 38.0571 59.8594 37.9634 59.9375 37.8852C60.0208 37.8071 60.1041 37.7446 60.1771 37.6977L65.9427 34.3488L69.5885 32.2238L72.0521 30.7915L75.6927 28.6717L77.9791 27.3436ZM65.3594 39.354C65.0312 39.354 64.7135 39.4009 64.401 39.505C64.0885 39.604 63.8021 39.755 63.5364 39.9477C63.2708 40.1404 63.0416 40.3696 62.8489 40.6352C62.6562 40.9009 62.5052 41.1873 62.4062 41.4998C62.3073 41.8123 62.2552 42.13 62.2552 42.4582C62.2552 42.7863 62.3073 43.1092 62.4062 43.4217C62.5052 43.7342 62.6562 44.0207 62.8489 44.2863C63.0416 44.5519 63.2708 44.7811 63.5364 44.9738C63.8021 45.1665 64.0885 45.3123 64.401 45.4165C64.7135 45.5154 65.0312 45.5675 65.3594 45.5675C65.6875 45.5675 66.0104 45.5154 66.3229 45.4165C66.6354 45.3123 66.9219 45.1665 67.1875 44.9738C67.4531 44.7811 67.6823 44.5519 67.875 44.2863C68.0677 44.0207 68.2135 43.7342 68.3177 43.4217C68.4166 43.1092 68.4687 42.7863 68.4687 42.4582C68.4687 42.3488 68.4635 42.2446 68.4531 42.1352C68.4427 42.0259 68.4219 41.9217 68.401 41.8123C68.3802 41.7082 68.3489 41.604 68.3177 41.4998C68.2812 41.3957 68.2448 41.2967 68.1979 41.1977C68.1562 41.0988 68.1041 40.9998 68.0521 40.9061C68 40.8123 67.9375 40.7186 67.875 40.6352C67.8125 40.5467 67.7448 40.4634 67.6719 40.38C67.5989 40.3019 67.5208 40.2238 67.4427 40.1509C67.3594 40.0779 67.276 40.0102 67.1875 39.9477C67.0989 39.88 67.0104 39.8227 66.9166 39.7707C66.8229 39.7134 66.7239 39.6665 66.625 39.6196C66.526 39.5779 66.4271 39.5363 66.3229 39.505C66.2187 39.4686 66.1146 39.4425 66.0052 39.4217C65.901 39.3957 65.7969 39.38 65.6875 39.3696C65.5781 39.3592 65.4687 39.354 65.3594 39.354Z" fill="#FFCA0A"/>
<path d="M124 17.4478L120.068 17.6092V31.4113H124V26.2603C124.391 26.3957 124.646 26.6717 124.854 27.1092L127.036 31.4113H131.318L129.016 27.4998C128.719 26.9686 128.349 26.328 127.818 25.7498C128.328 25.3384 128.672 24.8748 128.969 24.3957L130.75 21.5259L134.057 31.1353L135.641 31.229C135.458 31.6665 135.229 32.1717 135 32.63C133.87 32.6769 132.766 32.63 132.078 32.6092C131.937 33.2759 131.802 34.5155 131.844 35.3019C133.318 35.7342 136.078 35.6196 136.932 35.0259C137.687 34.4946 138.521 33.3696 139.667 29.6873L142.427 20.828H138.266L136.609 28.6717H136.542L136.516 28.2342L134.677 20.828H131.187L131.203 20.8071L126.901 20.828L124.943 24.3488C124.667 24.854 124.391 25.13 124 25.2915V17.4478ZM163.594 18.229C162.031 18.229 159.917 18.2498 158.302 18.2967V31.4113H162.448V27.0415C165.068 27.1769 167.552 26.9686 168.104 26.604C168.635 26.2342 169.578 24.4425 169.578 22.6925C169.578 18.8748 166.885 18.229 163.594 18.229ZM95.8177 18.2967V31.4113H100.281C102.948 31.4113 105.182 31.2759 105.896 30.8123C106.307 30.5623 107.229 29.2707 107.229 27.6144C107.229 26.1873 106.583 24.7394 104.328 24.4842V24.3696C106.078 24.005 106.771 22.9686 106.771 21.4269C106.771 18.505 104.26 18.2967 101.224 18.2967H95.8177ZM148.667 20.5988C147.167 20.5988 145.234 20.8748 143.719 21.1978C143.766 21.9321 143.854 22.9425 143.995 23.8644C145.099 23.7498 146.089 23.6561 146.984 23.6144C147.651 23.5675 148.62 23.5207 148.802 23.6561C148.943 23.7498 148.943 24.7186 148.943 25.2707C147.354 25.2915 145.995 25.3853 144.958 25.6821C143.625 26.0728 142.844 27.13 142.844 28.3957C142.844 30.5623 144.385 31.6873 146.339 31.6873C147.583 31.6873 148.573 31.1144 149.286 29.9634L149.651 31.4113H152.922L152.849 28.6978L152.875 25.3123C152.896 22.7603 152.552 20.5988 148.667 20.5988ZM176.156 20.5988C174.661 20.5988 172.729 20.8748 171.214 21.1978C171.255 21.9321 171.349 22.9425 171.49 23.8644C172.594 23.7498 173.583 23.6561 174.479 23.6144C175.146 23.5675 176.109 23.5207 176.297 23.6561C176.432 23.7498 176.432 24.7186 176.432 25.2707C174.844 25.2915 173.49 25.3853 172.453 25.6821C171.12 26.0728 170.339 27.13 170.339 28.3957C170.339 30.5623 171.88 31.6873 173.833 31.6873C175.078 31.6873 176.068 31.1144 176.781 29.9634L177.146 31.4113H180.411L180.344 28.6978L180.37 25.3123C180.391 22.7603 180.047 20.5988 176.156 20.5988ZM113.901 20.6196C112.219 20.6196 110.151 21.1717 109.505 21.8644C108.906 22.505 108.333 24.4425 108.333 26.328C108.333 29.9842 110.359 31.6873 113.807 31.6873C115.073 31.6873 116.891 31.5728 118.411 30.8592L118.062 28.4894C116.682 28.5832 115.854 28.6509 115.167 28.6509C113.323 28.6509 112.38 28.5103 112.359 26.9738H115.625C116.062 26.9738 117.51 26.9478 118.687 26.88C118.687 23.0363 118.224 20.6196 113.901 20.6196ZM100.969 20.7342C101.75 20.7342 102.167 20.7603 102.49 21.0832C102.766 21.3592 102.833 21.7967 102.833 22.1144C102.833 22.7603 102.536 23.3384 102.281 23.453C101.958 23.5884 100.786 23.5675 100.187 23.5675H99.9583V20.7603C100.302 20.7342 100.625 20.7342 100.969 20.7342ZM163.344 20.8071C164.974 20.8071 165.552 21.4009 165.552 22.9425C165.552 23.3332 165.505 23.9113 165.323 24.1405C165.094 24.4165 163.25 24.4165 162.448 24.3696V20.8748C162.766 20.828 163.068 20.8071 163.344 20.8071ZM181.172 20.828L184.719 31.1353L186.302 31.229C186.12 31.6665 185.891 32.1717 185.661 32.63C184.531 32.6769 183.427 32.63 182.74 32.6092C182.599 33.2759 182.464 34.5155 182.505 35.3019C183.979 35.7342 186.74 35.6196 187.594 35.0259C188.354 34.4946 189.182 33.3696 190.328 29.6873L193.094 20.828H188.927L187.271 28.6717H187.203L187.177 28.2342L185.339 20.828H181.172ZM113.807 23.104C114.729 23.1509 115.052 23.7498 115.052 25.13C114.568 25.1561 113.995 25.1509 113.484 25.1509H112.292C112.312 24.3957 112.406 23.4738 112.589 23.3592C112.911 23.1769 113.349 23.0832 113.807 23.104ZM100.922 25.6144C102.146 25.6144 102.51 25.703 102.786 25.9582C103.062 26.2134 103.25 26.8332 103.25 27.479C103.25 27.9842 103.089 28.5832 102.88 28.7655C102.698 28.9269 101.318 28.9946 99.9583 28.9738V25.6353C100.349 25.6144 100.672 25.6144 100.922 25.6144ZM148.755 27.1769H148.943V28.88C148.479 29.0415 148.042 29.1092 147.677 29.1092C147.031 29.1092 146.641 28.9009 146.641 28.1457C146.641 27.8905 146.708 27.5207 146.87 27.3644C147.01 27.2238 147.974 27.1769 148.755 27.1769ZM176.25 27.1769H176.432V28.88C175.974 29.0415 175.536 29.1092 175.167 29.1092C174.526 29.1092 174.135 28.9009 174.135 28.1457C174.135 27.8905 174.203 27.5207 174.365 27.3644C174.5 27.2238 175.469 27.1769 176.25 27.1769ZM175.021 37.2134L167.682 39.953V43.6561C168.599 44.4634 169.453 45.4998 170.302 46.5103C169.266 46.6509 168 46.7186 166.115 46.7186C164.276 46.7186 163.677 46.3488 163.839 44.578L161.906 44.2811C160.984 46.5103 159.26 46.7186 157.12 46.7186H139.911C139.682 46.7186 139.292 46.6925 138.854 46.6248C138.969 44.0259 138.854 40.6196 138.693 37.9738L134.99 38.1821C135.146 42.3905 135.193 49.2238 135.469 50.328C136.62 50.8384 138.417 50.9946 139.911 50.9946H157.12C158.823 50.9946 159.812 50.9061 160.984 50.4217C161.516 50.2134 162.021 49.8488 162.344 49.3853H162.552C163.333 50.4217 164.458 50.9946 166.115 50.9946C169.5 50.9946 170.854 50.8592 171.823 50.4686L172.698 49.203C173.755 50.2603 174.833 50.9946 175.984 50.9946C177.687 50.9946 178.677 50.9061 179.849 50.4217C180.38 50.2134 180.885 49.8488 181.208 49.3853H181.417C182.198 50.4217 183.323 50.9946 184.979 50.9946C186.937 50.9946 188.526 50.6769 189.604 50.328C190.25 49.3175 190.552 47.729 190.552 46.1405C190.552 45.0623 190.411 44.005 190.135 43.13L186.432 43.979C186.661 44.6248 186.984 45.5207 187.214 46.5103C186.682 46.6509 185.901 46.7186 184.979 46.7186C183.141 46.7186 182.542 46.3488 182.703 44.578L180.771 44.2811C179.849 46.5103 178.125 46.7186 175.984 46.7186C174.766 46.7186 173.729 45.453 172.422 43.8436C172.073 43.4269 171.708 42.9686 171.318 42.5103L175.344 41.2394V37.4478L175.021 37.2134ZM114.766 37.9738L111.057 38.1821C111.219 42.3905 111.266 49.2238 111.542 50.328C112.693 50.8384 114.49 50.9946 115.984 50.9946H124.589C126.542 50.9946 128.13 50.6769 129.214 50.328C129.854 49.3175 130.156 47.729 130.156 46.1405C130.156 45.0623 130.016 44.005 129.74 43.13L126.036 43.979C126.266 44.6248 126.589 45.5207 126.818 46.5103C126.292 46.6509 125.51 46.7186 124.589 46.7186H115.984C115.755 46.7186 115.359 46.6925 114.927 46.6248C115.042 44.0259 114.927 40.6196 114.766 37.9738ZM109.516 40.2759C105.286 41.0103 102.13 44.604 102.13 46.9478C102.13 47.6613 102.687 48.1457 104.964 49.2967C103.651 50.3071 102.135 50.7446 101.234 50.7446C99.6719 50.7446 98.9791 49.7342 98.9791 48.1457C98.9791 47.0884 99.2812 45.7967 99.8333 44.3957L96.6562 43.38C95.7344 45.5884 95.2083 47.7082 95.2083 49.5259C95.2083 52.6769 96.75 54.8853 100.359 54.8853C105.01 54.8853 108.734 51.7342 108.734 48.1665C108.734 47.1092 107.219 46.2134 105.792 45.5675C106.526 45.0623 107.724 44.6457 109.589 44.2082C109.75 43.3123 109.703 41.0832 109.516 40.2759ZM126.245 52.6092C125.646 52.6978 124.703 54.2863 124.589 54.8384C125 55.3696 126.312 56.2655 126.932 56.4946C127.443 56.1717 128.594 54.6561 128.474 54.1509C128.385 53.6665 126.771 52.4946 126.245 52.6092ZM158.682 52.6092C158.13 52.6978 157.26 54.1925 157.12 54.703C157.536 55.1821 158.755 55.9894 159.307 56.2446C159.604 56.0363 160.182 55.3696 160.5 54.7915C160.964 55.3019 162.068 56.0155 162.594 56.2446C163.057 55.9217 164.115 54.5415 164.047 54.0571C163.953 53.6196 162.432 52.5415 161.974 52.6092C161.583 52.6769 161.078 53.3696 160.734 53.9894C160.526 53.505 159.12 52.5415 158.682 52.6092ZM177.552 52.6092C177 52.6978 176.125 54.1925 175.984 54.703C176.401 55.1821 177.62 55.9894 178.172 56.2446C178.469 56.0363 179.047 55.3696 179.37 54.7915C179.828 55.3019 180.932 56.0155 181.464 56.2446C181.922 55.9217 182.979 54.5415 182.911 54.0571C182.818 53.6196 181.302 52.5415 180.839 52.6092C180.448 52.6769 179.943 53.3696 179.599 53.9894C179.391 53.505 177.99 52.5415 177.552 52.6092ZM186.641 52.6092C186.042 52.6978 185.099 54.2863 184.979 54.8384C185.396 55.3696 186.708 56.2655 187.328 56.4946C187.833 56.1717 188.984 54.6561 188.87 54.1509C188.776 53.6665 187.167 52.4946 186.641 52.6092ZM99.8802 57.6248C99.3281 57.7134 98.4531 59.2082 98.3125 59.7186C98.7291 60.1978 99.9479 61.005 100.5 61.2603C100.797 61.0519 101.375 60.3853 101.698 59.8071C102.156 60.3175 103.26 61.0311 103.792 61.2603C104.25 60.9373 105.307 59.5571 105.24 59.0728C105.146 58.6353 103.63 57.5571 103.167 57.6248C102.776 57.6925 102.271 58.3853 101.927 59.005C101.719 58.5207 100.318 57.5571 99.8802 57.6248Z" fill="#FFCA0A"/>
</svg>
